%TF.GenerationSoftware,KiCad,Pcbnew,(6.0.10-0)*%
%TF.CreationDate,2023-03-08T10:25:28-05:00*%
%TF.ProjectId,shield,73686965-6c64-42e6-9b69-6361645f7063,rev?*%
%TF.SameCoordinates,Original*%
%TF.FileFunction,Legend,Top*%
%TF.FilePolarity,Positive*%
%FSLAX46Y46*%
G04 Gerber Fmt 4.6, Leading zero omitted, Abs format (unit mm)*
G04 Created by KiCad (PCBNEW (6.0.10-0)) date 2023-03-08 10:25:28*
%MOMM*%
%LPD*%
G01*
G04 APERTURE LIST*
%ADD10C,0.150000*%
%ADD11C,0.120000*%
G04 APERTURE END LIST*
D10*
%TO.C,U2*%
X121352380Y-108461904D02*
X122161904Y-108461904D01*
X122257142Y-108414285D01*
X122304761Y-108366666D01*
X122352380Y-108271428D01*
X122352380Y-108080952D01*
X122304761Y-107985714D01*
X122257142Y-107938095D01*
X122161904Y-107890476D01*
X121352380Y-107890476D01*
X121447619Y-107461904D02*
X121400000Y-107414285D01*
X121352380Y-107319047D01*
X121352380Y-107080952D01*
X121400000Y-106985714D01*
X121447619Y-106938095D01*
X121542857Y-106890476D01*
X121638095Y-106890476D01*
X121780952Y-106938095D01*
X122352380Y-107509523D01*
X122352380Y-106890476D01*
%TO.C,R16*%
X137457142Y-127752380D02*
X137123809Y-127276190D01*
X136885714Y-127752380D02*
X136885714Y-126752380D01*
X137266666Y-126752380D01*
X137361904Y-126800000D01*
X137409523Y-126847619D01*
X137457142Y-126942857D01*
X137457142Y-127085714D01*
X137409523Y-127180952D01*
X137361904Y-127228571D01*
X137266666Y-127276190D01*
X136885714Y-127276190D01*
X138409523Y-127752380D02*
X137838095Y-127752380D01*
X138123809Y-127752380D02*
X138123809Y-126752380D01*
X138028571Y-126895238D01*
X137933333Y-126990476D01*
X137838095Y-127038095D01*
X139266666Y-126752380D02*
X139076190Y-126752380D01*
X138980952Y-126800000D01*
X138933333Y-126847619D01*
X138838095Y-126990476D01*
X138790476Y-127180952D01*
X138790476Y-127561904D01*
X138838095Y-127657142D01*
X138885714Y-127704761D01*
X138980952Y-127752380D01*
X139171428Y-127752380D01*
X139266666Y-127704761D01*
X139314285Y-127657142D01*
X139361904Y-127561904D01*
X139361904Y-127323809D01*
X139314285Y-127228571D01*
X139266666Y-127180952D01*
X139171428Y-127133333D01*
X138980952Y-127133333D01*
X138885714Y-127180952D01*
X138838095Y-127228571D01*
X138790476Y-127323809D01*
%TO.C,U1*%
X104252380Y-108461904D02*
X105061904Y-108461904D01*
X105157142Y-108414285D01*
X105204761Y-108366666D01*
X105252380Y-108271428D01*
X105252380Y-108080952D01*
X105204761Y-107985714D01*
X105157142Y-107938095D01*
X105061904Y-107890476D01*
X104252380Y-107890476D01*
X105252380Y-106890476D02*
X105252380Y-107461904D01*
X105252380Y-107176190D02*
X104252380Y-107176190D01*
X104395238Y-107271428D01*
X104490476Y-107366666D01*
X104538095Y-107461904D01*
%TO.C,R22*%
X130757142Y-81872380D02*
X130423809Y-81396190D01*
X130185714Y-81872380D02*
X130185714Y-80872380D01*
X130566666Y-80872380D01*
X130661904Y-80920000D01*
X130709523Y-80967619D01*
X130757142Y-81062857D01*
X130757142Y-81205714D01*
X130709523Y-81300952D01*
X130661904Y-81348571D01*
X130566666Y-81396190D01*
X130185714Y-81396190D01*
X131138095Y-80967619D02*
X131185714Y-80920000D01*
X131280952Y-80872380D01*
X131519047Y-80872380D01*
X131614285Y-80920000D01*
X131661904Y-80967619D01*
X131709523Y-81062857D01*
X131709523Y-81158095D01*
X131661904Y-81300952D01*
X131090476Y-81872380D01*
X131709523Y-81872380D01*
X132090476Y-80967619D02*
X132138095Y-80920000D01*
X132233333Y-80872380D01*
X132471428Y-80872380D01*
X132566666Y-80920000D01*
X132614285Y-80967619D01*
X132661904Y-81062857D01*
X132661904Y-81158095D01*
X132614285Y-81300952D01*
X132042857Y-81872380D01*
X132661904Y-81872380D01*
%TO.C,C5*%
X145533333Y-118307142D02*
X145485714Y-118354761D01*
X145342857Y-118402380D01*
X145247619Y-118402380D01*
X145104761Y-118354761D01*
X145009523Y-118259523D01*
X144961904Y-118164285D01*
X144914285Y-117973809D01*
X144914285Y-117830952D01*
X144961904Y-117640476D01*
X145009523Y-117545238D01*
X145104761Y-117450000D01*
X145247619Y-117402380D01*
X145342857Y-117402380D01*
X145485714Y-117450000D01*
X145533333Y-117497619D01*
X146438095Y-117402380D02*
X145961904Y-117402380D01*
X145914285Y-117878571D01*
X145961904Y-117830952D01*
X146057142Y-117783333D01*
X146295238Y-117783333D01*
X146390476Y-117830952D01*
X146438095Y-117878571D01*
X146485714Y-117973809D01*
X146485714Y-118211904D01*
X146438095Y-118307142D01*
X146390476Y-118354761D01*
X146295238Y-118402380D01*
X146057142Y-118402380D01*
X145961904Y-118354761D01*
X145914285Y-118307142D01*
%TO.C,U4*%
X136038095Y-115052380D02*
X136038095Y-115861904D01*
X136085714Y-115957142D01*
X136133333Y-116004761D01*
X136228571Y-116052380D01*
X136419047Y-116052380D01*
X136514285Y-116004761D01*
X136561904Y-115957142D01*
X136609523Y-115861904D01*
X136609523Y-115052380D01*
X137514285Y-115385714D02*
X137514285Y-116052380D01*
X137276190Y-115004761D02*
X137038095Y-115719047D01*
X137657142Y-115719047D01*
%TO.C,C18*%
X118057142Y-93557142D02*
X118009523Y-93604761D01*
X117866666Y-93652380D01*
X117771428Y-93652380D01*
X117628571Y-93604761D01*
X117533333Y-93509523D01*
X117485714Y-93414285D01*
X117438095Y-93223809D01*
X117438095Y-93080952D01*
X117485714Y-92890476D01*
X117533333Y-92795238D01*
X117628571Y-92700000D01*
X117771428Y-92652380D01*
X117866666Y-92652380D01*
X118009523Y-92700000D01*
X118057142Y-92747619D01*
X119009523Y-93652380D02*
X118438095Y-93652380D01*
X118723809Y-93652380D02*
X118723809Y-92652380D01*
X118628571Y-92795238D01*
X118533333Y-92890476D01*
X118438095Y-92938095D01*
X119580952Y-93080952D02*
X119485714Y-93033333D01*
X119438095Y-92985714D01*
X119390476Y-92890476D01*
X119390476Y-92842857D01*
X119438095Y-92747619D01*
X119485714Y-92700000D01*
X119580952Y-92652380D01*
X119771428Y-92652380D01*
X119866666Y-92700000D01*
X119914285Y-92747619D01*
X119961904Y-92842857D01*
X119961904Y-92890476D01*
X119914285Y-92985714D01*
X119866666Y-93033333D01*
X119771428Y-93080952D01*
X119580952Y-93080952D01*
X119485714Y-93128571D01*
X119438095Y-93176190D01*
X119390476Y-93271428D01*
X119390476Y-93461904D01*
X119438095Y-93557142D01*
X119485714Y-93604761D01*
X119580952Y-93652380D01*
X119771428Y-93652380D01*
X119866666Y-93604761D01*
X119914285Y-93557142D01*
X119961904Y-93461904D01*
X119961904Y-93271428D01*
X119914285Y-93176190D01*
X119866666Y-93128571D01*
X119771428Y-93080952D01*
%TO.C,C8*%
X130983333Y-76807142D02*
X130935714Y-76854761D01*
X130792857Y-76902380D01*
X130697619Y-76902380D01*
X130554761Y-76854761D01*
X130459523Y-76759523D01*
X130411904Y-76664285D01*
X130364285Y-76473809D01*
X130364285Y-76330952D01*
X130411904Y-76140476D01*
X130459523Y-76045238D01*
X130554761Y-75950000D01*
X130697619Y-75902380D01*
X130792857Y-75902380D01*
X130935714Y-75950000D01*
X130983333Y-75997619D01*
X131554761Y-76330952D02*
X131459523Y-76283333D01*
X131411904Y-76235714D01*
X131364285Y-76140476D01*
X131364285Y-76092857D01*
X131411904Y-75997619D01*
X131459523Y-75950000D01*
X131554761Y-75902380D01*
X131745238Y-75902380D01*
X131840476Y-75950000D01*
X131888095Y-75997619D01*
X131935714Y-76092857D01*
X131935714Y-76140476D01*
X131888095Y-76235714D01*
X131840476Y-76283333D01*
X131745238Y-76330952D01*
X131554761Y-76330952D01*
X131459523Y-76378571D01*
X131411904Y-76426190D01*
X131364285Y-76521428D01*
X131364285Y-76711904D01*
X131411904Y-76807142D01*
X131459523Y-76854761D01*
X131554761Y-76902380D01*
X131745238Y-76902380D01*
X131840476Y-76854761D01*
X131888095Y-76807142D01*
X131935714Y-76711904D01*
X131935714Y-76521428D01*
X131888095Y-76426190D01*
X131840476Y-76378571D01*
X131745238Y-76330952D01*
%TO.C,R8*%
X92733333Y-87252380D02*
X92400000Y-86776190D01*
X92161904Y-87252380D02*
X92161904Y-86252380D01*
X92542857Y-86252380D01*
X92638095Y-86300000D01*
X92685714Y-86347619D01*
X92733333Y-86442857D01*
X92733333Y-86585714D01*
X92685714Y-86680952D01*
X92638095Y-86728571D01*
X92542857Y-86776190D01*
X92161904Y-86776190D01*
X93304761Y-86680952D02*
X93209523Y-86633333D01*
X93161904Y-86585714D01*
X93114285Y-86490476D01*
X93114285Y-86442857D01*
X93161904Y-86347619D01*
X93209523Y-86300000D01*
X93304761Y-86252380D01*
X93495238Y-86252380D01*
X93590476Y-86300000D01*
X93638095Y-86347619D01*
X93685714Y-86442857D01*
X93685714Y-86490476D01*
X93638095Y-86585714D01*
X93590476Y-86633333D01*
X93495238Y-86680952D01*
X93304761Y-86680952D01*
X93209523Y-86728571D01*
X93161904Y-86776190D01*
X93114285Y-86871428D01*
X93114285Y-87061904D01*
X93161904Y-87157142D01*
X93209523Y-87204761D01*
X93304761Y-87252380D01*
X93495238Y-87252380D01*
X93590476Y-87204761D01*
X93638095Y-87157142D01*
X93685714Y-87061904D01*
X93685714Y-86871428D01*
X93638095Y-86776190D01*
X93590476Y-86728571D01*
X93495238Y-86680952D01*
%TO.C,C10*%
X130757142Y-113257142D02*
X130709523Y-113304761D01*
X130566666Y-113352380D01*
X130471428Y-113352380D01*
X130328571Y-113304761D01*
X130233333Y-113209523D01*
X130185714Y-113114285D01*
X130138095Y-112923809D01*
X130138095Y-112780952D01*
X130185714Y-112590476D01*
X130233333Y-112495238D01*
X130328571Y-112400000D01*
X130471428Y-112352380D01*
X130566666Y-112352380D01*
X130709523Y-112400000D01*
X130757142Y-112447619D01*
X131709523Y-113352380D02*
X131138095Y-113352380D01*
X131423809Y-113352380D02*
X131423809Y-112352380D01*
X131328571Y-112495238D01*
X131233333Y-112590476D01*
X131138095Y-112638095D01*
X132328571Y-112352380D02*
X132423809Y-112352380D01*
X132519047Y-112400000D01*
X132566666Y-112447619D01*
X132614285Y-112542857D01*
X132661904Y-112733333D01*
X132661904Y-112971428D01*
X132614285Y-113161904D01*
X132566666Y-113257142D01*
X132519047Y-113304761D01*
X132423809Y-113352380D01*
X132328571Y-113352380D01*
X132233333Y-113304761D01*
X132185714Y-113257142D01*
X132138095Y-113161904D01*
X132090476Y-112971428D01*
X132090476Y-112733333D01*
X132138095Y-112542857D01*
X132185714Y-112447619D01*
X132233333Y-112400000D01*
X132328571Y-112352380D01*
%TO.C,R14*%
X137657142Y-68852380D02*
X137323809Y-68376190D01*
X137085714Y-68852380D02*
X137085714Y-67852380D01*
X137466666Y-67852380D01*
X137561904Y-67900000D01*
X137609523Y-67947619D01*
X137657142Y-68042857D01*
X137657142Y-68185714D01*
X137609523Y-68280952D01*
X137561904Y-68328571D01*
X137466666Y-68376190D01*
X137085714Y-68376190D01*
X138609523Y-68852380D02*
X138038095Y-68852380D01*
X138323809Y-68852380D02*
X138323809Y-67852380D01*
X138228571Y-67995238D01*
X138133333Y-68090476D01*
X138038095Y-68138095D01*
X139466666Y-68185714D02*
X139466666Y-68852380D01*
X139228571Y-67804761D02*
X138990476Y-68519047D01*
X139609523Y-68519047D01*
%TO.C,R20*%
X132457142Y-102452380D02*
X132123809Y-101976190D01*
X131885714Y-102452380D02*
X131885714Y-101452380D01*
X132266666Y-101452380D01*
X132361904Y-101500000D01*
X132409523Y-101547619D01*
X132457142Y-101642857D01*
X132457142Y-101785714D01*
X132409523Y-101880952D01*
X132361904Y-101928571D01*
X132266666Y-101976190D01*
X131885714Y-101976190D01*
X132838095Y-101547619D02*
X132885714Y-101500000D01*
X132980952Y-101452380D01*
X133219047Y-101452380D01*
X133314285Y-101500000D01*
X133361904Y-101547619D01*
X133409523Y-101642857D01*
X133409523Y-101738095D01*
X133361904Y-101880952D01*
X132790476Y-102452380D01*
X133409523Y-102452380D01*
X134028571Y-101452380D02*
X134123809Y-101452380D01*
X134219047Y-101500000D01*
X134266666Y-101547619D01*
X134314285Y-101642857D01*
X134361904Y-101833333D01*
X134361904Y-102071428D01*
X134314285Y-102261904D01*
X134266666Y-102357142D01*
X134219047Y-102404761D01*
X134123809Y-102452380D01*
X134028571Y-102452380D01*
X133933333Y-102404761D01*
X133885714Y-102357142D01*
X133838095Y-102261904D01*
X133790476Y-102071428D01*
X133790476Y-101833333D01*
X133838095Y-101642857D01*
X133885714Y-101547619D01*
X133933333Y-101500000D01*
X134028571Y-101452380D01*
%TO.C,U5*%
X110238095Y-97552380D02*
X110238095Y-98361904D01*
X110285714Y-98457142D01*
X110333333Y-98504761D01*
X110428571Y-98552380D01*
X110619047Y-98552380D01*
X110714285Y-98504761D01*
X110761904Y-98457142D01*
X110809523Y-98361904D01*
X110809523Y-97552380D01*
X111761904Y-97552380D02*
X111285714Y-97552380D01*
X111238095Y-98028571D01*
X111285714Y-97980952D01*
X111380952Y-97933333D01*
X111619047Y-97933333D01*
X111714285Y-97980952D01*
X111761904Y-98028571D01*
X111809523Y-98123809D01*
X111809523Y-98361904D01*
X111761904Y-98457142D01*
X111714285Y-98504761D01*
X111619047Y-98552380D01*
X111380952Y-98552380D01*
X111285714Y-98504761D01*
X111238095Y-98457142D01*
%TO.C,J2*%
X72577380Y-87373333D02*
X73291666Y-87373333D01*
X73434523Y-87420952D01*
X73529761Y-87516190D01*
X73577380Y-87659047D01*
X73577380Y-87754285D01*
X72672619Y-86944761D02*
X72625000Y-86897142D01*
X72577380Y-86801904D01*
X72577380Y-86563809D01*
X72625000Y-86468571D01*
X72672619Y-86420952D01*
X72767857Y-86373333D01*
X72863095Y-86373333D01*
X73005952Y-86420952D01*
X73577380Y-86992380D01*
X73577380Y-86373333D01*
%TO.C,R1*%
X102058333Y-99282380D02*
X101725000Y-98806190D01*
X101486904Y-99282380D02*
X101486904Y-98282380D01*
X101867857Y-98282380D01*
X101963095Y-98330000D01*
X102010714Y-98377619D01*
X102058333Y-98472857D01*
X102058333Y-98615714D01*
X102010714Y-98710952D01*
X101963095Y-98758571D01*
X101867857Y-98806190D01*
X101486904Y-98806190D01*
X103010714Y-99282380D02*
X102439285Y-99282380D01*
X102725000Y-99282380D02*
X102725000Y-98282380D01*
X102629761Y-98425238D01*
X102534523Y-98520476D01*
X102439285Y-98568095D01*
%TO.C,R13*%
X140857142Y-68952380D02*
X140523809Y-68476190D01*
X140285714Y-68952380D02*
X140285714Y-67952380D01*
X140666666Y-67952380D01*
X140761904Y-68000000D01*
X140809523Y-68047619D01*
X140857142Y-68142857D01*
X140857142Y-68285714D01*
X140809523Y-68380952D01*
X140761904Y-68428571D01*
X140666666Y-68476190D01*
X140285714Y-68476190D01*
X141809523Y-68952380D02*
X141238095Y-68952380D01*
X141523809Y-68952380D02*
X141523809Y-67952380D01*
X141428571Y-68095238D01*
X141333333Y-68190476D01*
X141238095Y-68238095D01*
X142142857Y-67952380D02*
X142761904Y-67952380D01*
X142428571Y-68333333D01*
X142571428Y-68333333D01*
X142666666Y-68380952D01*
X142714285Y-68428571D01*
X142761904Y-68523809D01*
X142761904Y-68761904D01*
X142714285Y-68857142D01*
X142666666Y-68904761D01*
X142571428Y-68952380D01*
X142285714Y-68952380D01*
X142190476Y-68904761D01*
X142142857Y-68857142D01*
%TO.C,C16*%
X120857142Y-84157142D02*
X120809523Y-84204761D01*
X120666666Y-84252380D01*
X120571428Y-84252380D01*
X120428571Y-84204761D01*
X120333333Y-84109523D01*
X120285714Y-84014285D01*
X120238095Y-83823809D01*
X120238095Y-83680952D01*
X120285714Y-83490476D01*
X120333333Y-83395238D01*
X120428571Y-83300000D01*
X120571428Y-83252380D01*
X120666666Y-83252380D01*
X120809523Y-83300000D01*
X120857142Y-83347619D01*
X121809523Y-84252380D02*
X121238095Y-84252380D01*
X121523809Y-84252380D02*
X121523809Y-83252380D01*
X121428571Y-83395238D01*
X121333333Y-83490476D01*
X121238095Y-83538095D01*
X122666666Y-83252380D02*
X122476190Y-83252380D01*
X122380952Y-83300000D01*
X122333333Y-83347619D01*
X122238095Y-83490476D01*
X122190476Y-83680952D01*
X122190476Y-84061904D01*
X122238095Y-84157142D01*
X122285714Y-84204761D01*
X122380952Y-84252380D01*
X122571428Y-84252380D01*
X122666666Y-84204761D01*
X122714285Y-84157142D01*
X122761904Y-84061904D01*
X122761904Y-83823809D01*
X122714285Y-83728571D01*
X122666666Y-83680952D01*
X122571428Y-83633333D01*
X122380952Y-83633333D01*
X122285714Y-83680952D01*
X122238095Y-83728571D01*
X122190476Y-83823809D01*
%TO.C,C7*%
X148433333Y-76907142D02*
X148385714Y-76954761D01*
X148242857Y-77002380D01*
X148147619Y-77002380D01*
X148004761Y-76954761D01*
X147909523Y-76859523D01*
X147861904Y-76764285D01*
X147814285Y-76573809D01*
X147814285Y-76430952D01*
X147861904Y-76240476D01*
X147909523Y-76145238D01*
X148004761Y-76050000D01*
X148147619Y-76002380D01*
X148242857Y-76002380D01*
X148385714Y-76050000D01*
X148433333Y-76097619D01*
X148766666Y-76002380D02*
X149433333Y-76002380D01*
X149004761Y-77002380D01*
%TO.C,C1*%
X112833333Y-108107142D02*
X112785714Y-108154761D01*
X112642857Y-108202380D01*
X112547619Y-108202380D01*
X112404761Y-108154761D01*
X112309523Y-108059523D01*
X112261904Y-107964285D01*
X112214285Y-107773809D01*
X112214285Y-107630952D01*
X112261904Y-107440476D01*
X112309523Y-107345238D01*
X112404761Y-107250000D01*
X112547619Y-107202380D01*
X112642857Y-107202380D01*
X112785714Y-107250000D01*
X112833333Y-107297619D01*
X113785714Y-108202380D02*
X113214285Y-108202380D01*
X113500000Y-108202380D02*
X113500000Y-107202380D01*
X113404761Y-107345238D01*
X113309523Y-107440476D01*
X113214285Y-107488095D01*
%TO.C,R19*%
X145757142Y-102252380D02*
X145423809Y-101776190D01*
X145185714Y-102252380D02*
X145185714Y-101252380D01*
X145566666Y-101252380D01*
X145661904Y-101300000D01*
X145709523Y-101347619D01*
X145757142Y-101442857D01*
X145757142Y-101585714D01*
X145709523Y-101680952D01*
X145661904Y-101728571D01*
X145566666Y-101776190D01*
X145185714Y-101776190D01*
X146709523Y-102252380D02*
X146138095Y-102252380D01*
X146423809Y-102252380D02*
X146423809Y-101252380D01*
X146328571Y-101395238D01*
X146233333Y-101490476D01*
X146138095Y-101538095D01*
X147185714Y-102252380D02*
X147376190Y-102252380D01*
X147471428Y-102204761D01*
X147519047Y-102157142D01*
X147614285Y-102014285D01*
X147661904Y-101823809D01*
X147661904Y-101442857D01*
X147614285Y-101347619D01*
X147566666Y-101300000D01*
X147471428Y-101252380D01*
X147280952Y-101252380D01*
X147185714Y-101300000D01*
X147138095Y-101347619D01*
X147090476Y-101442857D01*
X147090476Y-101680952D01*
X147138095Y-101776190D01*
X147185714Y-101823809D01*
X147280952Y-101871428D01*
X147471428Y-101871428D01*
X147566666Y-101823809D01*
X147614285Y-101776190D01*
X147661904Y-101680952D01*
%TO.C,R3*%
X119198333Y-99282380D02*
X118865000Y-98806190D01*
X118626904Y-99282380D02*
X118626904Y-98282380D01*
X119007857Y-98282380D01*
X119103095Y-98330000D01*
X119150714Y-98377619D01*
X119198333Y-98472857D01*
X119198333Y-98615714D01*
X119150714Y-98710952D01*
X119103095Y-98758571D01*
X119007857Y-98806190D01*
X118626904Y-98806190D01*
X119531666Y-98282380D02*
X120150714Y-98282380D01*
X119817380Y-98663333D01*
X119960238Y-98663333D01*
X120055476Y-98710952D01*
X120103095Y-98758571D01*
X120150714Y-98853809D01*
X120150714Y-99091904D01*
X120103095Y-99187142D01*
X120055476Y-99234761D01*
X119960238Y-99282380D01*
X119674523Y-99282380D01*
X119579285Y-99234761D01*
X119531666Y-99187142D01*
%TO.C,C9*%
X147433333Y-113757142D02*
X147385714Y-113804761D01*
X147242857Y-113852380D01*
X147147619Y-113852380D01*
X147004761Y-113804761D01*
X146909523Y-113709523D01*
X146861904Y-113614285D01*
X146814285Y-113423809D01*
X146814285Y-113280952D01*
X146861904Y-113090476D01*
X146909523Y-112995238D01*
X147004761Y-112900000D01*
X147147619Y-112852380D01*
X147242857Y-112852380D01*
X147385714Y-112900000D01*
X147433333Y-112947619D01*
X147909523Y-113852380D02*
X148100000Y-113852380D01*
X148195238Y-113804761D01*
X148242857Y-113757142D01*
X148338095Y-113614285D01*
X148385714Y-113423809D01*
X148385714Y-113042857D01*
X148338095Y-112947619D01*
X148290476Y-112900000D01*
X148195238Y-112852380D01*
X148004761Y-112852380D01*
X147909523Y-112900000D01*
X147861904Y-112947619D01*
X147814285Y-113042857D01*
X147814285Y-113280952D01*
X147861904Y-113376190D01*
X147909523Y-113423809D01*
X148004761Y-113471428D01*
X148195238Y-113471428D01*
X148290476Y-113423809D01*
X148338095Y-113376190D01*
X148385714Y-113280952D01*
%TO.C,C13*%
X121907142Y-78007142D02*
X121859523Y-78054761D01*
X121716666Y-78102380D01*
X121621428Y-78102380D01*
X121478571Y-78054761D01*
X121383333Y-77959523D01*
X121335714Y-77864285D01*
X121288095Y-77673809D01*
X121288095Y-77530952D01*
X121335714Y-77340476D01*
X121383333Y-77245238D01*
X121478571Y-77150000D01*
X121621428Y-77102380D01*
X121716666Y-77102380D01*
X121859523Y-77150000D01*
X121907142Y-77197619D01*
X122859523Y-78102380D02*
X122288095Y-78102380D01*
X122573809Y-78102380D02*
X122573809Y-77102380D01*
X122478571Y-77245238D01*
X122383333Y-77340476D01*
X122288095Y-77388095D01*
X123192857Y-77102380D02*
X123811904Y-77102380D01*
X123478571Y-77483333D01*
X123621428Y-77483333D01*
X123716666Y-77530952D01*
X123764285Y-77578571D01*
X123811904Y-77673809D01*
X123811904Y-77911904D01*
X123764285Y-78007142D01*
X123716666Y-78054761D01*
X123621428Y-78102380D01*
X123335714Y-78102380D01*
X123240476Y-78054761D01*
X123192857Y-78007142D01*
%TO.C,R24*%
X130857142Y-111352380D02*
X130523809Y-110876190D01*
X130285714Y-111352380D02*
X130285714Y-110352380D01*
X130666666Y-110352380D01*
X130761904Y-110400000D01*
X130809523Y-110447619D01*
X130857142Y-110542857D01*
X130857142Y-110685714D01*
X130809523Y-110780952D01*
X130761904Y-110828571D01*
X130666666Y-110876190D01*
X130285714Y-110876190D01*
X131238095Y-110447619D02*
X131285714Y-110400000D01*
X131380952Y-110352380D01*
X131619047Y-110352380D01*
X131714285Y-110400000D01*
X131761904Y-110447619D01*
X131809523Y-110542857D01*
X131809523Y-110638095D01*
X131761904Y-110780952D01*
X131190476Y-111352380D01*
X131809523Y-111352380D01*
X132666666Y-110685714D02*
X132666666Y-111352380D01*
X132428571Y-110304761D02*
X132190476Y-111019047D01*
X132809523Y-111019047D01*
%TO.C,C19*%
X102657142Y-85857142D02*
X102609523Y-85904761D01*
X102466666Y-85952380D01*
X102371428Y-85952380D01*
X102228571Y-85904761D01*
X102133333Y-85809523D01*
X102085714Y-85714285D01*
X102038095Y-85523809D01*
X102038095Y-85380952D01*
X102085714Y-85190476D01*
X102133333Y-85095238D01*
X102228571Y-85000000D01*
X102371428Y-84952380D01*
X102466666Y-84952380D01*
X102609523Y-85000000D01*
X102657142Y-85047619D01*
X103609523Y-85952380D02*
X103038095Y-85952380D01*
X103323809Y-85952380D02*
X103323809Y-84952380D01*
X103228571Y-85095238D01*
X103133333Y-85190476D01*
X103038095Y-85238095D01*
X104085714Y-85952380D02*
X104276190Y-85952380D01*
X104371428Y-85904761D01*
X104419047Y-85857142D01*
X104514285Y-85714285D01*
X104561904Y-85523809D01*
X104561904Y-85142857D01*
X104514285Y-85047619D01*
X104466666Y-85000000D01*
X104371428Y-84952380D01*
X104180952Y-84952380D01*
X104085714Y-85000000D01*
X104038095Y-85047619D01*
X103990476Y-85142857D01*
X103990476Y-85380952D01*
X104038095Y-85476190D01*
X104085714Y-85523809D01*
X104180952Y-85571428D01*
X104371428Y-85571428D01*
X104466666Y-85523809D01*
X104514285Y-85476190D01*
X104561904Y-85380952D01*
%TO.C,R9*%
X145133333Y-63252380D02*
X144800000Y-62776190D01*
X144561904Y-63252380D02*
X144561904Y-62252380D01*
X144942857Y-62252380D01*
X145038095Y-62300000D01*
X145085714Y-62347619D01*
X145133333Y-62442857D01*
X145133333Y-62585714D01*
X145085714Y-62680952D01*
X145038095Y-62728571D01*
X144942857Y-62776190D01*
X144561904Y-62776190D01*
X145609523Y-63252380D02*
X145800000Y-63252380D01*
X145895238Y-63204761D01*
X145942857Y-63157142D01*
X146038095Y-63014285D01*
X146085714Y-62823809D01*
X146085714Y-62442857D01*
X146038095Y-62347619D01*
X145990476Y-62300000D01*
X145895238Y-62252380D01*
X145704761Y-62252380D01*
X145609523Y-62300000D01*
X145561904Y-62347619D01*
X145514285Y-62442857D01*
X145514285Y-62680952D01*
X145561904Y-62776190D01*
X145609523Y-62823809D01*
X145704761Y-62871428D01*
X145895238Y-62871428D01*
X145990476Y-62823809D01*
X146038095Y-62776190D01*
X146085714Y-62680952D01*
%TO.C,C15*%
X127957142Y-80742857D02*
X128004761Y-80790476D01*
X128052380Y-80933333D01*
X128052380Y-81028571D01*
X128004761Y-81171428D01*
X127909523Y-81266666D01*
X127814285Y-81314285D01*
X127623809Y-81361904D01*
X127480952Y-81361904D01*
X127290476Y-81314285D01*
X127195238Y-81266666D01*
X127100000Y-81171428D01*
X127052380Y-81028571D01*
X127052380Y-80933333D01*
X127100000Y-80790476D01*
X127147619Y-80742857D01*
X128052380Y-79790476D02*
X128052380Y-80361904D01*
X128052380Y-80076190D02*
X127052380Y-80076190D01*
X127195238Y-80171428D01*
X127290476Y-80266666D01*
X127338095Y-80361904D01*
X127052380Y-78885714D02*
X127052380Y-79361904D01*
X127528571Y-79409523D01*
X127480952Y-79361904D01*
X127433333Y-79266666D01*
X127433333Y-79028571D01*
X127480952Y-78933333D01*
X127528571Y-78885714D01*
X127623809Y-78838095D01*
X127861904Y-78838095D01*
X127957142Y-78885714D01*
X128004761Y-78933333D01*
X128052380Y-79028571D01*
X128052380Y-79266666D01*
X128004761Y-79361904D01*
X127957142Y-79409523D01*
%TO.C,C14*%
X117057142Y-80357142D02*
X117009523Y-80404761D01*
X116866666Y-80452380D01*
X116771428Y-80452380D01*
X116628571Y-80404761D01*
X116533333Y-80309523D01*
X116485714Y-80214285D01*
X116438095Y-80023809D01*
X116438095Y-79880952D01*
X116485714Y-79690476D01*
X116533333Y-79595238D01*
X116628571Y-79500000D01*
X116771428Y-79452380D01*
X116866666Y-79452380D01*
X117009523Y-79500000D01*
X117057142Y-79547619D01*
X118009523Y-80452380D02*
X117438095Y-80452380D01*
X117723809Y-80452380D02*
X117723809Y-79452380D01*
X117628571Y-79595238D01*
X117533333Y-79690476D01*
X117438095Y-79738095D01*
X118866666Y-79785714D02*
X118866666Y-80452380D01*
X118628571Y-79404761D02*
X118390476Y-80119047D01*
X119009523Y-80119047D01*
%TO.C,C21*%
X102557142Y-87257142D02*
X102509523Y-87304761D01*
X102366666Y-87352380D01*
X102271428Y-87352380D01*
X102128571Y-87304761D01*
X102033333Y-87209523D01*
X101985714Y-87114285D01*
X101938095Y-86923809D01*
X101938095Y-86780952D01*
X101985714Y-86590476D01*
X102033333Y-86495238D01*
X102128571Y-86400000D01*
X102271428Y-86352380D01*
X102366666Y-86352380D01*
X102509523Y-86400000D01*
X102557142Y-86447619D01*
X102938095Y-86447619D02*
X102985714Y-86400000D01*
X103080952Y-86352380D01*
X103319047Y-86352380D01*
X103414285Y-86400000D01*
X103461904Y-86447619D01*
X103509523Y-86542857D01*
X103509523Y-86638095D01*
X103461904Y-86780952D01*
X102890476Y-87352380D01*
X103509523Y-87352380D01*
X104461904Y-87352380D02*
X103890476Y-87352380D01*
X104176190Y-87352380D02*
X104176190Y-86352380D01*
X104080952Y-86495238D01*
X103985714Y-86590476D01*
X103890476Y-86638095D01*
%TO.C,J1*%
X72577380Y-106973333D02*
X73291666Y-106973333D01*
X73434523Y-107020952D01*
X73529761Y-107116190D01*
X73577380Y-107259047D01*
X73577380Y-107354285D01*
X73577380Y-105973333D02*
X73577380Y-106544761D01*
X73577380Y-106259047D02*
X72577380Y-106259047D01*
X72720238Y-106354285D01*
X72815476Y-106449523D01*
X72863095Y-106544761D01*
%TO.C,C2*%
X95333333Y-106857142D02*
X95285714Y-106904761D01*
X95142857Y-106952380D01*
X95047619Y-106952380D01*
X94904761Y-106904761D01*
X94809523Y-106809523D01*
X94761904Y-106714285D01*
X94714285Y-106523809D01*
X94714285Y-106380952D01*
X94761904Y-106190476D01*
X94809523Y-106095238D01*
X94904761Y-106000000D01*
X95047619Y-105952380D01*
X95142857Y-105952380D01*
X95285714Y-106000000D01*
X95333333Y-106047619D01*
X95714285Y-106047619D02*
X95761904Y-106000000D01*
X95857142Y-105952380D01*
X96095238Y-105952380D01*
X96190476Y-106000000D01*
X96238095Y-106047619D01*
X96285714Y-106142857D01*
X96285714Y-106238095D01*
X96238095Y-106380952D01*
X95666666Y-106952380D01*
X96285714Y-106952380D01*
%TO.C,U3*%
X139038095Y-75152380D02*
X139038095Y-75961904D01*
X139085714Y-76057142D01*
X139133333Y-76104761D01*
X139228571Y-76152380D01*
X139419047Y-76152380D01*
X139514285Y-76104761D01*
X139561904Y-76057142D01*
X139609523Y-75961904D01*
X139609523Y-75152380D01*
X139990476Y-75152380D02*
X140609523Y-75152380D01*
X140276190Y-75533333D01*
X140419047Y-75533333D01*
X140514285Y-75580952D01*
X140561904Y-75628571D01*
X140609523Y-75723809D01*
X140609523Y-75961904D01*
X140561904Y-76057142D01*
X140514285Y-76104761D01*
X140419047Y-76152380D01*
X140133333Y-76152380D01*
X140038095Y-76104761D01*
X139990476Y-76057142D01*
%TO.C,R2*%
X109033333Y-116152380D02*
X108700000Y-115676190D01*
X108461904Y-116152380D02*
X108461904Y-115152380D01*
X108842857Y-115152380D01*
X108938095Y-115200000D01*
X108985714Y-115247619D01*
X109033333Y-115342857D01*
X109033333Y-115485714D01*
X108985714Y-115580952D01*
X108938095Y-115628571D01*
X108842857Y-115676190D01*
X108461904Y-115676190D01*
X109414285Y-115247619D02*
X109461904Y-115200000D01*
X109557142Y-115152380D01*
X109795238Y-115152380D01*
X109890476Y-115200000D01*
X109938095Y-115247619D01*
X109985714Y-115342857D01*
X109985714Y-115438095D01*
X109938095Y-115580952D01*
X109366666Y-116152380D01*
X109985714Y-116152380D01*
%TO.C,R4*%
X117333333Y-116252380D02*
X117000000Y-115776190D01*
X116761904Y-116252380D02*
X116761904Y-115252380D01*
X117142857Y-115252380D01*
X117238095Y-115300000D01*
X117285714Y-115347619D01*
X117333333Y-115442857D01*
X117333333Y-115585714D01*
X117285714Y-115680952D01*
X117238095Y-115728571D01*
X117142857Y-115776190D01*
X116761904Y-115776190D01*
X118190476Y-115585714D02*
X118190476Y-116252380D01*
X117952380Y-115204761D02*
X117714285Y-115919047D01*
X118333333Y-115919047D01*
%TO.C,R17*%
X146557142Y-87452380D02*
X146223809Y-86976190D01*
X145985714Y-87452380D02*
X145985714Y-86452380D01*
X146366666Y-86452380D01*
X146461904Y-86500000D01*
X146509523Y-86547619D01*
X146557142Y-86642857D01*
X146557142Y-86785714D01*
X146509523Y-86880952D01*
X146461904Y-86928571D01*
X146366666Y-86976190D01*
X145985714Y-86976190D01*
X147509523Y-87452380D02*
X146938095Y-87452380D01*
X147223809Y-87452380D02*
X147223809Y-86452380D01*
X147128571Y-86595238D01*
X147033333Y-86690476D01*
X146938095Y-86738095D01*
X147842857Y-86452380D02*
X148509523Y-86452380D01*
X148080952Y-87452380D01*
%TO.C,C17*%
X121257142Y-93557142D02*
X121209523Y-93604761D01*
X121066666Y-93652380D01*
X120971428Y-93652380D01*
X120828571Y-93604761D01*
X120733333Y-93509523D01*
X120685714Y-93414285D01*
X120638095Y-93223809D01*
X120638095Y-93080952D01*
X120685714Y-92890476D01*
X120733333Y-92795238D01*
X120828571Y-92700000D01*
X120971428Y-92652380D01*
X121066666Y-92652380D01*
X121209523Y-92700000D01*
X121257142Y-92747619D01*
X122209523Y-93652380D02*
X121638095Y-93652380D01*
X121923809Y-93652380D02*
X121923809Y-92652380D01*
X121828571Y-92795238D01*
X121733333Y-92890476D01*
X121638095Y-92938095D01*
X122542857Y-92652380D02*
X123209523Y-92652380D01*
X122780952Y-93652380D01*
%TO.C,C20*%
X99757142Y-87257142D02*
X99709523Y-87304761D01*
X99566666Y-87352380D01*
X99471428Y-87352380D01*
X99328571Y-87304761D01*
X99233333Y-87209523D01*
X99185714Y-87114285D01*
X99138095Y-86923809D01*
X99138095Y-86780952D01*
X99185714Y-86590476D01*
X99233333Y-86495238D01*
X99328571Y-86400000D01*
X99471428Y-86352380D01*
X99566666Y-86352380D01*
X99709523Y-86400000D01*
X99757142Y-86447619D01*
X100138095Y-86447619D02*
X100185714Y-86400000D01*
X100280952Y-86352380D01*
X100519047Y-86352380D01*
X100614285Y-86400000D01*
X100661904Y-86447619D01*
X100709523Y-86542857D01*
X100709523Y-86638095D01*
X100661904Y-86780952D01*
X100090476Y-87352380D01*
X100709523Y-87352380D01*
X101328571Y-86352380D02*
X101423809Y-86352380D01*
X101519047Y-86400000D01*
X101566666Y-86447619D01*
X101614285Y-86542857D01*
X101661904Y-86733333D01*
X101661904Y-86971428D01*
X101614285Y-87161904D01*
X101566666Y-87257142D01*
X101519047Y-87304761D01*
X101423809Y-87352380D01*
X101328571Y-87352380D01*
X101233333Y-87304761D01*
X101185714Y-87257142D01*
X101138095Y-87161904D01*
X101090476Y-86971428D01*
X101090476Y-86733333D01*
X101138095Y-86542857D01*
X101185714Y-86447619D01*
X101233333Y-86400000D01*
X101328571Y-86352380D01*
%TO.C,C6*%
X133648333Y-118307142D02*
X133600714Y-118354761D01*
X133457857Y-118402380D01*
X133362619Y-118402380D01*
X133219761Y-118354761D01*
X133124523Y-118259523D01*
X133076904Y-118164285D01*
X133029285Y-117973809D01*
X133029285Y-117830952D01*
X133076904Y-117640476D01*
X133124523Y-117545238D01*
X133219761Y-117450000D01*
X133362619Y-117402380D01*
X133457857Y-117402380D01*
X133600714Y-117450000D01*
X133648333Y-117497619D01*
X134505476Y-117402380D02*
X134315000Y-117402380D01*
X134219761Y-117450000D01*
X134172142Y-117497619D01*
X134076904Y-117640476D01*
X134029285Y-117830952D01*
X134029285Y-118211904D01*
X134076904Y-118307142D01*
X134124523Y-118354761D01*
X134219761Y-118402380D01*
X134410238Y-118402380D01*
X134505476Y-118354761D01*
X134553095Y-118307142D01*
X134600714Y-118211904D01*
X134600714Y-117973809D01*
X134553095Y-117878571D01*
X134505476Y-117830952D01*
X134410238Y-117783333D01*
X134219761Y-117783333D01*
X134124523Y-117830952D01*
X134076904Y-117878571D01*
X134029285Y-117973809D01*
%TO.C,R10*%
X133482142Y-63082380D02*
X133148809Y-62606190D01*
X132910714Y-63082380D02*
X132910714Y-62082380D01*
X133291666Y-62082380D01*
X133386904Y-62130000D01*
X133434523Y-62177619D01*
X133482142Y-62272857D01*
X133482142Y-62415714D01*
X133434523Y-62510952D01*
X133386904Y-62558571D01*
X133291666Y-62606190D01*
X132910714Y-62606190D01*
X134434523Y-63082380D02*
X133863095Y-63082380D01*
X134148809Y-63082380D02*
X134148809Y-62082380D01*
X134053571Y-62225238D01*
X133958333Y-62320476D01*
X133863095Y-62368095D01*
X135053571Y-62082380D02*
X135148809Y-62082380D01*
X135244047Y-62130000D01*
X135291666Y-62177619D01*
X135339285Y-62272857D01*
X135386904Y-62463333D01*
X135386904Y-62701428D01*
X135339285Y-62891904D01*
X135291666Y-62987142D01*
X135244047Y-63034761D01*
X135148809Y-63082380D01*
X135053571Y-63082380D01*
X134958333Y-63034761D01*
X134910714Y-62987142D01*
X134863095Y-62891904D01*
X134815476Y-62701428D01*
X134815476Y-62463333D01*
X134863095Y-62272857D01*
X134910714Y-62177619D01*
X134958333Y-62130000D01*
X135053571Y-62082380D01*
%TO.C,R6*%
X92533333Y-96952380D02*
X92200000Y-96476190D01*
X91961904Y-96952380D02*
X91961904Y-95952380D01*
X92342857Y-95952380D01*
X92438095Y-96000000D01*
X92485714Y-96047619D01*
X92533333Y-96142857D01*
X92533333Y-96285714D01*
X92485714Y-96380952D01*
X92438095Y-96428571D01*
X92342857Y-96476190D01*
X91961904Y-96476190D01*
X93390476Y-95952380D02*
X93200000Y-95952380D01*
X93104761Y-96000000D01*
X93057142Y-96047619D01*
X92961904Y-96190476D01*
X92914285Y-96380952D01*
X92914285Y-96761904D01*
X92961904Y-96857142D01*
X93009523Y-96904761D01*
X93104761Y-96952380D01*
X93295238Y-96952380D01*
X93390476Y-96904761D01*
X93438095Y-96857142D01*
X93485714Y-96761904D01*
X93485714Y-96523809D01*
X93438095Y-96428571D01*
X93390476Y-96380952D01*
X93295238Y-96333333D01*
X93104761Y-96333333D01*
X93009523Y-96380952D01*
X92961904Y-96428571D01*
X92914285Y-96523809D01*
%TO.C,C11*%
X143457142Y-91057142D02*
X143409523Y-91104761D01*
X143266666Y-91152380D01*
X143171428Y-91152380D01*
X143028571Y-91104761D01*
X142933333Y-91009523D01*
X142885714Y-90914285D01*
X142838095Y-90723809D01*
X142838095Y-90580952D01*
X142885714Y-90390476D01*
X142933333Y-90295238D01*
X143028571Y-90200000D01*
X143171428Y-90152380D01*
X143266666Y-90152380D01*
X143409523Y-90200000D01*
X143457142Y-90247619D01*
X144409523Y-91152380D02*
X143838095Y-91152380D01*
X144123809Y-91152380D02*
X144123809Y-90152380D01*
X144028571Y-90295238D01*
X143933333Y-90390476D01*
X143838095Y-90438095D01*
X145361904Y-91152380D02*
X144790476Y-91152380D01*
X145076190Y-91152380D02*
X145076190Y-90152380D01*
X144980952Y-90295238D01*
X144885714Y-90390476D01*
X144790476Y-90438095D01*
%TO.C,C12*%
X143457142Y-98457142D02*
X143409523Y-98504761D01*
X143266666Y-98552380D01*
X143171428Y-98552380D01*
X143028571Y-98504761D01*
X142933333Y-98409523D01*
X142885714Y-98314285D01*
X142838095Y-98123809D01*
X142838095Y-97980952D01*
X142885714Y-97790476D01*
X142933333Y-97695238D01*
X143028571Y-97600000D01*
X143171428Y-97552380D01*
X143266666Y-97552380D01*
X143409523Y-97600000D01*
X143457142Y-97647619D01*
X144409523Y-98552380D02*
X143838095Y-98552380D01*
X144123809Y-98552380D02*
X144123809Y-97552380D01*
X144028571Y-97695238D01*
X143933333Y-97790476D01*
X143838095Y-97838095D01*
X144790476Y-97647619D02*
X144838095Y-97600000D01*
X144933333Y-97552380D01*
X145171428Y-97552380D01*
X145266666Y-97600000D01*
X145314285Y-97647619D01*
X145361904Y-97742857D01*
X145361904Y-97838095D01*
X145314285Y-97980952D01*
X144742857Y-98552380D01*
X145361904Y-98552380D01*
%TO.C,R12*%
X133257142Y-126652380D02*
X132923809Y-126176190D01*
X132685714Y-126652380D02*
X132685714Y-125652380D01*
X133066666Y-125652380D01*
X133161904Y-125700000D01*
X133209523Y-125747619D01*
X133257142Y-125842857D01*
X133257142Y-125985714D01*
X133209523Y-126080952D01*
X133161904Y-126128571D01*
X133066666Y-126176190D01*
X132685714Y-126176190D01*
X134209523Y-126652380D02*
X133638095Y-126652380D01*
X133923809Y-126652380D02*
X133923809Y-125652380D01*
X133828571Y-125795238D01*
X133733333Y-125890476D01*
X133638095Y-125938095D01*
X134590476Y-125747619D02*
X134638095Y-125700000D01*
X134733333Y-125652380D01*
X134971428Y-125652380D01*
X135066666Y-125700000D01*
X135114285Y-125747619D01*
X135161904Y-125842857D01*
X135161904Y-125938095D01*
X135114285Y-126080952D01*
X134542857Y-126652380D01*
X135161904Y-126652380D01*
%TO.C,R15*%
X140757142Y-127752380D02*
X140423809Y-127276190D01*
X140185714Y-127752380D02*
X140185714Y-126752380D01*
X140566666Y-126752380D01*
X140661904Y-126800000D01*
X140709523Y-126847619D01*
X140757142Y-126942857D01*
X140757142Y-127085714D01*
X140709523Y-127180952D01*
X140661904Y-127228571D01*
X140566666Y-127276190D01*
X140185714Y-127276190D01*
X141709523Y-127752380D02*
X141138095Y-127752380D01*
X141423809Y-127752380D02*
X141423809Y-126752380D01*
X141328571Y-126895238D01*
X141233333Y-126990476D01*
X141138095Y-127038095D01*
X142614285Y-126752380D02*
X142138095Y-126752380D01*
X142090476Y-127228571D01*
X142138095Y-127180952D01*
X142233333Y-127133333D01*
X142471428Y-127133333D01*
X142566666Y-127180952D01*
X142614285Y-127228571D01*
X142661904Y-127323809D01*
X142661904Y-127561904D01*
X142614285Y-127657142D01*
X142566666Y-127704761D01*
X142471428Y-127752380D01*
X142233333Y-127752380D01*
X142138095Y-127704761D01*
X142090476Y-127657142D01*
%TO.C,C4*%
X129089583Y-70857142D02*
X129041964Y-70904761D01*
X128899107Y-70952380D01*
X128803869Y-70952380D01*
X128661011Y-70904761D01*
X128565773Y-70809523D01*
X128518154Y-70714285D01*
X128470535Y-70523809D01*
X128470535Y-70380952D01*
X128518154Y-70190476D01*
X128565773Y-70095238D01*
X128661011Y-70000000D01*
X128803869Y-69952380D01*
X128899107Y-69952380D01*
X129041964Y-70000000D01*
X129089583Y-70047619D01*
X129946726Y-70285714D02*
X129946726Y-70952380D01*
X129708630Y-69904761D02*
X129470535Y-70619047D01*
X130089583Y-70619047D01*
%TO.C,R25*%
X105957142Y-79652380D02*
X105623809Y-79176190D01*
X105385714Y-79652380D02*
X105385714Y-78652380D01*
X105766666Y-78652380D01*
X105861904Y-78700000D01*
X105909523Y-78747619D01*
X105957142Y-78842857D01*
X105957142Y-78985714D01*
X105909523Y-79080952D01*
X105861904Y-79128571D01*
X105766666Y-79176190D01*
X105385714Y-79176190D01*
X106338095Y-78747619D02*
X106385714Y-78700000D01*
X106480952Y-78652380D01*
X106719047Y-78652380D01*
X106814285Y-78700000D01*
X106861904Y-78747619D01*
X106909523Y-78842857D01*
X106909523Y-78938095D01*
X106861904Y-79080952D01*
X106290476Y-79652380D01*
X106909523Y-79652380D01*
X107814285Y-78652380D02*
X107338095Y-78652380D01*
X107290476Y-79128571D01*
X107338095Y-79080952D01*
X107433333Y-79033333D01*
X107671428Y-79033333D01*
X107766666Y-79080952D01*
X107814285Y-79128571D01*
X107861904Y-79223809D01*
X107861904Y-79461904D01*
X107814285Y-79557142D01*
X107766666Y-79604761D01*
X107671428Y-79652380D01*
X107433333Y-79652380D01*
X107338095Y-79604761D01*
X107290476Y-79557142D01*
%TO.C,R18*%
X131557142Y-87252380D02*
X131223809Y-86776190D01*
X130985714Y-87252380D02*
X130985714Y-86252380D01*
X131366666Y-86252380D01*
X131461904Y-86300000D01*
X131509523Y-86347619D01*
X131557142Y-86442857D01*
X131557142Y-86585714D01*
X131509523Y-86680952D01*
X131461904Y-86728571D01*
X131366666Y-86776190D01*
X130985714Y-86776190D01*
X132509523Y-87252380D02*
X131938095Y-87252380D01*
X132223809Y-87252380D02*
X132223809Y-86252380D01*
X132128571Y-86395238D01*
X132033333Y-86490476D01*
X131938095Y-86538095D01*
X133080952Y-86680952D02*
X132985714Y-86633333D01*
X132938095Y-86585714D01*
X132890476Y-86490476D01*
X132890476Y-86442857D01*
X132938095Y-86347619D01*
X132985714Y-86300000D01*
X133080952Y-86252380D01*
X133271428Y-86252380D01*
X133366666Y-86300000D01*
X133414285Y-86347619D01*
X133461904Y-86442857D01*
X133461904Y-86490476D01*
X133414285Y-86585714D01*
X133366666Y-86633333D01*
X133271428Y-86680952D01*
X133080952Y-86680952D01*
X132985714Y-86728571D01*
X132938095Y-86776190D01*
X132890476Y-86871428D01*
X132890476Y-87061904D01*
X132938095Y-87157142D01*
X132985714Y-87204761D01*
X133080952Y-87252380D01*
X133271428Y-87252380D01*
X133366666Y-87204761D01*
X133414285Y-87157142D01*
X133461904Y-87061904D01*
X133461904Y-86871428D01*
X133414285Y-86776190D01*
X133366666Y-86728571D01*
X133271428Y-86680952D01*
%TO.C,C3*%
X150289583Y-70915892D02*
X150241964Y-70963511D01*
X150099107Y-71011130D01*
X150003869Y-71011130D01*
X149861011Y-70963511D01*
X149765773Y-70868273D01*
X149718154Y-70773035D01*
X149670535Y-70582559D01*
X149670535Y-70439702D01*
X149718154Y-70249226D01*
X149765773Y-70153988D01*
X149861011Y-70058750D01*
X150003869Y-70011130D01*
X150099107Y-70011130D01*
X150241964Y-70058750D01*
X150289583Y-70106369D01*
X150622916Y-70011130D02*
X151241964Y-70011130D01*
X150908630Y-70392083D01*
X151051488Y-70392083D01*
X151146726Y-70439702D01*
X151194345Y-70487321D01*
X151241964Y-70582559D01*
X151241964Y-70820654D01*
X151194345Y-70915892D01*
X151146726Y-70963511D01*
X151051488Y-71011130D01*
X150765773Y-71011130D01*
X150670535Y-70963511D01*
X150622916Y-70915892D01*
%TO.C,R23*%
X147457142Y-111352380D02*
X147123809Y-110876190D01*
X146885714Y-111352380D02*
X146885714Y-110352380D01*
X147266666Y-110352380D01*
X147361904Y-110400000D01*
X147409523Y-110447619D01*
X147457142Y-110542857D01*
X147457142Y-110685714D01*
X147409523Y-110780952D01*
X147361904Y-110828571D01*
X147266666Y-110876190D01*
X146885714Y-110876190D01*
X147838095Y-110447619D02*
X147885714Y-110400000D01*
X147980952Y-110352380D01*
X148219047Y-110352380D01*
X148314285Y-110400000D01*
X148361904Y-110447619D01*
X148409523Y-110542857D01*
X148409523Y-110638095D01*
X148361904Y-110780952D01*
X147790476Y-111352380D01*
X148409523Y-111352380D01*
X148742857Y-110352380D02*
X149361904Y-110352380D01*
X149028571Y-110733333D01*
X149171428Y-110733333D01*
X149266666Y-110780952D01*
X149314285Y-110828571D01*
X149361904Y-110923809D01*
X149361904Y-111161904D01*
X149314285Y-111257142D01*
X149266666Y-111304761D01*
X149171428Y-111352380D01*
X148885714Y-111352380D01*
X148790476Y-111304761D01*
X148742857Y-111257142D01*
%TO.C,R21*%
X147757142Y-81952380D02*
X147423809Y-81476190D01*
X147185714Y-81952380D02*
X147185714Y-80952380D01*
X147566666Y-80952380D01*
X147661904Y-81000000D01*
X147709523Y-81047619D01*
X147757142Y-81142857D01*
X147757142Y-81285714D01*
X147709523Y-81380952D01*
X147661904Y-81428571D01*
X147566666Y-81476190D01*
X147185714Y-81476190D01*
X148138095Y-81047619D02*
X148185714Y-81000000D01*
X148280952Y-80952380D01*
X148519047Y-80952380D01*
X148614285Y-81000000D01*
X148661904Y-81047619D01*
X148709523Y-81142857D01*
X148709523Y-81238095D01*
X148661904Y-81380952D01*
X148090476Y-81952380D01*
X148709523Y-81952380D01*
X149661904Y-81952380D02*
X149090476Y-81952380D01*
X149376190Y-81952380D02*
X149376190Y-80952380D01*
X149280952Y-81095238D01*
X149185714Y-81190476D01*
X149090476Y-81238095D01*
%TO.C,R11*%
X145057142Y-126614880D02*
X144723809Y-126138690D01*
X144485714Y-126614880D02*
X144485714Y-125614880D01*
X144866666Y-125614880D01*
X144961904Y-125662500D01*
X145009523Y-125710119D01*
X145057142Y-125805357D01*
X145057142Y-125948214D01*
X145009523Y-126043452D01*
X144961904Y-126091071D01*
X144866666Y-126138690D01*
X144485714Y-126138690D01*
X146009523Y-126614880D02*
X145438095Y-126614880D01*
X145723809Y-126614880D02*
X145723809Y-125614880D01*
X145628571Y-125757738D01*
X145533333Y-125852976D01*
X145438095Y-125900595D01*
X146961904Y-126614880D02*
X146390476Y-126614880D01*
X146676190Y-126614880D02*
X146676190Y-125614880D01*
X146580952Y-125757738D01*
X146485714Y-125852976D01*
X146390476Y-125900595D01*
%TO.C,R5*%
X95533333Y-99052380D02*
X95200000Y-98576190D01*
X94961904Y-99052380D02*
X94961904Y-98052380D01*
X95342857Y-98052380D01*
X95438095Y-98100000D01*
X95485714Y-98147619D01*
X95533333Y-98242857D01*
X95533333Y-98385714D01*
X95485714Y-98480952D01*
X95438095Y-98528571D01*
X95342857Y-98576190D01*
X94961904Y-98576190D01*
X96438095Y-98052380D02*
X95961904Y-98052380D01*
X95914285Y-98528571D01*
X95961904Y-98480952D01*
X96057142Y-98433333D01*
X96295238Y-98433333D01*
X96390476Y-98480952D01*
X96438095Y-98528571D01*
X96485714Y-98623809D01*
X96485714Y-98861904D01*
X96438095Y-98957142D01*
X96390476Y-99004761D01*
X96295238Y-99052380D01*
X96057142Y-99052380D01*
X95961904Y-99004761D01*
X95914285Y-98957142D01*
%TO.C,R7*%
X95833333Y-87152380D02*
X95500000Y-86676190D01*
X95261904Y-87152380D02*
X95261904Y-86152380D01*
X95642857Y-86152380D01*
X95738095Y-86200000D01*
X95785714Y-86247619D01*
X95833333Y-86342857D01*
X95833333Y-86485714D01*
X95785714Y-86580952D01*
X95738095Y-86628571D01*
X95642857Y-86676190D01*
X95261904Y-86676190D01*
X96166666Y-86152380D02*
X96833333Y-86152380D01*
X96404761Y-87152380D01*
D11*
%TO.C,U2*%
X116770000Y-108690000D02*
X116770000Y-110340000D01*
X127050000Y-110340000D02*
X127050000Y-105040000D01*
X116770000Y-105040000D02*
X116770000Y-106690000D01*
X116770000Y-110340000D02*
X127050000Y-110340000D01*
X127050000Y-105040000D02*
X116770000Y-105040000D01*
X116770000Y-108690000D02*
G75*
G03*
X116770000Y-106690000I0J1000000D01*
G01*
%TO.C,R16*%
X138000000Y-123480000D02*
X138000000Y-123550000D01*
X139370000Y-122110000D02*
G75*
G03*
X139370000Y-122110000I-1370000J0D01*
G01*
%TO.C,U1*%
X99670000Y-110340000D02*
X109950000Y-110340000D01*
X109950000Y-105040000D02*
X99670000Y-105040000D01*
X99670000Y-108690000D02*
X99670000Y-110340000D01*
X99670000Y-105040000D02*
X99670000Y-106690000D01*
X109950000Y-110340000D02*
X109950000Y-105040000D01*
X99670000Y-108690000D02*
G75*
G03*
X99670000Y-106690000I0J1000000D01*
G01*
%TO.C,R22*%
X132127064Y-80510000D02*
X130672936Y-80510000D01*
X132127064Y-78690000D02*
X130672936Y-78690000D01*
%TO.C,C5*%
X148887262Y-119565000D02*
X148337262Y-119565000D01*
X148612262Y-119840000D02*
X148612262Y-119290000D01*
X143147923Y-119010000D02*
G75*
G03*
X148482077Y-119010000I2667077J1060000D01*
G01*
X148482077Y-116890000D02*
G75*
G03*
X143147923Y-116890000I-2667077J-1060000D01*
G01*
%TO.C,U4*%
X141525000Y-118075000D02*
X141300000Y-118075000D01*
X138275000Y-115800000D02*
X138275000Y-114825000D01*
X141525000Y-118075000D02*
X141525000Y-117100000D01*
X141525000Y-115800000D02*
X141525000Y-114825000D01*
X141300000Y-114825000D02*
X141525000Y-114825000D01*
X138275000Y-118075000D02*
X138275000Y-117100000D01*
X138500000Y-114825000D02*
X138275000Y-114825000D01*
%TO.C,C18*%
X118390000Y-89115835D02*
X118390000Y-88884165D01*
X119110000Y-89115835D02*
X119110000Y-88884165D01*
%TO.C,C8*%
X136461252Y-78110000D02*
X134138748Y-78110000D01*
X136461252Y-74690000D02*
X134138748Y-74690000D01*
%TO.C,R8*%
X92900000Y-83075000D02*
X92900000Y-83005000D01*
X94270000Y-84445000D02*
G75*
G03*
X94270000Y-84445000I-1370000J0D01*
G01*
%TO.C,C10*%
X137311252Y-113910000D02*
X134988748Y-113910000D01*
X137311252Y-110490000D02*
X134988748Y-110490000D01*
%TO.C,R14*%
X138000000Y-65425000D02*
X138000000Y-65495000D01*
X139370000Y-64055000D02*
G75*
G03*
X139370000Y-64055000I-1370000J0D01*
G01*
%TO.C,R20*%
X137100000Y-105245000D02*
X137100000Y-104035000D01*
X139470000Y-107615000D02*
G75*
G03*
X139470000Y-107615000I-2370000J0D01*
G01*
%TO.C,U5*%
X106250000Y-80750000D02*
X105250000Y-81500000D01*
X116750000Y-97235000D02*
X105250000Y-97235000D01*
X105250000Y-97235000D02*
X105250000Y-81500000D01*
X106250000Y-80750000D02*
X116750000Y-80765000D01*
X116750000Y-80765000D02*
X116750000Y-97235000D01*
%TO.C,J2*%
X81925000Y-95600000D02*
X82425000Y-96100000D01*
X81425000Y-96100000D02*
X81925000Y-95600000D01*
X74515000Y-95405000D02*
X82125000Y-95405000D01*
X74515000Y-78675000D02*
X82125000Y-78675000D01*
X90485000Y-78675000D02*
X84925000Y-78675000D01*
X90485000Y-95405000D02*
X84925000Y-95405000D01*
X82425000Y-96100000D02*
X81425000Y-96100000D01*
X90485000Y-95405000D02*
X90485000Y-78675000D01*
X74515000Y-95405000D02*
X74515000Y-78675000D01*
%TO.C,R1*%
X102325000Y-101200000D02*
X102395000Y-101200000D01*
X102325000Y-101200000D02*
G75*
G03*
X102325000Y-101200000I-1370000J0D01*
G01*
%TO.C,R13*%
X141456250Y-64775000D02*
X141456250Y-64705000D01*
X142826250Y-66145000D02*
G75*
G03*
X142826250Y-66145000I-1370000J0D01*
G01*
%TO.C,C16*%
X119510000Y-83734165D02*
X119510000Y-83965835D01*
X118790000Y-83734165D02*
X118790000Y-83965835D01*
%TO.C,C7*%
X143238748Y-74690000D02*
X145561252Y-74690000D01*
X143238748Y-78110000D02*
X145561252Y-78110000D01*
%TO.C,J4*%
X107814000Y-116930000D02*
X107814000Y-122130000D01*
X121844000Y-116930000D02*
X123174000Y-116930000D01*
X120574000Y-119530000D02*
X123174000Y-119530000D01*
X120574000Y-116930000D02*
X107814000Y-116930000D01*
X123174000Y-122130000D02*
X107814000Y-122130000D01*
X123174000Y-119530000D02*
X123174000Y-122130000D01*
X123174000Y-116930000D02*
X123174000Y-118260000D01*
X120574000Y-116930000D02*
X120574000Y-119530000D01*
%TO.C,C1*%
X114000000Y-107121000D02*
X114000000Y-108379000D01*
X115840000Y-107121000D02*
X115840000Y-108379000D01*
%TO.C,R19*%
X142400000Y-105245000D02*
X142400000Y-104035000D01*
X144770000Y-107615000D02*
G75*
G03*
X144770000Y-107615000I-2370000J0D01*
G01*
%TO.C,R3*%
X119465000Y-101200000D02*
X119535000Y-101200000D01*
X119465000Y-101200000D02*
G75*
G03*
X119465000Y-101200000I-1370000J0D01*
G01*
%TO.C,C9*%
X142238748Y-110490000D02*
X144561252Y-110490000D01*
X142238748Y-113910000D02*
X144561252Y-113910000D01*
%TO.C,C13*%
X121838748Y-81310000D02*
X123261252Y-81310000D01*
X121838748Y-78590000D02*
X123261252Y-78590000D01*
%TO.C,R24*%
X132727064Y-108090000D02*
X131272936Y-108090000D01*
X132727064Y-109910000D02*
X131272936Y-109910000D01*
%TO.C,C19*%
X104310000Y-88884165D02*
X104310000Y-89115835D01*
X103590000Y-88884165D02*
X103590000Y-89115835D01*
%TO.C,R9*%
X145270000Y-65000000D02*
X145200000Y-65000000D01*
X148010000Y-65000000D02*
G75*
G03*
X148010000Y-65000000I-1370000J0D01*
G01*
%TO.C,C15*%
X125540000Y-80146267D02*
X125540000Y-79853733D01*
X126560000Y-80146267D02*
X126560000Y-79853733D01*
%TO.C,C14*%
X117340000Y-82534165D02*
X117340000Y-82765835D01*
X118060000Y-82534165D02*
X118060000Y-82765835D01*
%TO.C,C21*%
X103160000Y-90084165D02*
X103160000Y-90315835D01*
X102440000Y-90084165D02*
X102440000Y-90315835D01*
%TO.C,J5*%
X100000000Y-71270000D02*
X101330000Y-71270000D01*
X75810000Y-71270000D02*
X75810000Y-76470000D01*
X101330000Y-73870000D02*
X101330000Y-76470000D01*
X101330000Y-71270000D02*
X101330000Y-72600000D01*
X101330000Y-76470000D02*
X75810000Y-76470000D01*
X98730000Y-73870000D02*
X101330000Y-73870000D01*
X98730000Y-71270000D02*
X98730000Y-73870000D01*
X98730000Y-71270000D02*
X75810000Y-71270000D01*
%TO.C,J1*%
X90485000Y-115005000D02*
X84925000Y-115005000D01*
X74515000Y-98275000D02*
X82125000Y-98275000D01*
X82425000Y-115700000D02*
X81425000Y-115700000D01*
X81425000Y-115700000D02*
X81925000Y-115200000D01*
X74515000Y-115005000D02*
X74515000Y-98275000D01*
X90485000Y-115005000D02*
X90485000Y-98275000D01*
X74515000Y-115005000D02*
X82125000Y-115005000D01*
X90485000Y-98275000D02*
X84925000Y-98275000D01*
X81925000Y-115200000D02*
X82425000Y-115700000D01*
%TO.C,C2*%
X96600000Y-107155000D02*
X96600000Y-108413000D01*
X98440000Y-107155000D02*
X98440000Y-108413000D01*
%TO.C,U3*%
X141256250Y-73883750D02*
X141481250Y-73883750D01*
X141481250Y-70633750D02*
X141481250Y-71608750D01*
X141481250Y-72908750D02*
X141481250Y-73883750D01*
X138231250Y-70633750D02*
X138231250Y-71608750D01*
X138456250Y-73883750D02*
X138231250Y-73883750D01*
X138231250Y-72908750D02*
X138231250Y-73883750D01*
X138231250Y-70633750D02*
X138456250Y-70633750D01*
%TO.C,R2*%
X111700000Y-114125000D02*
X111700000Y-114195000D01*
X113070000Y-112755000D02*
G75*
G03*
X113070000Y-112755000I-1370000J0D01*
G01*
%TO.C,R4*%
X114900000Y-114125000D02*
X114900000Y-114195000D01*
X116270000Y-112755000D02*
G75*
G03*
X116270000Y-112755000I-1370000J0D01*
G01*
%TO.C,J6*%
X120574000Y-71270000D02*
X120574000Y-73870000D01*
X120574000Y-71270000D02*
X102734000Y-71270000D01*
X123174000Y-76470000D02*
X102734000Y-76470000D01*
X102734000Y-71270000D02*
X102734000Y-76470000D01*
X121844000Y-71270000D02*
X123174000Y-71270000D01*
X123174000Y-73870000D02*
X123174000Y-76470000D01*
X123174000Y-71270000D02*
X123174000Y-72600000D01*
X120574000Y-73870000D02*
X123174000Y-73870000D01*
%TO.C,R17*%
X143200000Y-83355000D02*
X143200000Y-84565000D01*
X145570000Y-80985000D02*
G75*
G03*
X145570000Y-80985000I-2370000J0D01*
G01*
%TO.C,C17*%
X120940000Y-88753733D02*
X120940000Y-89046267D01*
X121960000Y-88753733D02*
X121960000Y-89046267D01*
%TO.C,C20*%
X100690000Y-90246267D02*
X100690000Y-89953733D01*
X101710000Y-90246267D02*
X101710000Y-89953733D01*
%TO.C,C6*%
X130742738Y-116335000D02*
X131292738Y-116335000D01*
X131017738Y-116060000D02*
X131017738Y-116610000D01*
X136482077Y-116890000D02*
G75*
G03*
X131147923Y-116890000I-2667077J-1060000D01*
G01*
X131147923Y-119010000D02*
G75*
G03*
X136482077Y-119010000I2667077J1060000D01*
G01*
%TO.C,R10*%
X134225000Y-65000000D02*
X134295000Y-65000000D01*
X134225000Y-65000000D02*
G75*
G03*
X134225000Y-65000000I-1370000J0D01*
G01*
%TO.C,R6*%
X92700000Y-100025000D02*
X92700000Y-100095000D01*
X94070000Y-98655000D02*
G75*
G03*
X94070000Y-98655000I-1370000J0D01*
G01*
%TO.C,C11*%
X142615001Y-92243974D02*
X142115001Y-92243974D01*
X137529226Y-89728974D02*
X137529226Y-89517974D01*
X138329226Y-92890974D02*
X138329226Y-91808974D01*
X139730226Y-93347974D02*
X139730226Y-88189974D01*
X139330226Y-89728974D02*
X139330226Y-88232974D01*
X138809226Y-89728974D02*
X138809226Y-88386974D01*
X138369226Y-92917974D02*
X138369226Y-91808974D01*
X139570226Y-89728974D02*
X139570226Y-88199974D01*
X137849226Y-92467974D02*
X137849226Y-91808974D01*
X139009226Y-93223974D02*
X139009226Y-91808974D01*
X139250226Y-89728974D02*
X139250226Y-88248974D01*
X139089226Y-93248974D02*
X139089226Y-91808974D01*
X139450226Y-89728974D02*
X139450226Y-88212974D01*
X138089226Y-89728974D02*
X138089226Y-88831974D01*
X138009226Y-92632974D02*
X138009226Y-91808974D01*
X137569226Y-89728974D02*
X137569226Y-89449974D01*
X139210226Y-93279974D02*
X139210226Y-91808974D01*
X139170226Y-89728974D02*
X139170226Y-88267974D01*
X138609226Y-89728974D02*
X138609226Y-88478974D01*
X137289226Y-91445974D02*
X137289226Y-90091974D01*
X139290226Y-93296974D02*
X139290226Y-91808974D01*
X138489226Y-92992974D02*
X138489226Y-91808974D01*
X139530226Y-93333974D02*
X139530226Y-91808974D01*
X139089226Y-89728974D02*
X139089226Y-88288974D01*
X139570226Y-93337974D02*
X139570226Y-91808974D01*
X137689226Y-92268974D02*
X137689226Y-91808974D01*
X138889226Y-93182974D02*
X138889226Y-91808974D01*
X137769226Y-92373974D02*
X137769226Y-91808974D01*
X137969226Y-89728974D02*
X137969226Y-88942974D01*
X138409226Y-89728974D02*
X138409226Y-88593974D01*
X137809226Y-89728974D02*
X137809226Y-89115974D01*
X139610226Y-93341974D02*
X139610226Y-88195974D01*
X137449226Y-91866974D02*
X137449226Y-89670974D01*
X139130226Y-89728974D02*
X139130226Y-88277974D01*
X137929226Y-92553974D02*
X137929226Y-91808974D01*
X138929226Y-89728974D02*
X138929226Y-88340974D01*
X139410226Y-89728974D02*
X139410226Y-88218974D01*
X138649226Y-89728974D02*
X138649226Y-88458974D01*
X142365001Y-92493974D02*
X142365001Y-91993974D01*
X138129226Y-92739974D02*
X138129226Y-91808974D01*
X138409226Y-92943974D02*
X138409226Y-91808974D01*
X138089226Y-92705974D02*
X138089226Y-91808974D01*
X138809226Y-93150974D02*
X138809226Y-91808974D01*
X139290226Y-89728974D02*
X139290226Y-88240974D01*
X137849226Y-89728974D02*
X137849226Y-89069974D01*
X138729226Y-93116974D02*
X138729226Y-91808974D01*
X138889226Y-89728974D02*
X138889226Y-88354974D01*
X137569226Y-92087974D02*
X137569226Y-91808974D01*
X138969226Y-93210974D02*
X138969226Y-91808974D01*
X138009226Y-89728974D02*
X138009226Y-88904974D01*
X139530226Y-89728974D02*
X139530226Y-88203974D01*
X139370226Y-89728974D02*
X139370226Y-88225974D01*
X138649226Y-93078974D02*
X138649226Y-91808974D01*
X137329226Y-91573974D02*
X137329226Y-89963974D01*
X138209226Y-92803974D02*
X138209226Y-91808974D01*
X138369226Y-89728974D02*
X138369226Y-88619974D01*
X138529226Y-89728974D02*
X138529226Y-88521974D01*
X138849226Y-89728974D02*
X138849226Y-88370974D01*
X137889226Y-89728974D02*
X137889226Y-89025974D01*
X139490226Y-93329974D02*
X139490226Y-91808974D01*
X138689226Y-93097974D02*
X138689226Y-91808974D01*
X139810226Y-93348974D02*
X139810226Y-88188974D01*
X139049226Y-89728974D02*
X139049226Y-88300974D01*
X137529226Y-92019974D02*
X137529226Y-91808974D01*
X138289226Y-89728974D02*
X138289226Y-88673974D01*
X138929226Y-93196974D02*
X138929226Y-91808974D01*
X139690226Y-93346974D02*
X139690226Y-88190974D01*
X137409226Y-91779974D02*
X137409226Y-89757974D01*
X137809226Y-92421974D02*
X137809226Y-91808974D01*
X138689226Y-89728974D02*
X138689226Y-88439974D01*
X139450226Y-93324974D02*
X139450226Y-91808974D01*
X139410226Y-93318974D02*
X139410226Y-91808974D01*
X137249226Y-91286974D02*
X137249226Y-90250974D01*
X138249226Y-89728974D02*
X138249226Y-88703974D01*
X137729226Y-92322974D02*
X137729226Y-91808974D01*
X138289226Y-92863974D02*
X138289226Y-91808974D01*
X138769226Y-93133974D02*
X138769226Y-91808974D01*
X138209226Y-89728974D02*
X138209226Y-88733974D01*
X138569226Y-89728974D02*
X138569226Y-88500974D01*
X139770226Y-93348974D02*
X139770226Y-88188974D01*
X139650226Y-93344974D02*
X139650226Y-88192974D01*
X137689226Y-89728974D02*
X137689226Y-89268974D01*
X137209226Y-91052974D02*
X137209226Y-90484974D01*
X137889226Y-92511974D02*
X137889226Y-91808974D01*
X138529226Y-93015974D02*
X138529226Y-91808974D01*
X138449226Y-92968974D02*
X138449226Y-91808974D01*
X138329226Y-89728974D02*
X138329226Y-88646974D01*
X139330226Y-93304974D02*
X139330226Y-91808974D01*
X138969226Y-89728974D02*
X138969226Y-88326974D01*
X139370226Y-93311974D02*
X139370226Y-91808974D01*
X137729226Y-89728974D02*
X137729226Y-89214974D01*
X139170226Y-93269974D02*
X139170226Y-91808974D01*
X138049226Y-89728974D02*
X138049226Y-88867974D01*
X137609226Y-92151974D02*
X137609226Y-91808974D01*
X138489226Y-89728974D02*
X138489226Y-88544974D01*
X138129226Y-89728974D02*
X138129226Y-88797974D01*
X137649226Y-89728974D02*
X137649226Y-89325974D01*
X137769226Y-89728974D02*
X137769226Y-89163974D01*
X137929226Y-89728974D02*
X137929226Y-88983974D01*
X137649226Y-92211974D02*
X137649226Y-91808974D01*
X139130226Y-93259974D02*
X139130226Y-91808974D01*
X139490226Y-89728974D02*
X139490226Y-88207974D01*
X138449226Y-89728974D02*
X138449226Y-88568974D01*
X138609226Y-93058974D02*
X138609226Y-91808974D01*
X139210226Y-89728974D02*
X139210226Y-88257974D01*
X138169226Y-92772974D02*
X138169226Y-91808974D01*
X137609226Y-89728974D02*
X137609226Y-89385974D01*
X138729226Y-89728974D02*
X138729226Y-88420974D01*
X138049226Y-92669974D02*
X138049226Y-91808974D01*
X137369226Y-91683974D02*
X137369226Y-89853974D01*
X139250226Y-93288974D02*
X139250226Y-91808974D01*
X139049226Y-93236974D02*
X139049226Y-91808974D01*
X138769226Y-89728974D02*
X138769226Y-88403974D01*
X139009226Y-89728974D02*
X139009226Y-88313974D01*
X137969226Y-92594974D02*
X137969226Y-91808974D01*
X138569226Y-93036974D02*
X138569226Y-91808974D01*
X138249226Y-92833974D02*
X138249226Y-91808974D01*
X138169226Y-89728974D02*
X138169226Y-88764974D01*
X138849226Y-93166974D02*
X138849226Y-91808974D01*
X137489226Y-91946974D02*
X137489226Y-89590974D01*
X142430226Y-90768974D02*
G75*
G03*
X142430226Y-90768974I-2620000J0D01*
G01*
%TO.C,C12*%
X139964440Y-95431000D02*
X139964440Y-96960000D01*
X140445440Y-99040000D02*
X140445440Y-100480000D01*
X141285440Y-95935000D02*
X141285440Y-96960000D01*
X140324440Y-95489000D02*
X140324440Y-96960000D01*
X142245440Y-97323000D02*
X142245440Y-98677000D01*
X141885440Y-99040000D02*
X141885440Y-99443000D01*
X141405440Y-96029000D02*
X141405440Y-96960000D01*
X140605440Y-95572000D02*
X140605440Y-96960000D01*
X141765440Y-96395000D02*
X141765440Y-96960000D01*
X140164440Y-99040000D02*
X140164440Y-100543000D01*
X141525440Y-96136000D02*
X141525440Y-96960000D01*
X140404440Y-95509000D02*
X140404440Y-96960000D01*
X142045440Y-96822000D02*
X142045440Y-99178000D01*
X140525440Y-95545000D02*
X140525440Y-96960000D01*
X140845440Y-95671000D02*
X140845440Y-96960000D01*
X141805440Y-99040000D02*
X141805440Y-99554000D01*
X141685440Y-96301000D02*
X141685440Y-96960000D01*
X139964440Y-99040000D02*
X139964440Y-100569000D01*
X140965440Y-99040000D02*
X140965440Y-100268000D01*
X140645440Y-99040000D02*
X140645440Y-100414000D01*
X140404440Y-99040000D02*
X140404440Y-100491000D01*
X141045440Y-95776000D02*
X141045440Y-96960000D01*
X140805440Y-99040000D02*
X140805440Y-100348000D01*
X140685440Y-99040000D02*
X140685440Y-100398000D01*
X141965440Y-99040000D02*
X141965440Y-99319000D01*
X141245440Y-95905000D02*
X141245440Y-96960000D01*
X141645440Y-96257000D02*
X141645440Y-96960000D01*
X140965440Y-95732000D02*
X140965440Y-96960000D01*
X140004440Y-99040000D02*
X140004440Y-100565000D01*
X141925440Y-96617000D02*
X141925440Y-96960000D01*
X141885440Y-96557000D02*
X141885440Y-96960000D01*
X140204440Y-95464000D02*
X140204440Y-96960000D01*
X140885440Y-95690000D02*
X140885440Y-96960000D01*
X136919665Y-96525000D02*
X137419665Y-96525000D01*
X141485440Y-96099000D02*
X141485440Y-96960000D01*
X142205440Y-97195000D02*
X142205440Y-98805000D01*
X141445440Y-99040000D02*
X141445440Y-99937000D01*
X141205440Y-99040000D02*
X141205440Y-100122000D01*
X141765440Y-99040000D02*
X141765440Y-99605000D01*
X140565440Y-99040000D02*
X140565440Y-100442000D01*
X141245440Y-99040000D02*
X141245440Y-100095000D01*
X141285440Y-99040000D02*
X141285440Y-100065000D01*
X141565440Y-99040000D02*
X141565440Y-99826000D01*
X141365440Y-99040000D02*
X141365440Y-100004000D01*
X141525440Y-99040000D02*
X141525440Y-99864000D01*
X141485440Y-99040000D02*
X141485440Y-99901000D01*
X140565440Y-95558000D02*
X140565440Y-96960000D01*
X141925440Y-99040000D02*
X141925440Y-99383000D01*
X140645440Y-95586000D02*
X140645440Y-96960000D01*
X141805440Y-96446000D02*
X141805440Y-96960000D01*
X140885440Y-99040000D02*
X140885440Y-100310000D01*
X141085440Y-99040000D02*
X141085440Y-100200000D01*
X141085440Y-95800000D02*
X141085440Y-96960000D01*
X141965440Y-96681000D02*
X141965440Y-96960000D01*
X139844440Y-95422000D02*
X139844440Y-100578000D01*
X140725440Y-95618000D02*
X140725440Y-96960000D01*
X141565440Y-96174000D02*
X141565440Y-96960000D01*
X140084440Y-95444000D02*
X140084440Y-96960000D01*
X140765440Y-95635000D02*
X140765440Y-96960000D01*
X137169665Y-96275000D02*
X137169665Y-96775000D01*
X141165440Y-95851000D02*
X141165440Y-96960000D01*
X142325440Y-97716000D02*
X142325440Y-98284000D01*
X141605440Y-96215000D02*
X141605440Y-96960000D01*
X140485440Y-95532000D02*
X140485440Y-96960000D01*
X141125440Y-99040000D02*
X141125440Y-100175000D01*
X141845440Y-99040000D02*
X141845440Y-99500000D01*
X142005440Y-99040000D02*
X142005440Y-99251000D01*
X140004440Y-95435000D02*
X140004440Y-96960000D01*
X141445440Y-96063000D02*
X141445440Y-96960000D01*
X141605440Y-99040000D02*
X141605440Y-99785000D01*
X141725440Y-96347000D02*
X141725440Y-96960000D01*
X142165440Y-97085000D02*
X142165440Y-98915000D01*
X140124440Y-95450000D02*
X140124440Y-96960000D01*
X140244440Y-99040000D02*
X140244440Y-100528000D01*
X140364440Y-99040000D02*
X140364440Y-100501000D01*
X140324440Y-99040000D02*
X140324440Y-100511000D01*
X141005440Y-99040000D02*
X141005440Y-100247000D01*
X141685440Y-99040000D02*
X141685440Y-99699000D01*
X140284440Y-95480000D02*
X140284440Y-96960000D01*
X140084440Y-99040000D02*
X140084440Y-100556000D01*
X141205440Y-95878000D02*
X141205440Y-96960000D01*
X142285440Y-97482000D02*
X142285440Y-98518000D01*
X140805440Y-95652000D02*
X140805440Y-96960000D01*
X140164440Y-95457000D02*
X140164440Y-96960000D01*
X139924440Y-95427000D02*
X139924440Y-100573000D01*
X140845440Y-99040000D02*
X140845440Y-100329000D01*
X140725440Y-99040000D02*
X140725440Y-100382000D01*
X141045440Y-99040000D02*
X141045440Y-100224000D01*
X141325440Y-95965000D02*
X141325440Y-96960000D01*
X140485440Y-99040000D02*
X140485440Y-100468000D01*
X139884440Y-95424000D02*
X139884440Y-100576000D01*
X141005440Y-95753000D02*
X141005440Y-96960000D01*
X140685440Y-95602000D02*
X140685440Y-96960000D01*
X141125440Y-95825000D02*
X141125440Y-96960000D01*
X140244440Y-95472000D02*
X140244440Y-96960000D01*
X139724440Y-95420000D02*
X139724440Y-100580000D01*
X141845440Y-96500000D02*
X141845440Y-96960000D01*
X140044440Y-95439000D02*
X140044440Y-96960000D01*
X140765440Y-99040000D02*
X140765440Y-100365000D01*
X141725440Y-99040000D02*
X141725440Y-99653000D01*
X140284440Y-99040000D02*
X140284440Y-100520000D01*
X140124440Y-99040000D02*
X140124440Y-100550000D01*
X141365440Y-95996000D02*
X141365440Y-96960000D01*
X140925440Y-99040000D02*
X140925440Y-100290000D01*
X140925440Y-95710000D02*
X140925440Y-96960000D01*
X142005440Y-96749000D02*
X142005440Y-96960000D01*
X141325440Y-99040000D02*
X141325440Y-100035000D01*
X139764440Y-95420000D02*
X139764440Y-100580000D01*
X141645440Y-99040000D02*
X141645440Y-99743000D01*
X139804440Y-95421000D02*
X139804440Y-100579000D01*
X141165440Y-99040000D02*
X141165440Y-100149000D01*
X140364440Y-95499000D02*
X140364440Y-96960000D01*
X140605440Y-99040000D02*
X140605440Y-100428000D01*
X140445440Y-95520000D02*
X140445440Y-96960000D01*
X140044440Y-99040000D02*
X140044440Y-100561000D01*
X140525440Y-99040000D02*
X140525440Y-100455000D01*
X141405440Y-99040000D02*
X141405440Y-99971000D01*
X142125440Y-96989000D02*
X142125440Y-99011000D01*
X142085440Y-96902000D02*
X142085440Y-99098000D01*
X140204440Y-99040000D02*
X140204440Y-100536000D01*
X142344440Y-98000000D02*
G75*
G03*
X142344440Y-98000000I-2620000J0D01*
G01*
%TO.C,R12*%
X134180000Y-123792500D02*
X134250000Y-123792500D01*
X134180000Y-123792500D02*
G75*
G03*
X134180000Y-123792500I-1370000J0D01*
G01*
%TO.C,R15*%
X141400000Y-122830000D02*
X141400000Y-122760000D01*
X142770000Y-124200000D02*
G75*
G03*
X142770000Y-124200000I-1370000J0D01*
G01*
%TO.C,C4*%
X130833988Y-68885000D02*
X131383988Y-68885000D01*
X131108988Y-68610000D02*
X131108988Y-69160000D01*
X136573327Y-69440000D02*
G75*
G03*
X131239173Y-69440000I-2667077J-1060000D01*
G01*
X131239173Y-71560000D02*
G75*
G03*
X136573327Y-71560000I2667077J1060000D01*
G01*
%TO.C,R25*%
X111125000Y-79100000D02*
X111195000Y-79100000D01*
X111125000Y-79100000D02*
G75*
G03*
X111125000Y-79100000I-1370000J0D01*
G01*
%TO.C,R18*%
X136500000Y-83355000D02*
X136500000Y-84565000D01*
X138870000Y-80985000D02*
G75*
G03*
X138870000Y-80985000I-2370000J0D01*
G01*
%TO.C,C3*%
X148878512Y-72123750D02*
X148328512Y-72123750D01*
X148603512Y-72398750D02*
X148603512Y-71848750D01*
X143139173Y-71568750D02*
G75*
G03*
X148473327Y-71568750I2667077J1060000D01*
G01*
X148473327Y-69448750D02*
G75*
G03*
X143139173Y-69448750I-2667077J-1060000D01*
G01*
%TO.C,J3*%
X102794000Y-119530000D02*
X105394000Y-119530000D01*
X84954000Y-116930000D02*
X84954000Y-122130000D01*
X102794000Y-116930000D02*
X102794000Y-119530000D01*
X102794000Y-116930000D02*
X84954000Y-116930000D01*
X104064000Y-116930000D02*
X105394000Y-116930000D01*
X105394000Y-116930000D02*
X105394000Y-118260000D01*
X105394000Y-122130000D02*
X84954000Y-122130000D01*
X105394000Y-119530000D02*
X105394000Y-122130000D01*
%TO.C,R23*%
X146772936Y-109910000D02*
X148227064Y-109910000D01*
X146772936Y-108090000D02*
X148227064Y-108090000D01*
%TO.C,R21*%
X147572936Y-80510000D02*
X149027064Y-80510000D01*
X147572936Y-78690000D02*
X149027064Y-78690000D01*
%TO.C,R11*%
X145600000Y-123792500D02*
X145530000Y-123792500D01*
X148340000Y-123792500D02*
G75*
G03*
X148340000Y-123792500I-1370000J0D01*
G01*
%TO.C,R5*%
X95750000Y-101630000D02*
X95750000Y-101560000D01*
X97120000Y-103000000D02*
G75*
G03*
X97120000Y-103000000I-1370000J0D01*
G01*
%TO.C,R7*%
X96000000Y-83075000D02*
X96000000Y-83005000D01*
X97370000Y-84445000D02*
G75*
G03*
X97370000Y-84445000I-1370000J0D01*
G01*
%TD*%
M02*
