%TF.GenerationSoftware,KiCad,Pcbnew,(6.0.10-0)*%
%TF.CreationDate,2023-03-08T10:25:28-05:00*%
%TF.ProjectId,shield,73686965-6c64-42e6-9b69-6361645f7063,rev?*%
%TF.SameCoordinates,Original*%
%TF.FileFunction,Soldermask,Top*%
%TF.FilePolarity,Negative*%
%FSLAX46Y46*%
G04 Gerber Fmt 4.6, Leading zero omitted, Abs format (unit mm)*
G04 Created by KiCad (PCBNEW (6.0.10-0)) date 2023-03-08 10:25:28*
%MOMM*%
%LPD*%
G01*
G04 APERTURE LIST*
G04 Aperture macros list*
%AMRoundRect*
0 Rectangle with rounded corners*
0 $1 Rounding radius*
0 $2 $3 $4 $5 $6 $7 $8 $9 X,Y pos of 4 corners*
0 Add a 4 corners polygon primitive as box body*
4,1,4,$2,$3,$4,$5,$6,$7,$8,$9,$2,$3,0*
0 Add four circle primitives for the rounded corners*
1,1,$1+$1,$2,$3*
1,1,$1+$1,$4,$5*
1,1,$1+$1,$6,$7*
1,1,$1+$1,$8,$9*
0 Add four rect primitives between the rounded corners*
20,1,$1+$1,$2,$3,$4,$5,0*
20,1,$1+$1,$4,$5,$6,$7,0*
20,1,$1+$1,$6,$7,$8,$9,0*
20,1,$1+$1,$8,$9,$2,$3,0*%
G04 Aperture macros list end*
%ADD10R,1.600000X1.600000*%
%ADD11O,1.600000X1.600000*%
%ADD12C,1.600000*%
%ADD13RoundRect,0.250000X0.400000X0.625000X-0.400000X0.625000X-0.400000X-0.625000X0.400000X-0.625000X0*%
%ADD14RoundRect,0.070000X0.140000X-0.140000X0.140000X0.140000X-0.140000X0.140000X-0.140000X-0.140000X0*%
%ADD15O,0.420000X0.990000*%
%ADD16R,1.050000X0.680000*%
%ADD17R,0.700000X0.280000*%
%ADD18R,0.500000X0.260000*%
%ADD19R,2.400000X1.650000*%
%ADD20RoundRect,0.155000X0.155000X-0.212500X0.155000X0.212500X-0.155000X0.212500X-0.155000X-0.212500X0*%
%ADD21RoundRect,0.250000X0.537500X1.450000X-0.537500X1.450000X-0.537500X-1.450000X0.537500X-1.450000X0*%
%ADD22C,2.400000*%
%ADD23O,2.400000X2.400000*%
%ADD24R,1.750000X0.500000*%
%ADD25R,1.600000X0.515000*%
%ADD26R,1.600000X0.500000*%
%ADD27C,3.250000*%
%ADD28R,1.500000X1.500000*%
%ADD29C,1.500000*%
%ADD30C,2.300000*%
%ADD31RoundRect,0.155000X-0.155000X0.212500X-0.155000X-0.212500X0.155000X-0.212500X0.155000X0.212500X0*%
%ADD32RoundRect,0.250000X-0.537500X-1.450000X0.537500X-1.450000X0.537500X1.450000X-0.537500X1.450000X0*%
%ADD33R,1.700000X1.700000*%
%ADD34O,1.700000X1.700000*%
%ADD35RoundRect,0.250000X-0.412500X-1.100000X0.412500X-1.100000X0.412500X1.100000X-0.412500X1.100000X0*%
%ADD36RoundRect,0.237500X0.237500X-0.300000X0.237500X0.300000X-0.237500X0.300000X-0.237500X-0.300000X0*%
%ADD37RoundRect,0.070000X-0.140000X0.140000X-0.140000X-0.140000X0.140000X-0.140000X0.140000X0.140000X0*%
%ADD38RoundRect,0.237500X-0.237500X0.300000X-0.237500X-0.300000X0.237500X-0.300000X0.237500X0.300000X0*%
%ADD39RoundRect,0.250000X-0.400000X-0.625000X0.400000X-0.625000X0.400000X0.625000X-0.400000X0.625000X0*%
G04 APERTURE END LIST*
D10*
%TO.C,U2*%
X118100000Y-111500000D03*
D11*
X120640000Y-111500000D03*
X123180000Y-111500000D03*
X125720000Y-111500000D03*
X125720000Y-103880000D03*
X123180000Y-103880000D03*
X120640000Y-103880000D03*
X118100000Y-103880000D03*
%TD*%
D12*
%TO.C,R16*%
X138000000Y-122110000D03*
D11*
X138000000Y-124650000D03*
%TD*%
D10*
%TO.C,U1*%
X101000000Y-111500000D03*
D11*
X103540000Y-111500000D03*
X106080000Y-111500000D03*
X108620000Y-111500000D03*
X108620000Y-103880000D03*
X106080000Y-103880000D03*
X103540000Y-103880000D03*
X101000000Y-103880000D03*
%TD*%
D13*
%TO.C,R22*%
X132950000Y-79600000D03*
X129850000Y-79600000D03*
%TD*%
D10*
%TO.C,C5*%
X148315000Y-117950000D03*
D12*
X143315000Y-117950000D03*
%TD*%
D14*
%TO.C,U4*%
X138900000Y-118210000D03*
D15*
X138900000Y-117925000D03*
D14*
X139400000Y-118210000D03*
D15*
X139400000Y-117925000D03*
X139900000Y-117925000D03*
D14*
X139900000Y-118210000D03*
X140400000Y-118210000D03*
D15*
X140400000Y-117925000D03*
D14*
X140900000Y-118210000D03*
D15*
X140900000Y-117925000D03*
X140900000Y-114975000D03*
D14*
X140900000Y-114690000D03*
X140400000Y-114690000D03*
D15*
X140400000Y-114975000D03*
D14*
X139900000Y-114690000D03*
D15*
X139900000Y-114975000D03*
X139400000Y-114975000D03*
D14*
X139400000Y-114690000D03*
X138900000Y-114690000D03*
D15*
X138900000Y-114975000D03*
D16*
X140535000Y-116000000D03*
D17*
X141450000Y-116700000D03*
X141450000Y-116200000D03*
D16*
X139265000Y-116900000D03*
D18*
X141530000Y-116700000D03*
D16*
X140535000Y-116900000D03*
D18*
X138270000Y-116700000D03*
D17*
X138350000Y-116700000D03*
D19*
X139900000Y-116450000D03*
D16*
X139265000Y-116000000D03*
D18*
X141530000Y-116200000D03*
D17*
X138350000Y-116200000D03*
D18*
X138270000Y-116200000D03*
%TD*%
D20*
%TO.C,C18*%
X118750000Y-89567500D03*
X118750000Y-88432500D03*
%TD*%
D21*
%TO.C,C8*%
X137437500Y-76400000D03*
X133162500Y-76400000D03*
%TD*%
D12*
%TO.C,R8*%
X92900000Y-84445000D03*
D11*
X92900000Y-81905000D03*
%TD*%
D21*
%TO.C,C10*%
X138287500Y-112200000D03*
X134012500Y-112200000D03*
%TD*%
D12*
%TO.C,R14*%
X138000000Y-64055000D03*
D11*
X138000000Y-66595000D03*
%TD*%
D22*
%TO.C,R20*%
X137100000Y-107615000D03*
D23*
X137100000Y-102535000D03*
%TD*%
D24*
%TO.C,U5*%
X106625000Y-82030000D03*
X106625000Y-83300000D03*
X106625000Y-84570000D03*
X106625000Y-85840000D03*
X106625000Y-87110000D03*
X106625000Y-88380000D03*
X106625000Y-89650000D03*
X106625000Y-90920000D03*
X106625000Y-92190000D03*
X106625000Y-93460000D03*
X106625000Y-94730000D03*
X106625000Y-96000000D03*
D25*
X115450000Y-95992500D03*
D26*
X115450000Y-94715000D03*
X115450000Y-93445000D03*
X115450000Y-92175000D03*
X115450000Y-90905000D03*
X115450000Y-89635000D03*
X115450000Y-88365000D03*
X115450000Y-87095000D03*
X115450000Y-85825000D03*
X115450000Y-84555000D03*
X115450000Y-83285000D03*
X115450000Y-82015000D03*
%TD*%
D27*
%TO.C,J2*%
X80085000Y-93390000D03*
X80085000Y-80690000D03*
D28*
X82625000Y-90600000D03*
D29*
X84405000Y-89584000D03*
X82625000Y-88568000D03*
X84405000Y-87552000D03*
X82625000Y-86536000D03*
X84405000Y-85520000D03*
X82625000Y-84504000D03*
X84405000Y-83488000D03*
X89225000Y-93900000D03*
X89225000Y-91610000D03*
X89225000Y-82470000D03*
X89225000Y-80180000D03*
D30*
X83515000Y-95170000D03*
X83515000Y-78910000D03*
%TD*%
D12*
%TO.C,R1*%
X100955000Y-101200000D03*
D11*
X103495000Y-101200000D03*
%TD*%
D12*
%TO.C,R13*%
X141456250Y-66145000D03*
D11*
X141456250Y-63605000D03*
%TD*%
D31*
%TO.C,C16*%
X119150000Y-83282500D03*
X119150000Y-84417500D03*
%TD*%
D32*
%TO.C,C7*%
X142262500Y-76400000D03*
X146537500Y-76400000D03*
%TD*%
D33*
%TO.C,J4*%
X121844000Y-118260000D03*
D34*
X121844000Y-120800000D03*
X119304000Y-118260000D03*
X119304000Y-120800000D03*
X116764000Y-118260000D03*
X116764000Y-120800000D03*
X114224000Y-118260000D03*
X114224000Y-120800000D03*
X111684000Y-118260000D03*
X111684000Y-120800000D03*
X109144000Y-118260000D03*
X109144000Y-120800000D03*
%TD*%
D12*
%TO.C,C1*%
X114920000Y-106500000D03*
X114920000Y-109000000D03*
%TD*%
D22*
%TO.C,R19*%
X142400000Y-107615000D03*
D23*
X142400000Y-102535000D03*
%TD*%
D12*
%TO.C,R3*%
X118095000Y-101200000D03*
D11*
X120635000Y-101200000D03*
%TD*%
D32*
%TO.C,C9*%
X141262500Y-112200000D03*
X145537500Y-112200000D03*
%TD*%
D35*
%TO.C,C13*%
X120987500Y-79950000D03*
X124112500Y-79950000D03*
%TD*%
D13*
%TO.C,R24*%
X133550000Y-109000000D03*
X130450000Y-109000000D03*
%TD*%
D31*
%TO.C,C19*%
X103950000Y-88432500D03*
X103950000Y-89567500D03*
%TD*%
D12*
%TO.C,R9*%
X146640000Y-65000000D03*
D11*
X144100000Y-65000000D03*
%TD*%
D36*
%TO.C,C15*%
X126050000Y-80862500D03*
X126050000Y-79137500D03*
%TD*%
D31*
%TO.C,C14*%
X117700000Y-82082500D03*
X117700000Y-83217500D03*
%TD*%
%TO.C,C21*%
X102800000Y-89632500D03*
X102800000Y-90767500D03*
%TD*%
D33*
%TO.C,J5*%
X100000000Y-72600000D03*
D34*
X100000000Y-75140000D03*
X97460000Y-72600000D03*
X97460000Y-75140000D03*
X94920000Y-72600000D03*
X94920000Y-75140000D03*
X92380000Y-72600000D03*
X92380000Y-75140000D03*
X89840000Y-72600000D03*
X89840000Y-75140000D03*
X87300000Y-72600000D03*
X87300000Y-75140000D03*
X84760000Y-72600000D03*
X84760000Y-75140000D03*
X82220000Y-72600000D03*
X82220000Y-75140000D03*
X79680000Y-72600000D03*
X79680000Y-75140000D03*
X77140000Y-72600000D03*
X77140000Y-75140000D03*
%TD*%
D27*
%TO.C,J1*%
X80085000Y-112990000D03*
X80085000Y-100290000D03*
D28*
X82625000Y-110200000D03*
D29*
X84405000Y-109184000D03*
X82625000Y-108168000D03*
X84405000Y-107152000D03*
X82625000Y-106136000D03*
X84405000Y-105120000D03*
X82625000Y-104104000D03*
X84405000Y-103088000D03*
X89225000Y-113500000D03*
X89225000Y-111210000D03*
X89225000Y-102070000D03*
X89225000Y-99780000D03*
D30*
X83515000Y-98510000D03*
X83515000Y-114770000D03*
%TD*%
D12*
%TO.C,C2*%
X97520000Y-106534000D03*
X97520000Y-109034000D03*
%TD*%
D15*
%TO.C,U3*%
X140856250Y-70783750D03*
D37*
X140856250Y-70498750D03*
D15*
X140356250Y-70783750D03*
D37*
X140356250Y-70498750D03*
X139856250Y-70498750D03*
D15*
X139856250Y-70783750D03*
D37*
X139356250Y-70498750D03*
D15*
X139356250Y-70783750D03*
D37*
X138856250Y-70498750D03*
D15*
X138856250Y-70783750D03*
D37*
X138856250Y-74018750D03*
D15*
X138856250Y-73733750D03*
X139356250Y-73733750D03*
D37*
X139356250Y-74018750D03*
D15*
X139856250Y-73733750D03*
D37*
X139856250Y-74018750D03*
X140356250Y-74018750D03*
D15*
X140356250Y-73733750D03*
D37*
X140856250Y-74018750D03*
D15*
X140856250Y-73733750D03*
D16*
X140491250Y-71808750D03*
X139221250Y-72708750D03*
D17*
X138306250Y-72508750D03*
D16*
X139221250Y-71808750D03*
D18*
X141486250Y-72508750D03*
D17*
X138306250Y-72008750D03*
D18*
X138226250Y-72508750D03*
D17*
X141406250Y-72508750D03*
D18*
X141486250Y-72008750D03*
D19*
X139856250Y-72258750D03*
D17*
X141406250Y-72008750D03*
D16*
X140491250Y-72708750D03*
D18*
X138226250Y-72008750D03*
%TD*%
D12*
%TO.C,R2*%
X111700000Y-112755000D03*
D11*
X111700000Y-115295000D03*
%TD*%
D12*
%TO.C,R4*%
X114900000Y-112755000D03*
D11*
X114900000Y-115295000D03*
%TD*%
D33*
%TO.C,J6*%
X121875000Y-72600000D03*
D34*
X121844000Y-75140000D03*
X119304000Y-72600000D03*
X119304000Y-75140000D03*
X116764000Y-72600000D03*
X116764000Y-75140000D03*
X114224000Y-72600000D03*
X114224000Y-75140000D03*
X111684000Y-72600000D03*
X111684000Y-75140000D03*
X109144000Y-72600000D03*
X109144000Y-75140000D03*
X106604000Y-72600000D03*
X106604000Y-75140000D03*
X104064000Y-72600000D03*
X104064000Y-75140000D03*
%TD*%
D22*
%TO.C,R17*%
X143200000Y-80985000D03*
D23*
X143200000Y-86065000D03*
%TD*%
D38*
%TO.C,C17*%
X121450000Y-88037500D03*
X121450000Y-89762500D03*
%TD*%
D36*
%TO.C,C20*%
X101200000Y-90962500D03*
X101200000Y-89237500D03*
%TD*%
D10*
%TO.C,C6*%
X131315000Y-117950000D03*
D12*
X136315000Y-117950000D03*
%TD*%
%TO.C,R10*%
X132855000Y-65000000D03*
D11*
X135395000Y-65000000D03*
%TD*%
D12*
%TO.C,R6*%
X92700000Y-98655000D03*
D11*
X92700000Y-101195000D03*
%TD*%
D10*
%TO.C,C11*%
X141060226Y-90768974D03*
D12*
X138560226Y-90768974D03*
%TD*%
D10*
%TO.C,C12*%
X138474440Y-98000000D03*
D12*
X140974440Y-98000000D03*
%TD*%
%TO.C,R12*%
X132810000Y-123792500D03*
D11*
X135350000Y-123792500D03*
%TD*%
D12*
%TO.C,R15*%
X141400000Y-124200000D03*
D11*
X141400000Y-121660000D03*
%TD*%
D10*
%TO.C,C4*%
X131406250Y-70500000D03*
D12*
X136406250Y-70500000D03*
%TD*%
%TO.C,R25*%
X109755000Y-79100000D03*
D11*
X112295000Y-79100000D03*
%TD*%
D22*
%TO.C,R18*%
X136500000Y-80985000D03*
D23*
X136500000Y-86065000D03*
%TD*%
D10*
%TO.C,C3*%
X148306250Y-70508750D03*
D12*
X143306250Y-70508750D03*
%TD*%
D33*
%TO.C,J3*%
X104064000Y-118260000D03*
D34*
X104064000Y-120800000D03*
X101524000Y-118260000D03*
X101524000Y-120800000D03*
X98984000Y-118260000D03*
X98984000Y-120800000D03*
X96444000Y-118260000D03*
X96444000Y-120800000D03*
X93904000Y-118260000D03*
X93904000Y-120800000D03*
X91364000Y-118260000D03*
X91364000Y-120800000D03*
X88824000Y-118260000D03*
X88824000Y-120800000D03*
X86284000Y-118260000D03*
X86284000Y-120800000D03*
%TD*%
D39*
%TO.C,R23*%
X145950000Y-109000000D03*
X149050000Y-109000000D03*
%TD*%
%TO.C,R21*%
X146750000Y-79600000D03*
X149850000Y-79600000D03*
%TD*%
D12*
%TO.C,R11*%
X146970000Y-123792500D03*
D11*
X144430000Y-123792500D03*
%TD*%
D12*
%TO.C,R5*%
X95750000Y-103000000D03*
D11*
X95750000Y-100460000D03*
%TD*%
D12*
%TO.C,R7*%
X96000000Y-84445000D03*
D11*
X96000000Y-81905000D03*
%TD*%
M02*
