%TF.GenerationSoftware,KiCad,Pcbnew,(6.0.10)*%
%TF.CreationDate,2023-02-24T01:37:01-05:00*%
%TF.ProjectId,shield,73686965-6c64-42e6-9b69-6361645f7063,rev?*%
%TF.SameCoordinates,Original*%
%TF.FileFunction,Copper,L2,Bot*%
%TF.FilePolarity,Positive*%
%FSLAX46Y46*%
G04 Gerber Fmt 4.6, Leading zero omitted, Abs format (unit mm)*
G04 Created by KiCad (PCBNEW (6.0.10)) date 2023-02-24 01:37:01*
%MOMM*%
%LPD*%
G01*
G04 APERTURE LIST*
%TA.AperFunction,ComponentPad*%
%ADD10O,2.400000X2.400000*%
%TD*%
%TA.AperFunction,ComponentPad*%
%ADD11C,2.400000*%
%TD*%
%TA.AperFunction,ComponentPad*%
%ADD12C,1.600000*%
%TD*%
%TA.AperFunction,ComponentPad*%
%ADD13O,1.600000X1.600000*%
%TD*%
%TA.AperFunction,ComponentPad*%
%ADD14R,1.600000X1.600000*%
%TD*%
%TA.AperFunction,ComponentPad*%
%ADD15R,1.500000X1.500000*%
%TD*%
%TA.AperFunction,ComponentPad*%
%ADD16C,1.500000*%
%TD*%
%TA.AperFunction,ComponentPad*%
%ADD17C,2.300000*%
%TD*%
%TA.AperFunction,ComponentPad*%
%ADD18R,1.700000X1.700000*%
%TD*%
%TA.AperFunction,ComponentPad*%
%ADD19O,1.700000X1.700000*%
%TD*%
%TA.AperFunction,ViaPad*%
%ADD20C,0.800000*%
%TD*%
%TA.AperFunction,Conductor*%
%ADD21C,0.250000*%
%TD*%
G04 APERTURE END LIST*
D10*
%TO.P,R20,2*%
%TO.N,AINL+*%
X137100000Y-102535000D03*
D11*
%TO.P,R20,1*%
%TO.N,Net-(C10-Pad1)*%
X137100000Y-107615000D03*
%TD*%
%TO.P,R18,1*%
%TO.N,Net-(C8-Pad1)*%
X136500000Y-80985000D03*
D10*
%TO.P,R18,2*%
%TO.N,AINR+*%
X136500000Y-86065000D03*
%TD*%
D12*
%TO.P,R9,1*%
%TO.N,Net-(C3-Pad1)*%
X146640000Y-65000000D03*
D13*
%TO.P,R9,2*%
%TO.N,GND*%
X144100000Y-65000000D03*
%TD*%
D12*
%TO.P,R25,1*%
%TO.N,+5V*%
X109755000Y-79100000D03*
D13*
%TO.P,R25,2*%
%TO.N,/VD*%
X112295000Y-79100000D03*
%TD*%
D10*
%TO.P,R19,2*%
%TO.N,AINL-*%
X142400000Y-102535000D03*
D11*
%TO.P,R19,1*%
%TO.N,Net-(C9-Pad1)*%
X142400000Y-107615000D03*
%TD*%
%TO.P,R17,1*%
%TO.N,Net-(C7-Pad1)*%
X143200000Y-80985000D03*
D10*
%TO.P,R17,2*%
%TO.N,AINR-*%
X143200000Y-86065000D03*
%TD*%
D13*
%TO.P,R16,2*%
%TO.N,VQ*%
X138000000Y-124650000D03*
D12*
%TO.P,R16,1*%
%TO.N,Net-(C6-Pad2)*%
X138000000Y-122110000D03*
%TD*%
D13*
%TO.P,R15,2*%
%TO.N,Net-(C5-Pad2)*%
X141400000Y-121660000D03*
D12*
%TO.P,R15,1*%
%TO.N,VQ*%
X141400000Y-124200000D03*
%TD*%
%TO.P,R14,1*%
%TO.N,VQ*%
X138000000Y-64055000D03*
D13*
%TO.P,R14,2*%
%TO.N,Net-(C4-Pad2)*%
X138000000Y-66595000D03*
%TD*%
D12*
%TO.P,R13,1*%
%TO.N,Net-(C3-Pad2)*%
X141456250Y-66145000D03*
D13*
%TO.P,R13,2*%
%TO.N,VQ*%
X141456250Y-63605000D03*
%TD*%
%TO.P,R12,2*%
%TO.N,GND*%
X135350000Y-123792500D03*
D12*
%TO.P,R12,1*%
%TO.N,J1_Audio*%
X132810000Y-123792500D03*
%TD*%
D13*
%TO.P,R11,2*%
%TO.N,GND*%
X144430000Y-123792500D03*
D12*
%TO.P,R11,1*%
%TO.N,Net-(C5-Pad1)*%
X146970000Y-123792500D03*
%TD*%
%TO.P,R10,1*%
%TO.N,J2_Audio*%
X132855000Y-65000000D03*
D13*
%TO.P,R10,2*%
%TO.N,GND*%
X135395000Y-65000000D03*
%TD*%
D12*
%TO.P,R8,1*%
%TO.N,SDA2*%
X92900000Y-84445000D03*
D13*
%TO.P,R8,2*%
%TO.N,+5V*%
X92900000Y-81905000D03*
%TD*%
D12*
%TO.P,R7,1*%
%TO.N,SCL2*%
X96000000Y-84445000D03*
D13*
%TO.P,R7,2*%
%TO.N,+5V*%
X96000000Y-81905000D03*
%TD*%
D12*
%TO.P,R6,1*%
%TO.N,SCL1*%
X92700000Y-98055000D03*
D13*
%TO.P,R6,2*%
%TO.N,+5V*%
X92700000Y-100595000D03*
%TD*%
D12*
%TO.P,R5,1*%
%TO.N,SDA1*%
X95750000Y-103000000D03*
D13*
%TO.P,R5,2*%
%TO.N,+5V*%
X95750000Y-100460000D03*
%TD*%
D12*
%TO.P,R4,1*%
%TO.N,+5V*%
X114900000Y-112755000D03*
D13*
%TO.P,R4,2*%
%TO.N,A4*%
X114900000Y-115295000D03*
%TD*%
D12*
%TO.P,R3,1*%
%TO.N,+5V*%
X118095000Y-101200000D03*
D13*
%TO.P,R3,2*%
%TO.N,A5*%
X120635000Y-101200000D03*
%TD*%
D12*
%TO.P,R2,1*%
%TO.N,+5V*%
X111700000Y-112755000D03*
D13*
%TO.P,R2,2*%
%TO.N,A1*%
X111700000Y-115295000D03*
%TD*%
D12*
%TO.P,R1,1*%
%TO.N,+5V*%
X100955000Y-101200000D03*
D13*
%TO.P,R1,2*%
%TO.N,A0*%
X103495000Y-101200000D03*
%TD*%
D14*
%TO.P,U2,1,SDA*%
%TO.N,A4*%
X118100000Y-111500000D03*
D13*
%TO.P,U2,2,RXD-SDA*%
%TO.N,SDA2*%
X120640000Y-111500000D03*
%TO.P,U2,3,TXD-SDA*%
X123180000Y-111500000D03*
%TO.P,U2,4,GND*%
%TO.N,GND*%
X125720000Y-111500000D03*
%TO.P,U2,5,TXD-SCL*%
%TO.N,SCL2*%
X125720000Y-103880000D03*
%TO.P,U2,6,RXD-SCL*%
X123180000Y-103880000D03*
%TO.P,U2,7,SCL*%
%TO.N,A5*%
X120640000Y-103880000D03*
%TO.P,U2,8,VCC*%
%TO.N,+5V*%
X118100000Y-103880000D03*
%TD*%
D14*
%TO.P,U1,1,SDA*%
%TO.N,A1*%
X101000000Y-111500000D03*
D13*
%TO.P,U1,2,RXD-SDA*%
%TO.N,SDA1*%
X103540000Y-111500000D03*
%TO.P,U1,3,TXD-SDA*%
X106080000Y-111500000D03*
%TO.P,U1,4,GND*%
%TO.N,GND*%
X108620000Y-111500000D03*
%TO.P,U1,5,TXD-SCL*%
%TO.N,SCL1*%
X108620000Y-103880000D03*
%TO.P,U1,6,RXD-SCL*%
X106080000Y-103880000D03*
%TO.P,U1,7,SCL*%
%TO.N,A0*%
X103540000Y-103880000D03*
%TO.P,U1,8,VCC*%
%TO.N,+5V*%
X101000000Y-103880000D03*
%TD*%
D12*
%TO.P,C5,2*%
%TO.N,Net-(C5-Pad2)*%
X143315000Y-117950000D03*
D14*
%TO.P,C5,1*%
%TO.N,Net-(C5-Pad1)*%
X148315000Y-117950000D03*
%TD*%
D15*
%TO.P,J2,1*%
%TO.N,unconnected-(J2-Pad1)*%
X82625000Y-88950000D03*
D16*
%TO.P,J2,2*%
%TO.N,D9*%
X84405000Y-87934000D03*
%TO.P,J2,3*%
%TO.N,GND*%
X82625000Y-86918000D03*
%TO.P,J2,4*%
%TO.N,SDA2*%
X84405000Y-85902000D03*
%TO.P,J2,5*%
%TO.N,SCL2*%
X82625000Y-84886000D03*
%TO.P,J2,6*%
%TO.N,+5V*%
X84405000Y-83870000D03*
%TO.P,J2,7*%
%TO.N,J2_Audio*%
X82625000Y-82854000D03*
%TO.P,J2,8*%
%TO.N,unconnected-(J2-Pad8)*%
X84405000Y-81838000D03*
%TO.P,J2,9*%
%TO.N,N/C*%
X89225000Y-92250000D03*
%TO.P,J2,10*%
X89225000Y-89960000D03*
%TO.P,J2,11*%
X89225000Y-80820000D03*
%TO.P,J2,12*%
X89225000Y-78530000D03*
D17*
%TO.P,J2,SH*%
X83515000Y-93520000D03*
X83515000Y-77260000D03*
%TD*%
D18*
%TO.P,J4,1,Pin_1*%
%TO.N,/A5B*%
X121844000Y-118260000D03*
D19*
%TO.P,J4,2,Pin_2*%
%TO.N,A5*%
X121844000Y-120800000D03*
%TO.P,J4,3,Pin_3*%
%TO.N,/A4B*%
X119304000Y-118260000D03*
%TO.P,J4,4,Pin_4*%
%TO.N,A4*%
X119304000Y-120800000D03*
%TO.P,J4,5,Pin_5*%
%TO.N,/A3B*%
X116764000Y-118260000D03*
%TO.P,J4,6,Pin_6*%
%TO.N,/A3*%
X116764000Y-120800000D03*
%TO.P,J4,7,Pin_7*%
%TO.N,/A2B*%
X114224000Y-118260000D03*
%TO.P,J4,8,Pin_8*%
%TO.N,/A2*%
X114224000Y-120800000D03*
%TO.P,J4,9,Pin_9*%
%TO.N,/A1B*%
X111684000Y-118260000D03*
%TO.P,J4,10,Pin_10*%
%TO.N,A1*%
X111684000Y-120800000D03*
%TO.P,J4,11,Pin_11*%
%TO.N,/A0B*%
X109144000Y-118260000D03*
%TO.P,J4,12,Pin_12*%
%TO.N,A0*%
X109144000Y-120800000D03*
%TD*%
D12*
%TO.P,C1,1*%
%TO.N,+5V*%
X114920000Y-106500000D03*
%TO.P,C1,2*%
%TO.N,GND*%
X114920000Y-109000000D03*
%TD*%
D18*
%TO.P,J5,1,Pin_1*%
%TO.N,D8*%
X100000000Y-70000000D03*
D19*
%TO.P,J5,2,Pin_2*%
%TO.N,/AD8*%
X100000000Y-72540000D03*
%TO.P,J5,3,Pin_3*%
%TO.N,D9*%
X97460000Y-70000000D03*
%TO.P,J5,4,Pin_4*%
%TO.N,/AD9*%
X97460000Y-72540000D03*
%TO.P,J5,5,Pin_5*%
%TO.N,/D10*%
X94920000Y-70000000D03*
%TO.P,J5,6,Pin_6*%
%TO.N,/AD10*%
X94920000Y-72540000D03*
%TO.P,J5,7,Pin_7*%
%TO.N,/D11*%
X92380000Y-70000000D03*
%TO.P,J5,8,Pin_8*%
%TO.N,/AD11*%
X92380000Y-72540000D03*
%TO.P,J5,9,Pin_9*%
%TO.N,/D12*%
X89840000Y-70000000D03*
%TO.P,J5,10,Pin_10*%
%TO.N,/AD12*%
X89840000Y-72540000D03*
%TO.P,J5,11,Pin_11*%
%TO.N,/D13*%
X87300000Y-70000000D03*
%TO.P,J5,12,Pin_12*%
%TO.N,/AD13*%
X87300000Y-72540000D03*
%TO.P,J5,13,Pin_13*%
%TO.N,unconnected-(J5-Pad13)*%
X84760000Y-70000000D03*
%TO.P,J5,14,Pin_14*%
%TO.N,/AD14*%
X84760000Y-72540000D03*
%TO.P,J5,15,Pin_15*%
%TO.N,/AREF*%
X82220000Y-70000000D03*
%TO.P,J5,16,Pin_16*%
%TO.N,unconnected-(J5-Pad16)*%
X82220000Y-72540000D03*
%TO.P,J5,17,Pin_17*%
%TO.N,/D14*%
X79680000Y-70000000D03*
%TO.P,J5,18,Pin_18*%
%TO.N,/AD16*%
X79680000Y-72540000D03*
%TO.P,J5,19,Pin_19*%
%TO.N,/D15*%
X77140000Y-70000000D03*
%TO.P,J5,20,Pin_20*%
%TO.N,/AD17*%
X77140000Y-72540000D03*
%TD*%
D15*
%TO.P,J1,1*%
%TO.N,unconnected-(J1-Pad1)*%
X82625000Y-109560000D03*
D16*
%TO.P,J1,2*%
%TO.N,D8*%
X84405000Y-108544000D03*
%TO.P,J1,3*%
%TO.N,GND*%
X82625000Y-107528000D03*
%TO.P,J1,4*%
%TO.N,SDA1*%
X84405000Y-106512000D03*
%TO.P,J1,5*%
%TO.N,SCL1*%
X82625000Y-105496000D03*
%TO.P,J1,6*%
%TO.N,+5V*%
X84405000Y-104480000D03*
%TO.P,J1,7*%
%TO.N,J1_Audio*%
X82625000Y-103464000D03*
%TO.P,J1,8*%
%TO.N,unconnected-(J1-Pad8)*%
X84405000Y-102448000D03*
%TO.P,J1,9*%
%TO.N,N/C*%
X89225000Y-112860000D03*
%TO.P,J1,10*%
X89225000Y-110570000D03*
%TO.P,J1,11*%
X89225000Y-101430000D03*
%TO.P,J1,12*%
X89225000Y-99140000D03*
D17*
%TO.P,J1,SH*%
X83515000Y-97870000D03*
X83515000Y-114130000D03*
%TD*%
D12*
%TO.P,C2,1*%
%TO.N,+5V*%
X97520000Y-106534000D03*
%TO.P,C2,2*%
%TO.N,GND*%
X97520000Y-109034000D03*
%TD*%
D18*
%TO.P,J6,1,Pin_1*%
%TO.N,/D0*%
X121875000Y-70000000D03*
D19*
%TO.P,J6,2,Pin_2*%
%TO.N,/D0B*%
X121844000Y-72540000D03*
%TO.P,J6,3,Pin_3*%
%TO.N,/D1*%
X119304000Y-70000000D03*
%TO.P,J6,4,Pin_4*%
%TO.N,/D1B*%
X119304000Y-72540000D03*
%TO.P,J6,5,Pin_5*%
%TO.N,/D2*%
X116764000Y-70000000D03*
%TO.P,J6,6,Pin_6*%
%TO.N,/D2B*%
X116764000Y-72540000D03*
%TO.P,J6,7,Pin_7*%
%TO.N,/D3*%
X114224000Y-70000000D03*
%TO.P,J6,8,Pin_8*%
%TO.N,/D3B*%
X114224000Y-72540000D03*
%TO.P,J6,9,Pin_9*%
%TO.N,/D4*%
X111684000Y-70000000D03*
%TO.P,J6,10,Pin_10*%
%TO.N,D4B*%
X111684000Y-72540000D03*
%TO.P,J6,11,Pin_11*%
%TO.N,D5*%
X109144000Y-70000000D03*
%TO.P,J6,12,Pin_12*%
%TO.N,/D5B*%
X109144000Y-72540000D03*
%TO.P,J6,13,Pin_13*%
%TO.N,/D6*%
X106604000Y-70000000D03*
%TO.P,J6,14,Pin_14*%
%TO.N,D6B*%
X106604000Y-72540000D03*
%TO.P,J6,15,Pin_15*%
%TO.N,/D7*%
X104064000Y-70000000D03*
%TO.P,J6,16,Pin_16*%
%TO.N,D7B*%
X104064000Y-72540000D03*
%TD*%
D14*
%TO.P,C6,1*%
%TO.N,J1_Audio*%
X131315000Y-117950000D03*
D12*
%TO.P,C6,2*%
%TO.N,Net-(C6-Pad2)*%
X136315000Y-117950000D03*
%TD*%
D14*
%TO.P,C11,1*%
%TO.N,AINR-*%
X141060226Y-90768974D03*
D12*
%TO.P,C11,2*%
%TO.N,AINR+*%
X138560226Y-90768974D03*
%TD*%
D14*
%TO.P,C12,1*%
%TO.N,AINL+*%
X138474440Y-98000000D03*
D12*
%TO.P,C12,2*%
%TO.N,AINL-*%
X140974440Y-98000000D03*
%TD*%
D14*
%TO.P,C4,1*%
%TO.N,J2_Audio*%
X131406250Y-70500000D03*
D12*
%TO.P,C4,2*%
%TO.N,Net-(C4-Pad2)*%
X136406250Y-70500000D03*
%TD*%
D14*
%TO.P,C3,1*%
%TO.N,Net-(C3-Pad1)*%
X148306250Y-70508750D03*
D12*
%TO.P,C3,2*%
%TO.N,Net-(C3-Pad2)*%
X143306250Y-70508750D03*
%TD*%
D18*
%TO.P,J3,1,Pin_1*%
%TO.N,/A6B*%
X104064000Y-118260000D03*
D19*
%TO.P,J3,2,Pin_2*%
%TO.N,unconnected-(J3-Pad2)*%
X104064000Y-120800000D03*
%TO.P,J3,3,Pin_3*%
%TO.N,/A7B*%
X101524000Y-118260000D03*
%TO.P,J3,4,Pin_4*%
%TO.N,GND*%
X101524000Y-120800000D03*
%TO.P,J3,5,Pin_5*%
%TO.N,/A8B*%
X98984000Y-118260000D03*
%TO.P,J3,6,Pin_6*%
%TO.N,unconnected-(J3-Pad6)*%
X98984000Y-120800000D03*
%TO.P,J3,7,Pin_7*%
%TO.N,/A9B*%
X96444000Y-118260000D03*
%TO.P,J3,8,Pin_8*%
%TO.N,+5V*%
X96444000Y-120800000D03*
%TO.P,J3,9,Pin_9*%
%TO.N,/A10B*%
X93904000Y-118260000D03*
%TO.P,J3,10,Pin_10*%
%TO.N,unconnected-(J3-Pad10)*%
X93904000Y-120800000D03*
%TO.P,J3,11,Pin_11*%
%TO.N,/A11B*%
X91364000Y-118260000D03*
%TO.P,J3,12,Pin_12*%
%TO.N,unconnected-(J3-Pad12)*%
X91364000Y-120800000D03*
%TO.P,J3,13,Pin_13*%
%TO.N,/A12B*%
X88824000Y-118260000D03*
%TO.P,J3,14,Pin_14*%
%TO.N,/P3V3*%
X88824000Y-120800000D03*
%TO.P,J3,15,Pin_15*%
%TO.N,/A13B*%
X86284000Y-118260000D03*
%TO.P,J3,16,Pin_16*%
%TO.N,unconnected-(J3-Pad16)*%
X86284000Y-120800000D03*
%TD*%
D20*
%TO.N,GND*%
X107500000Y-113900000D03*
X126200000Y-67824500D03*
%TO.N,+5V*%
X140900000Y-69300000D03*
%TO.N,D5*%
X139849440Y-111249440D03*
X139856250Y-78356250D03*
%TO.N,VQ*%
X127300000Y-68800000D03*
%TO.N,GND*%
X115400000Y-98200000D03*
X123350000Y-89800000D03*
%TO.N,+5V*%
X139450000Y-119312500D03*
X123300000Y-88000000D03*
%TD*%
D21*
%TO.N,GND*%
X127500000Y-109540000D02*
X127500000Y-99100000D01*
X125540000Y-111500000D02*
X127500000Y-109540000D01*
X127500000Y-99100000D02*
X126600000Y-98200000D01*
%TO.N,SCL1*%
X98500000Y-104159009D02*
X98500000Y-100200000D01*
X98500000Y-100200000D02*
X96355000Y-98055000D01*
X99749991Y-105409000D02*
X98500000Y-104159009D01*
X96355000Y-98055000D02*
X92700000Y-98055000D01*
X104551000Y-105409000D02*
X99749991Y-105409000D01*
X106080000Y-103880000D02*
X104551000Y-105409000D01*
%TO.N,GND*%
X108620000Y-112780000D02*
X108620000Y-111500000D01*
X107500000Y-113900000D02*
X108620000Y-112780000D01*
X135395000Y-62895000D02*
X135395000Y-65000000D01*
X126200000Y-65300000D02*
X128800000Y-62700000D01*
X128800000Y-62700000D02*
X135200000Y-62700000D01*
X126200000Y-67824500D02*
X126200000Y-65300000D01*
X135200000Y-62700000D02*
X135395000Y-62895000D01*
%TO.N,+5V*%
X151100000Y-79893491D02*
X151100000Y-107662500D01*
X140900000Y-69693491D02*
X151100000Y-79893491D01*
X140900000Y-69300000D02*
X140900000Y-69693491D01*
X151100000Y-107662500D02*
X139450000Y-119312500D01*
%TO.N,Net-(C3-Pad2)*%
X143306250Y-67995000D02*
X141456250Y-66145000D01*
X143306250Y-70508750D02*
X143306250Y-67995000D01*
%TO.N,Net-(C4-Pad2)*%
X136406250Y-68188750D02*
X138000000Y-66595000D01*
X136406250Y-70500000D02*
X136406250Y-68188750D01*
%TO.N,D5*%
X139812500Y-78400000D02*
X139856250Y-78356250D01*
X135400000Y-78400000D02*
X139812500Y-78400000D01*
X124700000Y-67700000D02*
X135400000Y-78400000D01*
X111444000Y-67700000D02*
X124700000Y-67700000D01*
X109144000Y-70000000D02*
X111444000Y-67700000D01*
X139849440Y-78363060D02*
X139849440Y-111249440D01*
X139856250Y-78356250D02*
X139849440Y-78363060D01*
%TO.N,SCL2*%
X96000000Y-88200000D02*
X96000000Y-84445000D01*
X106725000Y-98925000D02*
X96000000Y-88200000D01*
X123000000Y-101974009D02*
X119950991Y-98925000D01*
X119950991Y-98925000D02*
X106725000Y-98925000D01*
X123000000Y-103880000D02*
X123000000Y-101974009D01*
%TO.N,VQ*%
X133255000Y-68800000D02*
X138000000Y-64055000D01*
X127300000Y-68800000D02*
X133255000Y-68800000D01*
%TO.N,J1_Audio*%
X79099429Y-103464000D02*
X82625000Y-103464000D01*
X76800000Y-123600000D02*
X76800000Y-105763429D01*
X76992500Y-123792500D02*
X76800000Y-123600000D01*
X76800000Y-105763429D02*
X79099429Y-103464000D01*
X132810000Y-123792500D02*
X76992500Y-123792500D01*
%TO.N,A4*%
X116539000Y-115495000D02*
X117920000Y-114114000D01*
X117920000Y-114114000D02*
X117920000Y-111500000D01*
X116539000Y-115495000D02*
X114900000Y-115495000D01*
X118129000Y-117085000D02*
X116539000Y-115495000D01*
%TO.N,SDA1*%
X103540000Y-111500000D02*
X103540000Y-110790000D01*
X103540000Y-110790000D02*
X95750000Y-103000000D01*
%TO.N,SCL1*%
X108620000Y-103880000D02*
X106080000Y-103880000D01*
%TO.N,SCL2*%
X89984720Y-83100000D02*
X94655000Y-83100000D01*
X94655000Y-83100000D02*
X96000000Y-84445000D01*
X87647720Y-80763000D02*
X89984720Y-83100000D01*
X82537000Y-80763000D02*
X87647720Y-80763000D01*
X81100000Y-82200000D02*
X82537000Y-80763000D01*
X81100000Y-83361000D02*
X81100000Y-82200000D01*
X82625000Y-84886000D02*
X81100000Y-83361000D01*
%TO.N,SDA2*%
X92900000Y-86900000D02*
X92900000Y-84445000D01*
X86502000Y-85902000D02*
X84405000Y-85902000D01*
X87500000Y-86900000D02*
X86502000Y-85902000D01*
X92900000Y-86900000D02*
X87500000Y-86900000D01*
X108755000Y-102755000D02*
X92900000Y-86900000D01*
X109085991Y-102755000D02*
X108755000Y-102755000D01*
X109745000Y-103414009D02*
X109085991Y-102755000D01*
X109745000Y-103745000D02*
X109745000Y-103414009D01*
X116045000Y-106034009D02*
X115385991Y-105375000D01*
X116045000Y-106965991D02*
X116045000Y-106034009D01*
X115985495Y-107025495D02*
X116045000Y-106965991D01*
X120460000Y-111500000D02*
X115985495Y-107025495D01*
X115385991Y-105375000D02*
X111375000Y-105375000D01*
X111375000Y-105375000D02*
X109745000Y-103745000D01*
%TO.N,+5V*%
X123300000Y-84900000D02*
X123300000Y-88000000D01*
X116000000Y-77600000D02*
X123300000Y-84900000D01*
X110704009Y-79100000D02*
X112204009Y-77600000D01*
X107050000Y-79100000D02*
X110704009Y-79100000D01*
X96288604Y-78575000D02*
X106525000Y-78575000D01*
X106525000Y-78575000D02*
X107050000Y-79100000D01*
X92750000Y-82113604D02*
X96288604Y-78575000D01*
X112204009Y-77600000D02*
X116000000Y-77600000D01*
%TO.N,VQ*%
X138450000Y-63605000D02*
X138000000Y-64055000D01*
X141456250Y-63605000D02*
X138450000Y-63605000D01*
%TO.N,+5V*%
X133952931Y-121200000D02*
X134797931Y-120355000D01*
X124500000Y-121200000D02*
X133952931Y-121200000D01*
X134797931Y-120355000D02*
X138407500Y-120355000D01*
X123300000Y-122400000D02*
X124500000Y-121200000D01*
X98500000Y-122400000D02*
X123300000Y-122400000D01*
X96900000Y-120800000D02*
X98500000Y-122400000D01*
X96444000Y-120800000D02*
X96900000Y-120800000D01*
X138407500Y-120355000D02*
X139450000Y-119312500D01*
%TO.N,VQ*%
X138450000Y-124200000D02*
X138000000Y-124650000D01*
X141400000Y-124200000D02*
X138450000Y-124200000D01*
%TO.N,GND*%
X115400000Y-98200000D02*
X126600000Y-98200000D01*
X81550000Y-110635000D02*
X87615000Y-110635000D01*
X123350000Y-89800000D02*
X126665000Y-93115000D01*
X126665000Y-93115000D02*
X126665000Y-98135000D01*
X89216000Y-109034000D02*
X97520000Y-109034000D01*
X126600000Y-98200000D02*
X126665000Y-98135000D01*
X81550000Y-108603000D02*
X81550000Y-110635000D01*
X82625000Y-107528000D02*
X81550000Y-108603000D01*
X87615000Y-110635000D02*
X89216000Y-109034000D01*
%TO.N,A4*%
X118129000Y-119625000D02*
X119304000Y-120800000D01*
X117400000Y-111500000D02*
X117920000Y-111500000D01*
X118129000Y-117085000D02*
X118129000Y-119625000D01*
%TO.N,A1*%
X110319000Y-119435000D02*
X111684000Y-120800000D01*
X110319000Y-116449000D02*
X110319000Y-119435000D01*
X111684000Y-115084000D02*
X111500000Y-114900000D01*
X111684000Y-115084000D02*
X110319000Y-116449000D01*
X111500000Y-114900000D02*
X104400000Y-114900000D01*
X104400000Y-114900000D02*
X101000000Y-111500000D01*
%TO.N,SDA1*%
X95750000Y-103000000D02*
X92238000Y-106512000D01*
X92238000Y-106512000D02*
X84405000Y-106512000D01*
%TO.N,D9*%
X80500000Y-88975000D02*
X80500000Y-82000000D01*
X84405000Y-89320000D02*
X83700000Y-90025000D01*
X83700000Y-90025000D02*
X81550000Y-90025000D01*
X82895000Y-79605000D02*
X90395000Y-79605000D01*
X96285000Y-71175000D02*
X97460000Y-70000000D01*
X84405000Y-87934000D02*
X84405000Y-89320000D01*
X90395000Y-79605000D02*
X96285000Y-73715000D01*
X80500000Y-82000000D02*
X82895000Y-79605000D01*
X81550000Y-90025000D02*
X80500000Y-88975000D01*
X96285000Y-73715000D02*
X96285000Y-71175000D01*
%TD*%
M02*
