%TF.GenerationSoftware,KiCad,Pcbnew,(6.0.10)*%
%TF.CreationDate,2023-02-24T01:37:01-05:00*%
%TF.ProjectId,shield,73686965-6c64-42e6-9b69-6361645f7063,rev?*%
%TF.SameCoordinates,Original*%
%TF.FileFunction,Soldermask,Bot*%
%TF.FilePolarity,Negative*%
%FSLAX46Y46*%
G04 Gerber Fmt 4.6, Leading zero omitted, Abs format (unit mm)*
G04 Created by KiCad (PCBNEW (6.0.10)) date 2023-02-24 01:37:01*
%MOMM*%
%LPD*%
G01*
G04 APERTURE LIST*
%ADD10O,2.400000X2.400000*%
%ADD11C,2.400000*%
%ADD12C,1.600000*%
%ADD13O,1.600000X1.600000*%
%ADD14R,1.600000X1.600000*%
%ADD15C,3.250000*%
%ADD16R,1.500000X1.500000*%
%ADD17C,1.500000*%
%ADD18C,2.300000*%
%ADD19R,1.700000X1.700000*%
%ADD20O,1.700000X1.700000*%
G04 APERTURE END LIST*
D10*
%TO.C,R20*%
X137100000Y-102535000D03*
D11*
X137100000Y-107615000D03*
%TD*%
%TO.C,R18*%
X136500000Y-80985000D03*
D10*
X136500000Y-86065000D03*
%TD*%
D12*
%TO.C,R9*%
X146640000Y-65000000D03*
D13*
X144100000Y-65000000D03*
%TD*%
D12*
%TO.C,R25*%
X109755000Y-79100000D03*
D13*
X112295000Y-79100000D03*
%TD*%
D10*
%TO.C,R19*%
X142400000Y-102535000D03*
D11*
X142400000Y-107615000D03*
%TD*%
%TO.C,R17*%
X143200000Y-80985000D03*
D10*
X143200000Y-86065000D03*
%TD*%
D13*
%TO.C,R16*%
X138000000Y-124650000D03*
D12*
X138000000Y-122110000D03*
%TD*%
D13*
%TO.C,R15*%
X141400000Y-121660000D03*
D12*
X141400000Y-124200000D03*
%TD*%
%TO.C,R14*%
X138000000Y-64055000D03*
D13*
X138000000Y-66595000D03*
%TD*%
D12*
%TO.C,R13*%
X141456250Y-66145000D03*
D13*
X141456250Y-63605000D03*
%TD*%
%TO.C,R12*%
X135350000Y-123792500D03*
D12*
X132810000Y-123792500D03*
%TD*%
D13*
%TO.C,R11*%
X144430000Y-123792500D03*
D12*
X146970000Y-123792500D03*
%TD*%
%TO.C,R10*%
X132855000Y-65000000D03*
D13*
X135395000Y-65000000D03*
%TD*%
D12*
%TO.C,R8*%
X92900000Y-84445000D03*
D13*
X92900000Y-81905000D03*
%TD*%
D12*
%TO.C,R7*%
X96000000Y-84445000D03*
D13*
X96000000Y-81905000D03*
%TD*%
D12*
%TO.C,R6*%
X92700000Y-98055000D03*
D13*
X92700000Y-100595000D03*
%TD*%
D12*
%TO.C,R5*%
X95750000Y-103000000D03*
D13*
X95750000Y-100460000D03*
%TD*%
D12*
%TO.C,R4*%
X114900000Y-112755000D03*
D13*
X114900000Y-115295000D03*
%TD*%
D12*
%TO.C,R3*%
X118095000Y-101200000D03*
D13*
X120635000Y-101200000D03*
%TD*%
D12*
%TO.C,R2*%
X111700000Y-112755000D03*
D13*
X111700000Y-115295000D03*
%TD*%
D12*
%TO.C,R1*%
X100955000Y-101200000D03*
D13*
X103495000Y-101200000D03*
%TD*%
D14*
%TO.C,U2*%
X118100000Y-111500000D03*
D13*
X120640000Y-111500000D03*
X123180000Y-111500000D03*
X125720000Y-111500000D03*
X125720000Y-103880000D03*
X123180000Y-103880000D03*
X120640000Y-103880000D03*
X118100000Y-103880000D03*
%TD*%
D14*
%TO.C,U1*%
X101000000Y-111500000D03*
D13*
X103540000Y-111500000D03*
X106080000Y-111500000D03*
X108620000Y-111500000D03*
X108620000Y-103880000D03*
X106080000Y-103880000D03*
X103540000Y-103880000D03*
X101000000Y-103880000D03*
%TD*%
D12*
%TO.C,C5*%
X143315000Y-117950000D03*
D14*
X148315000Y-117950000D03*
%TD*%
D15*
%TO.C,J2*%
X80085000Y-91740000D03*
X80085000Y-79040000D03*
D16*
X82625000Y-88950000D03*
D17*
X84405000Y-87934000D03*
X82625000Y-86918000D03*
X84405000Y-85902000D03*
X82625000Y-84886000D03*
X84405000Y-83870000D03*
X82625000Y-82854000D03*
X84405000Y-81838000D03*
X89225000Y-92250000D03*
X89225000Y-89960000D03*
X89225000Y-80820000D03*
X89225000Y-78530000D03*
D18*
X83515000Y-93520000D03*
X83515000Y-77260000D03*
%TD*%
D19*
%TO.C,J4*%
X121844000Y-118260000D03*
D20*
X121844000Y-120800000D03*
X119304000Y-118260000D03*
X119304000Y-120800000D03*
X116764000Y-118260000D03*
X116764000Y-120800000D03*
X114224000Y-118260000D03*
X114224000Y-120800000D03*
X111684000Y-118260000D03*
X111684000Y-120800000D03*
X109144000Y-118260000D03*
X109144000Y-120800000D03*
%TD*%
D12*
%TO.C,C1*%
X114920000Y-106500000D03*
X114920000Y-109000000D03*
%TD*%
D19*
%TO.C,J5*%
X100000000Y-70000000D03*
D20*
X100000000Y-72540000D03*
X97460000Y-70000000D03*
X97460000Y-72540000D03*
X94920000Y-70000000D03*
X94920000Y-72540000D03*
X92380000Y-70000000D03*
X92380000Y-72540000D03*
X89840000Y-70000000D03*
X89840000Y-72540000D03*
X87300000Y-70000000D03*
X87300000Y-72540000D03*
X84760000Y-70000000D03*
X84760000Y-72540000D03*
X82220000Y-70000000D03*
X82220000Y-72540000D03*
X79680000Y-70000000D03*
X79680000Y-72540000D03*
X77140000Y-70000000D03*
X77140000Y-72540000D03*
%TD*%
D15*
%TO.C,J1*%
X80085000Y-112350000D03*
X80085000Y-99650000D03*
D16*
X82625000Y-109560000D03*
D17*
X84405000Y-108544000D03*
X82625000Y-107528000D03*
X84405000Y-106512000D03*
X82625000Y-105496000D03*
X84405000Y-104480000D03*
X82625000Y-103464000D03*
X84405000Y-102448000D03*
X89225000Y-112860000D03*
X89225000Y-110570000D03*
X89225000Y-101430000D03*
X89225000Y-99140000D03*
D18*
X83515000Y-97870000D03*
X83515000Y-114130000D03*
%TD*%
D12*
%TO.C,C2*%
X97520000Y-106534000D03*
X97520000Y-109034000D03*
%TD*%
D19*
%TO.C,J6*%
X121875000Y-70000000D03*
D20*
X121844000Y-72540000D03*
X119304000Y-70000000D03*
X119304000Y-72540000D03*
X116764000Y-70000000D03*
X116764000Y-72540000D03*
X114224000Y-70000000D03*
X114224000Y-72540000D03*
X111684000Y-70000000D03*
X111684000Y-72540000D03*
X109144000Y-70000000D03*
X109144000Y-72540000D03*
X106604000Y-70000000D03*
X106604000Y-72540000D03*
X104064000Y-70000000D03*
X104064000Y-72540000D03*
%TD*%
D14*
%TO.C,C6*%
X131315000Y-117950000D03*
D12*
X136315000Y-117950000D03*
%TD*%
D14*
%TO.C,C11*%
X141060226Y-90768974D03*
D12*
X138560226Y-90768974D03*
%TD*%
D14*
%TO.C,C12*%
X138474440Y-98000000D03*
D12*
X140974440Y-98000000D03*
%TD*%
D14*
%TO.C,C4*%
X131406250Y-70500000D03*
D12*
X136406250Y-70500000D03*
%TD*%
D14*
%TO.C,C3*%
X148306250Y-70508750D03*
D12*
X143306250Y-70508750D03*
%TD*%
D19*
%TO.C,J3*%
X104064000Y-118260000D03*
D20*
X104064000Y-120800000D03*
X101524000Y-118260000D03*
X101524000Y-120800000D03*
X98984000Y-118260000D03*
X98984000Y-120800000D03*
X96444000Y-118260000D03*
X96444000Y-120800000D03*
X93904000Y-118260000D03*
X93904000Y-120800000D03*
X91364000Y-118260000D03*
X91364000Y-120800000D03*
X88824000Y-118260000D03*
X88824000Y-120800000D03*
X86284000Y-118260000D03*
X86284000Y-120800000D03*
%TD*%
M02*
