%TF.GenerationSoftware,KiCad,Pcbnew,(6.0.10-0)*%
%TF.CreationDate,2023-03-08T10:25:28-05:00*%
%TF.ProjectId,shield,73686965-6c64-42e6-9b69-6361645f7063,rev?*%
%TF.SameCoordinates,Original*%
%TF.FileFunction,Copper,L1,Top*%
%TF.FilePolarity,Positive*%
%FSLAX46Y46*%
G04 Gerber Fmt 4.6, Leading zero omitted, Abs format (unit mm)*
G04 Created by KiCad (PCBNEW (6.0.10-0)) date 2023-03-08 10:25:28*
%MOMM*%
%LPD*%
G01*
G04 APERTURE LIST*
G04 Aperture macros list*
%AMRoundRect*
0 Rectangle with rounded corners*
0 $1 Rounding radius*
0 $2 $3 $4 $5 $6 $7 $8 $9 X,Y pos of 4 corners*
0 Add a 4 corners polygon primitive as box body*
4,1,4,$2,$3,$4,$5,$6,$7,$8,$9,$2,$3,0*
0 Add four circle primitives for the rounded corners*
1,1,$1+$1,$2,$3*
1,1,$1+$1,$4,$5*
1,1,$1+$1,$6,$7*
1,1,$1+$1,$8,$9*
0 Add four rect primitives between the rounded corners*
20,1,$1+$1,$2,$3,$4,$5,0*
20,1,$1+$1,$4,$5,$6,$7,0*
20,1,$1+$1,$6,$7,$8,$9,0*
20,1,$1+$1,$8,$9,$2,$3,0*%
G04 Aperture macros list end*
%TA.AperFunction,ComponentPad*%
%ADD10R,1.600000X1.600000*%
%TD*%
%TA.AperFunction,ComponentPad*%
%ADD11O,1.600000X1.600000*%
%TD*%
%TA.AperFunction,ComponentPad*%
%ADD12C,1.600000*%
%TD*%
%TA.AperFunction,SMDPad,CuDef*%
%ADD13RoundRect,0.250000X0.400000X0.625000X-0.400000X0.625000X-0.400000X-0.625000X0.400000X-0.625000X0*%
%TD*%
%TA.AperFunction,SMDPad,CuDef*%
%ADD14R,0.280000X0.280000*%
%TD*%
%TA.AperFunction,SMDPad,CuDef*%
%ADD15O,0.280000X0.850000*%
%TD*%
%TA.AperFunction,SMDPad,CuDef*%
%ADD16R,1.050000X0.680000*%
%TD*%
%TA.AperFunction,SMDPad,CuDef*%
%ADD17R,0.700000X0.280000*%
%TD*%
%TA.AperFunction,SMDPad,CuDef*%
%ADD18R,0.500000X0.260000*%
%TD*%
%TA.AperFunction,SMDPad,CuDef*%
%ADD19R,2.400000X1.650000*%
%TD*%
%TA.AperFunction,SMDPad,CuDef*%
%ADD20RoundRect,0.155000X0.155000X-0.212500X0.155000X0.212500X-0.155000X0.212500X-0.155000X-0.212500X0*%
%TD*%
%TA.AperFunction,SMDPad,CuDef*%
%ADD21RoundRect,0.250000X0.537500X1.450000X-0.537500X1.450000X-0.537500X-1.450000X0.537500X-1.450000X0*%
%TD*%
%TA.AperFunction,ComponentPad*%
%ADD22C,2.400000*%
%TD*%
%TA.AperFunction,ComponentPad*%
%ADD23O,2.400000X2.400000*%
%TD*%
%TA.AperFunction,SMDPad,CuDef*%
%ADD24R,1.750000X0.500000*%
%TD*%
%TA.AperFunction,SMDPad,CuDef*%
%ADD25R,1.600000X0.515000*%
%TD*%
%TA.AperFunction,SMDPad,CuDef*%
%ADD26R,1.600000X0.500000*%
%TD*%
%TA.AperFunction,ComponentPad*%
%ADD27R,1.500000X1.500000*%
%TD*%
%TA.AperFunction,ComponentPad*%
%ADD28C,1.500000*%
%TD*%
%TA.AperFunction,ComponentPad*%
%ADD29C,2.300000*%
%TD*%
%TA.AperFunction,SMDPad,CuDef*%
%ADD30RoundRect,0.155000X-0.155000X0.212500X-0.155000X-0.212500X0.155000X-0.212500X0.155000X0.212500X0*%
%TD*%
%TA.AperFunction,SMDPad,CuDef*%
%ADD31RoundRect,0.250000X-0.537500X-1.450000X0.537500X-1.450000X0.537500X1.450000X-0.537500X1.450000X0*%
%TD*%
%TA.AperFunction,ComponentPad*%
%ADD32R,1.700000X1.700000*%
%TD*%
%TA.AperFunction,ComponentPad*%
%ADD33O,1.700000X1.700000*%
%TD*%
%TA.AperFunction,SMDPad,CuDef*%
%ADD34RoundRect,0.250000X-0.412500X-1.100000X0.412500X-1.100000X0.412500X1.100000X-0.412500X1.100000X0*%
%TD*%
%TA.AperFunction,SMDPad,CuDef*%
%ADD35RoundRect,0.237500X0.237500X-0.300000X0.237500X0.300000X-0.237500X0.300000X-0.237500X-0.300000X0*%
%TD*%
%TA.AperFunction,SMDPad,CuDef*%
%ADD36RoundRect,0.237500X-0.237500X0.300000X-0.237500X-0.300000X0.237500X-0.300000X0.237500X0.300000X0*%
%TD*%
%TA.AperFunction,SMDPad,CuDef*%
%ADD37RoundRect,0.250000X-0.400000X-0.625000X0.400000X-0.625000X0.400000X0.625000X-0.400000X0.625000X0*%
%TD*%
%TA.AperFunction,ViaPad*%
%ADD38C,0.800000*%
%TD*%
%TA.AperFunction,Conductor*%
%ADD39C,0.250000*%
%TD*%
%TA.AperFunction,Conductor*%
%ADD40C,0.200000*%
%TD*%
G04 APERTURE END LIST*
D10*
%TO.P,U2,1,SDA*%
%TO.N,A4*%
X118100000Y-111500000D03*
D11*
%TO.P,U2,2,RXD-SDA*%
%TO.N,SDA2*%
X120640000Y-111500000D03*
%TO.P,U2,3,TXD-SDA*%
X123180000Y-111500000D03*
%TO.P,U2,4,GND*%
%TO.N,GND*%
X125720000Y-111500000D03*
%TO.P,U2,5,TXD-SCL*%
%TO.N,SCL2*%
X125720000Y-103880000D03*
%TO.P,U2,6,RXD-SCL*%
X123180000Y-103880000D03*
%TO.P,U2,7,SCL*%
%TO.N,A5*%
X120640000Y-103880000D03*
%TO.P,U2,8,VCC*%
%TO.N,+5V*%
X118100000Y-103880000D03*
%TD*%
D12*
%TO.P,R16,1*%
%TO.N,Net-(C6-Pad2)*%
X138000000Y-122110000D03*
D11*
%TO.P,R16,2*%
%TO.N,VQ*%
X138000000Y-124650000D03*
%TD*%
D10*
%TO.P,U1,1,SDA*%
%TO.N,A1*%
X101000000Y-111500000D03*
D11*
%TO.P,U1,2,RXD-SDA*%
%TO.N,SDA1*%
X103540000Y-111500000D03*
%TO.P,U1,3,TXD-SDA*%
X106080000Y-111500000D03*
%TO.P,U1,4,GND*%
%TO.N,GND*%
X108620000Y-111500000D03*
%TO.P,U1,5,TXD-SCL*%
%TO.N,SCL1*%
X108620000Y-103880000D03*
%TO.P,U1,6,RXD-SCL*%
X106080000Y-103880000D03*
%TO.P,U1,7,SCL*%
%TO.N,A0*%
X103540000Y-103880000D03*
%TO.P,U1,8,VCC*%
%TO.N,+5V*%
X101000000Y-103880000D03*
%TD*%
D13*
%TO.P,R22,1*%
%TO.N,Net-(C8-Pad2)*%
X132950000Y-79600000D03*
%TO.P,R22,2*%
%TO.N,AINR+*%
X129850000Y-79600000D03*
%TD*%
D10*
%TO.P,C5,1*%
%TO.N,Net-(C5-Pad1)*%
X148315000Y-117950000D03*
D12*
%TO.P,C5,2*%
%TO.N,Net-(C5-Pad2)*%
X143315000Y-117950000D03*
%TD*%
D14*
%TO.P,U4,1,+INA*%
%TO.N,Net-(C6-Pad2)*%
X138900000Y-118210000D03*
D15*
X138900000Y-117925000D03*
D14*
%TO.P,U4,2,V+*%
%TO.N,+5V*%
X139400000Y-118210000D03*
D15*
X139400000Y-117925000D03*
%TO.P,U4,3,GND*%
%TO.N,GND*%
X139900000Y-117925000D03*
D14*
X139900000Y-118210000D03*
%TO.P,U4,4,V-*%
X140400000Y-118210000D03*
D15*
X140400000Y-117925000D03*
D14*
%TO.P,U4,5,+INB*%
%TO.N,Net-(C5-Pad2)*%
X140900000Y-118210000D03*
D15*
X140900000Y-117925000D03*
%TO.P,U4,6,-INB*%
%TO.N,Net-(C9-Pad2)*%
X140900000Y-114975000D03*
D14*
X140900000Y-114690000D03*
%TO.P,U4,7,OUTB*%
%TO.N,Net-(C9-Pad1)*%
X140400000Y-114690000D03*
D15*
X140400000Y-114975000D03*
D14*
%TO.P,U4,8,EN*%
%TO.N,D5*%
X139900000Y-114690000D03*
D15*
X139900000Y-114975000D03*
%TO.P,U4,9,OUTA*%
%TO.N,Net-(C10-Pad1)*%
X139400000Y-114975000D03*
D14*
X139400000Y-114690000D03*
%TO.P,U4,10,-INA*%
%TO.N,Net-(C10-Pad2)*%
X138900000Y-114690000D03*
D15*
X138900000Y-114975000D03*
D16*
%TO.P,U4,11*%
%TO.N,N/C*%
X140535000Y-116000000D03*
D17*
X141450000Y-116700000D03*
X141450000Y-116200000D03*
D16*
X139265000Y-116900000D03*
D18*
X141530000Y-116700000D03*
D16*
X140535000Y-116900000D03*
D18*
X138270000Y-116700000D03*
D17*
X138350000Y-116700000D03*
D19*
X139900000Y-116450000D03*
D16*
X139265000Y-116000000D03*
D18*
X141530000Y-116200000D03*
D17*
X138350000Y-116200000D03*
D18*
X138270000Y-116200000D03*
%TD*%
D20*
%TO.P,C18,1*%
%TO.N,GND*%
X118750000Y-89567500D03*
%TO.P,C18,2*%
%TO.N,+5V*%
X118750000Y-88432500D03*
%TD*%
D21*
%TO.P,C8,1*%
%TO.N,Net-(C8-Pad1)*%
X137437500Y-76400000D03*
%TO.P,C8,2*%
%TO.N,Net-(C8-Pad2)*%
X133162500Y-76400000D03*
%TD*%
D12*
%TO.P,R8,1*%
%TO.N,SDA2*%
X92900000Y-84445000D03*
D11*
%TO.P,R8,2*%
%TO.N,+5V*%
X92900000Y-81905000D03*
%TD*%
D21*
%TO.P,C10,1*%
%TO.N,Net-(C10-Pad1)*%
X138287500Y-112200000D03*
%TO.P,C10,2*%
%TO.N,Net-(C10-Pad2)*%
X134012500Y-112200000D03*
%TD*%
D12*
%TO.P,R14,1*%
%TO.N,VQ*%
X138000000Y-64055000D03*
D11*
%TO.P,R14,2*%
%TO.N,Net-(C4-Pad2)*%
X138000000Y-66595000D03*
%TD*%
D22*
%TO.P,R20,1*%
%TO.N,Net-(C10-Pad1)*%
X137100000Y-107615000D03*
D23*
%TO.P,R20,2*%
%TO.N,AINL+*%
X137100000Y-102535000D03*
%TD*%
D24*
%TO.P,U5,1,RST*%
%TO.N,D5*%
X106625000Y-82030000D03*
%TO.P,U5,2,M/S*%
%TO.N,+5V*%
X106625000Y-83300000D03*
%TO.P,U5,3,LRCK*%
%TO.N,D6B*%
X106625000Y-84570000D03*
%TO.P,U5,4,SCLK*%
%TO.N,D4B*%
X106625000Y-85840000D03*
%TO.P,U5,5,MCLK*%
%TO.N,/MCLK*%
X106625000Y-87110000D03*
%TO.P,U5,6,VD*%
%TO.N,/VD*%
X106625000Y-88380000D03*
%TO.P,U5,7,GND*%
%TO.N,GND*%
X106625000Y-89650000D03*
%TO.P,U5,8,VL*%
%TO.N,+5V*%
X106625000Y-90920000D03*
%TO.P,U5,9,SDOUT*%
%TO.N,D7B*%
X106625000Y-92190000D03*
%TO.P,U5,10,MDIV*%
%TO.N,GND*%
X106625000Y-93460000D03*
%TO.P,U5,11,HPF*%
X106625000Y-94730000D03*
%TO.P,U5,12,I2S/LJ*%
X106625000Y-96000000D03*
D25*
%TO.P,U5,13,M0*%
X115450000Y-95992500D03*
D26*
%TO.P,U5,14,M1*%
%TO.N,+5V*%
X115450000Y-94715000D03*
%TO.P,U5,15,OVFL*%
%TO.N,/OVFL*%
X115450000Y-93445000D03*
%TO.P,U5,16,AINL+*%
%TO.N,AINL+*%
X115450000Y-92175000D03*
%TO.P,U5,17,AINL-*%
%TO.N,AINL-*%
X115450000Y-90905000D03*
%TO.P,U5,18,GND*%
%TO.N,GND*%
X115450000Y-89635000D03*
%TO.P,U5,19,VA*%
%TO.N,+5V*%
X115450000Y-88365000D03*
%TO.P,U5,20,AINR-*%
%TO.N,AINR-*%
X115450000Y-87095000D03*
%TO.P,U5,21,AINR+*%
%TO.N,AINR+*%
X115450000Y-85825000D03*
%TO.P,U5,22,VQ*%
%TO.N,VQ*%
X115450000Y-84555000D03*
%TO.P,U5,23,REFGND*%
%TO.N,GND*%
X115450000Y-83285000D03*
%TO.P,U5,24,FILT+*%
%TO.N,Net-(C13-Pad1)*%
X115450000Y-82015000D03*
%TD*%
D27*
%TO.P,J2,1*%
%TO.N,unconnected-(J2-Pad1)*%
X82625000Y-90600000D03*
D28*
%TO.P,J2,2*%
%TO.N,D9*%
X84405000Y-89584000D03*
%TO.P,J2,3*%
%TO.N,GND*%
X82625000Y-88568000D03*
%TO.P,J2,4*%
%TO.N,SDA2*%
X84405000Y-87552000D03*
%TO.P,J2,5*%
%TO.N,SCL2*%
X82625000Y-86536000D03*
%TO.P,J2,6*%
%TO.N,+5V*%
X84405000Y-85520000D03*
%TO.P,J2,7*%
%TO.N,J2_Audio*%
X82625000Y-84504000D03*
%TO.P,J2,8*%
%TO.N,unconnected-(J2-Pad8)*%
X84405000Y-83488000D03*
%TO.P,J2,9*%
%TO.N,N/C*%
X89225000Y-93900000D03*
%TO.P,J2,10*%
X89225000Y-91610000D03*
%TO.P,J2,11*%
X89225000Y-82470000D03*
%TO.P,J2,12*%
X89225000Y-80180000D03*
D29*
%TO.P,J2,SH*%
X83515000Y-95170000D03*
X83515000Y-78910000D03*
%TD*%
D12*
%TO.P,R1,1*%
%TO.N,+5V*%
X100955000Y-101200000D03*
D11*
%TO.P,R1,2*%
%TO.N,A0*%
X103495000Y-101200000D03*
%TD*%
D12*
%TO.P,R13,1*%
%TO.N,Net-(C3-Pad2)*%
X141456250Y-66145000D03*
D11*
%TO.P,R13,2*%
%TO.N,VQ*%
X141456250Y-63605000D03*
%TD*%
D30*
%TO.P,C16,1*%
%TO.N,GND*%
X119150000Y-83282500D03*
%TO.P,C16,2*%
%TO.N,VQ*%
X119150000Y-84417500D03*
%TD*%
D31*
%TO.P,C7,1*%
%TO.N,Net-(C7-Pad1)*%
X142262500Y-76400000D03*
%TO.P,C7,2*%
%TO.N,Net-(C7-Pad2)*%
X146537500Y-76400000D03*
%TD*%
D32*
%TO.P,J4,1,Pin_1*%
%TO.N,/A5B*%
X121844000Y-118260000D03*
D33*
%TO.P,J4,2,Pin_2*%
%TO.N,A5*%
X121844000Y-120800000D03*
%TO.P,J4,3,Pin_3*%
%TO.N,/A4B*%
X119304000Y-118260000D03*
%TO.P,J4,4,Pin_4*%
%TO.N,A4*%
X119304000Y-120800000D03*
%TO.P,J4,5,Pin_5*%
%TO.N,/A3B*%
X116764000Y-118260000D03*
%TO.P,J4,6,Pin_6*%
%TO.N,/A3*%
X116764000Y-120800000D03*
%TO.P,J4,7,Pin_7*%
%TO.N,/A2B*%
X114224000Y-118260000D03*
%TO.P,J4,8,Pin_8*%
%TO.N,/A2*%
X114224000Y-120800000D03*
%TO.P,J4,9,Pin_9*%
%TO.N,/A1B*%
X111684000Y-118260000D03*
%TO.P,J4,10,Pin_10*%
%TO.N,A1*%
X111684000Y-120800000D03*
%TO.P,J4,11,Pin_11*%
%TO.N,/A0B*%
X109144000Y-118260000D03*
%TO.P,J4,12,Pin_12*%
%TO.N,A0*%
X109144000Y-120800000D03*
%TD*%
D12*
%TO.P,C1,1*%
%TO.N,+5V*%
X114920000Y-106500000D03*
%TO.P,C1,2*%
%TO.N,GND*%
X114920000Y-109000000D03*
%TD*%
D22*
%TO.P,R19,1*%
%TO.N,Net-(C9-Pad1)*%
X142400000Y-107615000D03*
D23*
%TO.P,R19,2*%
%TO.N,AINL-*%
X142400000Y-102535000D03*
%TD*%
D12*
%TO.P,R3,1*%
%TO.N,+5V*%
X118095000Y-101200000D03*
D11*
%TO.P,R3,2*%
%TO.N,A5*%
X120635000Y-101200000D03*
%TD*%
D31*
%TO.P,C9,1*%
%TO.N,Net-(C9-Pad1)*%
X141262500Y-112200000D03*
%TO.P,C9,2*%
%TO.N,Net-(C9-Pad2)*%
X145537500Y-112200000D03*
%TD*%
D34*
%TO.P,C13,1*%
%TO.N,Net-(C13-Pad1)*%
X120987500Y-79950000D03*
%TO.P,C13,2*%
%TO.N,GND*%
X124112500Y-79950000D03*
%TD*%
D13*
%TO.P,R24,1*%
%TO.N,Net-(C10-Pad2)*%
X133550000Y-109000000D03*
%TO.P,R24,2*%
%TO.N,AINL+*%
X130450000Y-109000000D03*
%TD*%
D30*
%TO.P,C19,1*%
%TO.N,/VD*%
X103950000Y-88432500D03*
%TO.P,C19,2*%
%TO.N,GND*%
X103950000Y-89567500D03*
%TD*%
D12*
%TO.P,R9,1*%
%TO.N,Net-(C3-Pad1)*%
X146640000Y-65000000D03*
D11*
%TO.P,R9,2*%
%TO.N,GND*%
X144100000Y-65000000D03*
%TD*%
D35*
%TO.P,C15,1*%
%TO.N,VQ*%
X126050000Y-80862500D03*
%TO.P,C15,2*%
%TO.N,GND*%
X126050000Y-79137500D03*
%TD*%
D30*
%TO.P,C14,1*%
%TO.N,Net-(C13-Pad1)*%
X117700000Y-82082500D03*
%TO.P,C14,2*%
%TO.N,GND*%
X117700000Y-83217500D03*
%TD*%
%TO.P,C21,1*%
%TO.N,GND*%
X102800000Y-89632500D03*
%TO.P,C21,2*%
%TO.N,+5V*%
X102800000Y-90767500D03*
%TD*%
D32*
%TO.P,J5,1,Pin_1*%
%TO.N,D8*%
X100000000Y-72600000D03*
D33*
%TO.P,J5,2,Pin_2*%
%TO.N,/AD8*%
X100000000Y-75140000D03*
%TO.P,J5,3,Pin_3*%
%TO.N,D9*%
X97460000Y-72600000D03*
%TO.P,J5,4,Pin_4*%
%TO.N,/AD9*%
X97460000Y-75140000D03*
%TO.P,J5,5,Pin_5*%
%TO.N,/D10*%
X94920000Y-72600000D03*
%TO.P,J5,6,Pin_6*%
%TO.N,/AD10*%
X94920000Y-75140000D03*
%TO.P,J5,7,Pin_7*%
%TO.N,/D11*%
X92380000Y-72600000D03*
%TO.P,J5,8,Pin_8*%
%TO.N,/AD11*%
X92380000Y-75140000D03*
%TO.P,J5,9,Pin_9*%
%TO.N,/D12*%
X89840000Y-72600000D03*
%TO.P,J5,10,Pin_10*%
%TO.N,/AD12*%
X89840000Y-75140000D03*
%TO.P,J5,11,Pin_11*%
%TO.N,/D13*%
X87300000Y-72600000D03*
%TO.P,J5,12,Pin_12*%
%TO.N,/AD13*%
X87300000Y-75140000D03*
%TO.P,J5,13,Pin_13*%
%TO.N,unconnected-(J5-Pad13)*%
X84760000Y-72600000D03*
%TO.P,J5,14,Pin_14*%
%TO.N,/AD14*%
X84760000Y-75140000D03*
%TO.P,J5,15,Pin_15*%
%TO.N,/AREF*%
X82220000Y-72600000D03*
%TO.P,J5,16,Pin_16*%
%TO.N,unconnected-(J5-Pad16)*%
X82220000Y-75140000D03*
%TO.P,J5,17,Pin_17*%
%TO.N,/D14*%
X79680000Y-72600000D03*
%TO.P,J5,18,Pin_18*%
%TO.N,/AD16*%
X79680000Y-75140000D03*
%TO.P,J5,19,Pin_19*%
%TO.N,/D15*%
X77140000Y-72600000D03*
%TO.P,J5,20,Pin_20*%
%TO.N,/AD17*%
X77140000Y-75140000D03*
%TD*%
D27*
%TO.P,J1,1*%
%TO.N,unconnected-(J1-Pad1)*%
X82625000Y-110200000D03*
D28*
%TO.P,J1,2*%
%TO.N,D8*%
X84405000Y-109184000D03*
%TO.P,J1,3*%
%TO.N,GND*%
X82625000Y-108168000D03*
%TO.P,J1,4*%
%TO.N,SDA1*%
X84405000Y-107152000D03*
%TO.P,J1,5*%
%TO.N,SCL1*%
X82625000Y-106136000D03*
%TO.P,J1,6*%
%TO.N,+5V*%
X84405000Y-105120000D03*
%TO.P,J1,7*%
%TO.N,J1_Audio*%
X82625000Y-104104000D03*
%TO.P,J1,8*%
%TO.N,unconnected-(J1-Pad8)*%
X84405000Y-103088000D03*
%TO.P,J1,9*%
%TO.N,N/C*%
X89225000Y-113500000D03*
%TO.P,J1,10*%
X89225000Y-111210000D03*
%TO.P,J1,11*%
X89225000Y-102070000D03*
%TO.P,J1,12*%
X89225000Y-99780000D03*
D29*
%TO.P,J1,SH*%
X83515000Y-98510000D03*
X83515000Y-114770000D03*
%TD*%
D12*
%TO.P,C2,1*%
%TO.N,+5V*%
X97520000Y-106534000D03*
%TO.P,C2,2*%
%TO.N,GND*%
X97520000Y-109034000D03*
%TD*%
D15*
%TO.P,U3,1,+INA*%
%TO.N,Net-(C3-Pad2)*%
X140856250Y-70783750D03*
D14*
X140856250Y-70498750D03*
D15*
%TO.P,U3,2,V+*%
%TO.N,+5V*%
X140356250Y-70783750D03*
D14*
X140356250Y-70498750D03*
%TO.P,U3,3,GND*%
%TO.N,GND*%
X139856250Y-70498750D03*
D15*
X139856250Y-70783750D03*
D14*
%TO.P,U3,4,V-*%
X139356250Y-70498750D03*
D15*
X139356250Y-70783750D03*
D14*
%TO.P,U3,5,+INB*%
%TO.N,Net-(C4-Pad2)*%
X138856250Y-70498750D03*
D15*
X138856250Y-70783750D03*
D14*
%TO.P,U3,6,-INB*%
%TO.N,Net-(C8-Pad2)*%
X138856250Y-74018750D03*
D15*
X138856250Y-73733750D03*
%TO.P,U3,7,OUTB*%
%TO.N,Net-(C8-Pad1)*%
X139356250Y-73733750D03*
D14*
X139356250Y-74018750D03*
D15*
%TO.P,U3,8,EN*%
%TO.N,D5*%
X139856250Y-73733750D03*
D14*
X139856250Y-74018750D03*
%TO.P,U3,9,OUTA*%
%TO.N,Net-(C7-Pad1)*%
X140356250Y-74018750D03*
D15*
X140356250Y-73733750D03*
D14*
%TO.P,U3,10,-INA*%
%TO.N,Net-(C7-Pad2)*%
X140856250Y-74018750D03*
D15*
X140856250Y-73733750D03*
D16*
%TO.P,U3,11*%
%TO.N,N/C*%
X140491250Y-71808750D03*
X139221250Y-72708750D03*
D17*
X138306250Y-72508750D03*
D16*
X139221250Y-71808750D03*
D18*
X141486250Y-72508750D03*
D17*
X138306250Y-72008750D03*
D18*
X138226250Y-72508750D03*
D17*
X141406250Y-72508750D03*
D18*
X141486250Y-72008750D03*
D19*
X139856250Y-72258750D03*
D17*
X141406250Y-72008750D03*
D16*
X140491250Y-72708750D03*
D18*
X138226250Y-72008750D03*
%TD*%
D12*
%TO.P,R2,1*%
%TO.N,+5V*%
X111700000Y-112755000D03*
D11*
%TO.P,R2,2*%
%TO.N,A1*%
X111700000Y-115295000D03*
%TD*%
D12*
%TO.P,R4,1*%
%TO.N,+5V*%
X114900000Y-112755000D03*
D11*
%TO.P,R4,2*%
%TO.N,A4*%
X114900000Y-115295000D03*
%TD*%
D32*
%TO.P,J6,1,Pin_1*%
%TO.N,/D0*%
X121875000Y-72600000D03*
D33*
%TO.P,J6,2,Pin_2*%
%TO.N,/D0B*%
X121844000Y-75140000D03*
%TO.P,J6,3,Pin_3*%
%TO.N,/D1*%
X119304000Y-72600000D03*
%TO.P,J6,4,Pin_4*%
%TO.N,/D1B*%
X119304000Y-75140000D03*
%TO.P,J6,5,Pin_5*%
%TO.N,/D2*%
X116764000Y-72600000D03*
%TO.P,J6,6,Pin_6*%
%TO.N,/D2B*%
X116764000Y-75140000D03*
%TO.P,J6,7,Pin_7*%
%TO.N,/D3*%
X114224000Y-72600000D03*
%TO.P,J6,8,Pin_8*%
%TO.N,/D3B*%
X114224000Y-75140000D03*
%TO.P,J6,9,Pin_9*%
%TO.N,/D4*%
X111684000Y-72600000D03*
%TO.P,J6,10,Pin_10*%
%TO.N,D4B*%
X111684000Y-75140000D03*
%TO.P,J6,11,Pin_11*%
%TO.N,D5*%
X109144000Y-72600000D03*
%TO.P,J6,12,Pin_12*%
%TO.N,/D5B*%
X109144000Y-75140000D03*
%TO.P,J6,13,Pin_13*%
%TO.N,/D6*%
X106604000Y-72600000D03*
%TO.P,J6,14,Pin_14*%
%TO.N,D6B*%
X106604000Y-75140000D03*
%TO.P,J6,15,Pin_15*%
%TO.N,/D7*%
X104064000Y-72600000D03*
%TO.P,J6,16,Pin_16*%
%TO.N,D7B*%
X104064000Y-75140000D03*
%TD*%
D22*
%TO.P,R17,1*%
%TO.N,Net-(C7-Pad1)*%
X143200000Y-80985000D03*
D23*
%TO.P,R17,2*%
%TO.N,AINR-*%
X143200000Y-86065000D03*
%TD*%
D36*
%TO.P,C17,1*%
%TO.N,+5V*%
X121450000Y-88037500D03*
%TO.P,C17,2*%
%TO.N,GND*%
X121450000Y-89762500D03*
%TD*%
D35*
%TO.P,C20,1*%
%TO.N,+5V*%
X101200000Y-90962500D03*
%TO.P,C20,2*%
%TO.N,GND*%
X101200000Y-89237500D03*
%TD*%
D10*
%TO.P,C6,1*%
%TO.N,J1_Audio*%
X131315000Y-117950000D03*
D12*
%TO.P,C6,2*%
%TO.N,Net-(C6-Pad2)*%
X136315000Y-117950000D03*
%TD*%
%TO.P,R10,1*%
%TO.N,J2_Audio*%
X132855000Y-65000000D03*
D11*
%TO.P,R10,2*%
%TO.N,GND*%
X135395000Y-65000000D03*
%TD*%
D12*
%TO.P,R6,1*%
%TO.N,SCL1*%
X92700000Y-98655000D03*
D11*
%TO.P,R6,2*%
%TO.N,+5V*%
X92700000Y-101195000D03*
%TD*%
D10*
%TO.P,C11,1*%
%TO.N,AINR-*%
X141060226Y-90768974D03*
D12*
%TO.P,C11,2*%
%TO.N,AINR+*%
X138560226Y-90768974D03*
%TD*%
D10*
%TO.P,C12,1*%
%TO.N,AINL+*%
X138474440Y-98000000D03*
D12*
%TO.P,C12,2*%
%TO.N,AINL-*%
X140974440Y-98000000D03*
%TD*%
%TO.P,R12,1*%
%TO.N,J1_Audio*%
X132810000Y-123792500D03*
D11*
%TO.P,R12,2*%
%TO.N,GND*%
X135350000Y-123792500D03*
%TD*%
D12*
%TO.P,R15,1*%
%TO.N,VQ*%
X141400000Y-124200000D03*
D11*
%TO.P,R15,2*%
%TO.N,Net-(C5-Pad2)*%
X141400000Y-121660000D03*
%TD*%
D10*
%TO.P,C4,1*%
%TO.N,J2_Audio*%
X131406250Y-70500000D03*
D12*
%TO.P,C4,2*%
%TO.N,Net-(C4-Pad2)*%
X136406250Y-70500000D03*
%TD*%
%TO.P,R25,1*%
%TO.N,+5V*%
X109755000Y-79100000D03*
D11*
%TO.P,R25,2*%
%TO.N,/VD*%
X112295000Y-79100000D03*
%TD*%
D22*
%TO.P,R18,1*%
%TO.N,Net-(C8-Pad1)*%
X136500000Y-80985000D03*
D23*
%TO.P,R18,2*%
%TO.N,AINR+*%
X136500000Y-86065000D03*
%TD*%
D10*
%TO.P,C3,1*%
%TO.N,Net-(C3-Pad1)*%
X148306250Y-70508750D03*
D12*
%TO.P,C3,2*%
%TO.N,Net-(C3-Pad2)*%
X143306250Y-70508750D03*
%TD*%
D32*
%TO.P,J3,1,Pin_1*%
%TO.N,/A6B*%
X104064000Y-118260000D03*
D33*
%TO.P,J3,2,Pin_2*%
%TO.N,unconnected-(J3-Pad2)*%
X104064000Y-120800000D03*
%TO.P,J3,3,Pin_3*%
%TO.N,/A7B*%
X101524000Y-118260000D03*
%TO.P,J3,4,Pin_4*%
%TO.N,GND*%
X101524000Y-120800000D03*
%TO.P,J3,5,Pin_5*%
%TO.N,/A8B*%
X98984000Y-118260000D03*
%TO.P,J3,6,Pin_6*%
%TO.N,unconnected-(J3-Pad6)*%
X98984000Y-120800000D03*
%TO.P,J3,7,Pin_7*%
%TO.N,/A9B*%
X96444000Y-118260000D03*
%TO.P,J3,8,Pin_8*%
%TO.N,+5V*%
X96444000Y-120800000D03*
%TO.P,J3,9,Pin_9*%
%TO.N,/A10B*%
X93904000Y-118260000D03*
%TO.P,J3,10,Pin_10*%
%TO.N,unconnected-(J3-Pad10)*%
X93904000Y-120800000D03*
%TO.P,J3,11,Pin_11*%
%TO.N,/A11B*%
X91364000Y-118260000D03*
%TO.P,J3,12,Pin_12*%
%TO.N,unconnected-(J3-Pad12)*%
X91364000Y-120800000D03*
%TO.P,J3,13,Pin_13*%
%TO.N,/A12B*%
X88824000Y-118260000D03*
%TO.P,J3,14,Pin_14*%
%TO.N,/P3V3*%
X88824000Y-120800000D03*
%TO.P,J3,15,Pin_15*%
%TO.N,/A13B*%
X86284000Y-118260000D03*
%TO.P,J3,16,Pin_16*%
%TO.N,unconnected-(J3-Pad16)*%
X86284000Y-120800000D03*
%TD*%
D37*
%TO.P,R23,1*%
%TO.N,Net-(C9-Pad2)*%
X145950000Y-109000000D03*
%TO.P,R23,2*%
%TO.N,AINL-*%
X149050000Y-109000000D03*
%TD*%
%TO.P,R21,1*%
%TO.N,Net-(C7-Pad2)*%
X146750000Y-79600000D03*
%TO.P,R21,2*%
%TO.N,AINR-*%
X149850000Y-79600000D03*
%TD*%
D12*
%TO.P,R11,1*%
%TO.N,Net-(C5-Pad1)*%
X146970000Y-123792500D03*
D11*
%TO.P,R11,2*%
%TO.N,GND*%
X144430000Y-123792500D03*
%TD*%
D12*
%TO.P,R5,1*%
%TO.N,SDA1*%
X95750000Y-103000000D03*
D11*
%TO.P,R5,2*%
%TO.N,+5V*%
X95750000Y-100460000D03*
%TD*%
D12*
%TO.P,R7,1*%
%TO.N,SCL2*%
X96000000Y-84445000D03*
D11*
%TO.P,R7,2*%
%TO.N,+5V*%
X96000000Y-81905000D03*
%TD*%
D38*
%TO.N,GND*%
X107500000Y-113900000D03*
X115400000Y-98200000D03*
X123350000Y-89800000D03*
X126200000Y-67824500D03*
%TO.N,+5V*%
X139450000Y-119312500D03*
X123300000Y-88000000D03*
X140900000Y-69300000D03*
%TO.N,D5*%
X139856250Y-78356250D03*
X139849440Y-111249440D03*
%TO.N,VQ*%
X127300000Y-68800000D03*
%TD*%
D39*
%TO.N,GND*%
X139890000Y-124422069D02*
X139890000Y-120472500D01*
X113600000Y-83300000D02*
X113600000Y-88800000D01*
X77900000Y-92200000D02*
X77900000Y-103443000D01*
X140830259Y-65180000D02*
X135575000Y-65180000D01*
X137272500Y-126355000D02*
X137158750Y-126241250D01*
X78710001Y-91389999D02*
X77900000Y-92200000D01*
X115250000Y-95985000D02*
X106765000Y-95985000D01*
X122715000Y-83285000D02*
X122700000Y-83300000D01*
X79803001Y-91389999D02*
X78710001Y-91389999D01*
X123365000Y-83285000D02*
X122715000Y-83285000D01*
X98984000Y-111584000D02*
X98984000Y-110498000D01*
X124300000Y-82350000D02*
X124300000Y-80137500D01*
X125237500Y-79950000D02*
X126050000Y-79137500D01*
X140400000Y-118210000D02*
X139900000Y-118210000D01*
X103950000Y-89567500D02*
X106067500Y-89567500D01*
X139856250Y-70498750D02*
X139856250Y-66154009D01*
X103950000Y-89567500D02*
X102865000Y-89567500D01*
X141010259Y-65000000D02*
X144100000Y-65000000D01*
X140400000Y-119962500D02*
X140400000Y-118210000D01*
X137158750Y-126241250D02*
X132440000Y-121522500D01*
X115250000Y-89635000D02*
X118682500Y-89635000D01*
X77900000Y-103443000D02*
X82625000Y-108168000D01*
X101524000Y-120800000D02*
X100349000Y-119625000D01*
X142507500Y-126355000D02*
X145070000Y-123792500D01*
X100349000Y-112949000D02*
X98984000Y-111584000D01*
X138503491Y-126355000D02*
X137272500Y-126355000D01*
X138503491Y-126355000D02*
X142507500Y-126355000D01*
X139856250Y-66154009D02*
X141010259Y-65000000D01*
X124112500Y-79950000D02*
X125237500Y-79950000D01*
X128811396Y-116825000D02*
X123211396Y-122425000D01*
X121450000Y-89762500D02*
X123312500Y-89762500D01*
X108620000Y-111500000D02*
X112420000Y-111500000D01*
X139886466Y-124972025D02*
X138503491Y-126355000D01*
X123211396Y-122425000D02*
X109025000Y-122425000D01*
X139886466Y-124518534D02*
X139886466Y-124972025D01*
X112420000Y-111500000D02*
X114920000Y-109000000D01*
X123040000Y-109000000D02*
X125540000Y-111500000D01*
X107500000Y-120900000D02*
X107500000Y-113900000D01*
X115250000Y-95985000D02*
X115250000Y-98050000D01*
X123312500Y-89762500D02*
X123350000Y-89800000D01*
X82625000Y-88568000D02*
X79803001Y-91389999D01*
X141010259Y-65000000D02*
X140830259Y-65180000D01*
X100349000Y-119625000D02*
X100349000Y-112949000D01*
X139890000Y-120472500D02*
X140400000Y-119962500D01*
X113600000Y-88800000D02*
X114435000Y-89635000D01*
X139356250Y-70783750D02*
X139856250Y-70783750D01*
X109025000Y-122425000D02*
X107500000Y-120900000D01*
X115235000Y-83300000D02*
X113600000Y-83300000D01*
X106750000Y-96000000D02*
X106750000Y-93460000D01*
X114920000Y-109000000D02*
X123040000Y-109000000D01*
X106154000Y-109034000D02*
X108620000Y-111500000D01*
X132440000Y-121522500D02*
X132440000Y-116825000D01*
X132440000Y-116825000D02*
X128811396Y-116825000D01*
X115250000Y-89635000D02*
X106765000Y-89635000D01*
X115250000Y-98050000D02*
X115400000Y-98200000D01*
X97520000Y-109034000D02*
X106154000Y-109034000D01*
X101595000Y-89632500D02*
X101200000Y-89237500D01*
X123365000Y-83285000D02*
X124300000Y-82350000D01*
X137158750Y-126241250D02*
X134710000Y-123792500D01*
X98984000Y-110498000D02*
X97520000Y-109034000D01*
X115515000Y-83300000D02*
X122700000Y-83300000D01*
X126200000Y-67824500D02*
X126200000Y-78987500D01*
X118750000Y-89567500D02*
X121255000Y-89567500D01*
X102800000Y-89632500D02*
X101595000Y-89632500D01*
%TO.N,+5V*%
X140356250Y-70783750D02*
X140356250Y-69843750D01*
X87780000Y-85520000D02*
X84405000Y-85520000D01*
X140356250Y-69843750D02*
X140900000Y-69300000D01*
X95750000Y-101100000D02*
X92750000Y-101100000D01*
X117950190Y-103469810D02*
X114920000Y-106500000D01*
X113200000Y-113000000D02*
X113245000Y-112955000D01*
X95200000Y-108854000D02*
X97520000Y-106534000D01*
X104561150Y-113000000D02*
X102800000Y-114761150D01*
X98500000Y-122400000D02*
X96900000Y-120800000D01*
X91395000Y-81905000D02*
X87780000Y-85520000D01*
X102800000Y-114761150D02*
X102800000Y-121500000D01*
X117950190Y-101303718D02*
X117950190Y-103469810D01*
X101095000Y-101500000D02*
X96150000Y-101500000D01*
X104561150Y-113000000D02*
X113200000Y-113000000D01*
X108500000Y-83300000D02*
X106750000Y-83300000D01*
X139400000Y-119262500D02*
X139450000Y-119312500D01*
X111045000Y-94715000D02*
X115250000Y-94715000D01*
X117215000Y-94715000D02*
X115250000Y-94715000D01*
X102800000Y-121500000D02*
X101900000Y-122400000D01*
X92929302Y-100920698D02*
X88650000Y-105200000D01*
X96000000Y-81905000D02*
X98400000Y-84305000D01*
X113245000Y-112955000D02*
X114900000Y-112955000D01*
X92900000Y-81905000D02*
X91395000Y-81905000D01*
X97520000Y-106534000D02*
X100174000Y-103880000D01*
X121450000Y-88037500D02*
X123262500Y-88037500D01*
X119145000Y-88037500D02*
X118750000Y-88432500D01*
X98400000Y-84305000D02*
X98400000Y-92300000D01*
X107250000Y-90920000D02*
X111045000Y-94715000D01*
X88650000Y-105200000D02*
X84485000Y-105200000D01*
X109755000Y-82045000D02*
X108500000Y-83300000D01*
X118682500Y-88365000D02*
X115250000Y-88365000D01*
X101000000Y-103880000D02*
X101000000Y-101600000D01*
X139400000Y-118210000D02*
X139400000Y-119262500D01*
X92750000Y-81865000D02*
X95960000Y-81865000D01*
X121450000Y-88037500D02*
X119145000Y-88037500D01*
X96150000Y-101500000D02*
X95750000Y-101100000D01*
X96444000Y-120800000D02*
X95200000Y-119556000D01*
X109755000Y-79100000D02*
X109755000Y-82045000D01*
X123262500Y-88037500D02*
X123300000Y-88000000D01*
X101900000Y-122400000D02*
X98500000Y-122400000D01*
X101095000Y-94995000D02*
X101095000Y-101500000D01*
X118095000Y-101500000D02*
X118095000Y-95595000D01*
X106150000Y-90920000D02*
X102952500Y-90920000D01*
X100955000Y-101200000D02*
X102080000Y-100075000D01*
X98400000Y-92300000D02*
X101095000Y-94995000D01*
X108495000Y-100075000D02*
X114920000Y-106500000D01*
X114920000Y-106500000D02*
X117540000Y-103880000D01*
X102080000Y-100075000D02*
X108495000Y-100075000D01*
X101300000Y-90937500D02*
X102630000Y-90937500D01*
X100174000Y-103880000D02*
X101000000Y-103880000D01*
X95200000Y-119556000D02*
X95200000Y-108854000D01*
X118095000Y-95595000D02*
X117215000Y-94715000D01*
%TO.N,J2_Audio*%
X102000000Y-69100000D02*
X102000000Y-76000000D01*
X86710966Y-77800000D02*
X83635966Y-80875000D01*
X102000000Y-76000000D02*
X100200000Y-77800000D01*
X132855000Y-65000000D02*
X131406250Y-66448750D01*
X131406250Y-66448750D02*
X131406250Y-70758750D01*
X83635966Y-80875000D02*
X82625000Y-80875000D01*
X102000000Y-69100000D02*
X104000000Y-67100000D01*
X82625000Y-80875000D02*
X82625000Y-84504000D01*
X100200000Y-77800000D02*
X86710966Y-77800000D01*
X128006250Y-67100000D02*
X104000000Y-67100000D01*
X128006250Y-67100000D02*
X131406250Y-70500000D01*
%TO.N,J1_Audio*%
X131315000Y-117950000D02*
X131315000Y-122297500D01*
X131315000Y-122297500D02*
X132810000Y-123792500D01*
D40*
%TO.N,AINR-*%
X141060226Y-90768974D02*
X139960226Y-91868974D01*
X139960226Y-91868974D02*
X132018974Y-91868974D01*
X132018974Y-91868974D02*
X127245000Y-87095000D01*
X149665000Y-79600000D02*
X143200000Y-86065000D01*
X143200000Y-88629200D02*
X141060226Y-90768974D01*
D39*
X127245000Y-87095000D02*
X115250000Y-87095000D01*
D40*
X143200000Y-86065000D02*
X143200000Y-88629200D01*
D39*
%TO.N,AINR+*%
X127275000Y-85825000D02*
X115250000Y-85825000D01*
D40*
X127275000Y-85825000D02*
X129850000Y-83250000D01*
X136500000Y-88708748D02*
X138560226Y-90768974D01*
X136500000Y-86065000D02*
X136500000Y-88708748D01*
X129850000Y-83250000D02*
X129850000Y-79600000D01*
X130035000Y-79600000D02*
X136500000Y-86065000D01*
D39*
%TO.N,AINL+*%
X115275000Y-92200000D02*
X126300000Y-92200000D01*
X137100000Y-102535000D02*
X137100000Y-99374440D01*
X126300000Y-92200000D02*
X132100000Y-98000000D01*
X130635000Y-109000000D02*
X137100000Y-102535000D01*
X137100000Y-99374440D02*
X138474440Y-98000000D01*
X132100000Y-98000000D02*
X138474440Y-98000000D01*
%TO.N,AINL-*%
X115250000Y-90905000D02*
X127005000Y-90905000D01*
D40*
X142400000Y-102535000D02*
X142400000Y-99425560D01*
D39*
X138674440Y-95700000D02*
X131800000Y-95700000D01*
D40*
X140974440Y-98000000D02*
X138674440Y-95700000D01*
X142400000Y-99425560D02*
X140974440Y-98000000D01*
D39*
X131800000Y-95700000D02*
X127005000Y-90905000D01*
X148865000Y-109000000D02*
X142400000Y-102535000D01*
%TO.N,A5*%
X124705000Y-105005000D02*
X121585000Y-105005000D01*
X121844000Y-120800000D02*
X124200000Y-120800000D01*
X124200000Y-120800000D02*
X128700000Y-116300000D01*
X128700000Y-109000000D02*
X124705000Y-105005000D01*
X128700000Y-116300000D02*
X128700000Y-109000000D01*
X121585000Y-105005000D02*
X120460000Y-103880000D01*
X120460000Y-103880000D02*
X120460000Y-101675000D01*
%TO.N,A0*%
X109144000Y-120800000D02*
X110319000Y-121975000D01*
X127300000Y-115154000D02*
X127300000Y-109800000D01*
X119790701Y-121975000D02*
X120600000Y-121165701D01*
X125125000Y-107625000D02*
X127300000Y-109800000D01*
X110319000Y-121975000D02*
X119790701Y-121975000D01*
X107285000Y-107625000D02*
X125125000Y-107625000D01*
X103540000Y-103880000D02*
X107285000Y-107625000D01*
X121547299Y-119435000D02*
X123019000Y-119435000D01*
X103540000Y-103880000D02*
X103540000Y-101245000D01*
X123019000Y-119435000D02*
X127300000Y-115154000D01*
X120600000Y-120382299D02*
X121547299Y-119435000D01*
X120600000Y-121165701D02*
X120600000Y-120382299D01*
%TO.N,SDA1*%
X103540000Y-111500000D02*
X106080000Y-111500000D01*
%TO.N,SCL1*%
X82348429Y-100855000D02*
X90500000Y-100855000D01*
X82036000Y-106136000D02*
X81100000Y-105200000D01*
X90500000Y-100855000D02*
X92700000Y-98655000D01*
X81100000Y-102103429D02*
X82348429Y-100855000D01*
X81100000Y-105200000D02*
X81100000Y-102103429D01*
%TO.N,SCL2*%
X125540000Y-103880000D02*
X123000000Y-103880000D01*
%TO.N,SDA2*%
X120460000Y-111500000D02*
X123000000Y-111500000D01*
%TO.N,Net-(C3-Pad2)*%
X140856250Y-70498750D02*
X143296250Y-70498750D01*
%TO.N,Net-(C4-Pad2)*%
X138856250Y-70498750D02*
X136407500Y-70498750D01*
X138831250Y-70758750D02*
X138856250Y-70783750D01*
%TO.N,Net-(C5-Pad2)*%
X141600000Y-118625000D02*
X140900000Y-117925000D01*
X141400000Y-120872500D02*
X141600000Y-120672500D01*
X140925000Y-117950000D02*
X140900000Y-117925000D01*
X143315000Y-117950000D02*
X140925000Y-117950000D01*
X141600000Y-120672500D02*
X141600000Y-118625000D01*
X141400000Y-121660000D02*
X141400000Y-120872500D01*
%TO.N,Net-(C6-Pad2)*%
X138900000Y-117925000D02*
X136340000Y-117925000D01*
X138000000Y-122110000D02*
X138000000Y-118825000D01*
X138000000Y-118825000D02*
X138900000Y-117925000D01*
%TO.N,Net-(C7-Pad1)*%
X140356250Y-73733750D02*
X140356250Y-74493750D01*
X143200000Y-80985000D02*
X143200000Y-77337500D01*
X143200000Y-77337500D02*
X142262500Y-76400000D01*
X140356250Y-74493750D02*
X142262500Y-76400000D01*
%TO.N,Net-(C7-Pad2)*%
X146537500Y-76400000D02*
X146537500Y-79387500D01*
X140856250Y-73733750D02*
X143871250Y-73733750D01*
X143871250Y-73733750D02*
X146537500Y-76400000D01*
%TO.N,Net-(C8-Pad1)*%
X139356250Y-74481250D02*
X137437500Y-76400000D01*
X139356250Y-73733750D02*
X139356250Y-74481250D01*
X136500000Y-77337500D02*
X136500000Y-80985000D01*
X137437500Y-76400000D02*
X136500000Y-77337500D01*
%TO.N,Net-(C8-Pad2)*%
X138856250Y-73733750D02*
X136243750Y-73733750D01*
X136243750Y-73733750D02*
X132968750Y-77008750D01*
X132968750Y-77008750D02*
X132968750Y-80121250D01*
%TO.N,Net-(C9-Pad1)*%
X141262500Y-112200000D02*
X142400000Y-111062500D01*
X140400000Y-113062500D02*
X141262500Y-112200000D01*
X140400000Y-114975000D02*
X140400000Y-113062500D01*
X142400000Y-111062500D02*
X142400000Y-107615000D01*
%TO.N,Net-(C9-Pad2)*%
X145537500Y-112200000D02*
X145537500Y-109412500D01*
X142762500Y-114975000D02*
X145537500Y-112200000D01*
X140900000Y-114975000D02*
X142762500Y-114975000D01*
%TO.N,Net-(C10-Pad1)*%
X139400000Y-114690000D02*
X139400000Y-113312500D01*
X139400000Y-113312500D02*
X138287500Y-112200000D01*
X137100000Y-111012500D02*
X137100000Y-107615000D01*
X138287500Y-112200000D02*
X137100000Y-111012500D01*
%TO.N,Net-(C10-Pad2)*%
X135187500Y-112200000D02*
X134012500Y-112200000D01*
X134012500Y-112200000D02*
X134012500Y-109462500D01*
X137962500Y-114975000D02*
X135187500Y-112200000D01*
X138900000Y-114975000D02*
X137962500Y-114975000D01*
%TO.N,D8*%
X76750000Y-79450000D02*
X79000000Y-77200000D01*
X96285000Y-74615000D02*
X97125000Y-73775000D01*
X83700000Y-109889000D02*
X83700000Y-111275000D01*
X76750000Y-106475000D02*
X76750000Y-79450000D01*
X83700000Y-111275000D02*
X81550000Y-111275000D01*
X84405000Y-109184000D02*
X83700000Y-109889000D01*
X94711701Y-77200000D02*
X96285000Y-75626701D01*
X96285000Y-75626701D02*
X96285000Y-74615000D01*
X98125000Y-73775000D02*
X99300000Y-72600000D01*
X81550000Y-111275000D02*
X76750000Y-106475000D01*
X97125000Y-73775000D02*
X98125000Y-73775000D01*
X79000000Y-77200000D02*
X94711701Y-77200000D01*
%TO.N,Net-(C13-Pad1)*%
X119582500Y-79950000D02*
X117450000Y-82082500D01*
X120987500Y-79950000D02*
X119582500Y-79950000D01*
X117450000Y-82082500D02*
X115317500Y-82082500D01*
%TO.N,D5*%
X112859000Y-76941000D02*
X112859000Y-69186150D01*
X139900000Y-114690000D02*
X139900000Y-111300000D01*
X109144000Y-70000000D02*
X109144000Y-72600000D01*
X139900000Y-111300000D02*
X139849440Y-111249440D01*
X110323009Y-76941000D02*
X112859000Y-76941000D01*
X110319000Y-68825000D02*
X109144000Y-70000000D01*
X139856250Y-73733750D02*
X139856250Y-78356250D01*
X112497850Y-68825000D02*
X110319000Y-68825000D01*
X106750000Y-80514009D02*
X110323009Y-76941000D01*
X112859000Y-69186150D02*
X112497850Y-68825000D01*
X106750000Y-82030000D02*
X106750000Y-80514009D01*
%TO.N,D6B*%
X105000000Y-79000000D02*
X106604000Y-77396000D01*
X105000000Y-83320000D02*
X105000000Y-79000000D01*
X106604000Y-77396000D02*
X106604000Y-75140000D01*
X106250000Y-84570000D02*
X105000000Y-83320000D01*
%TO.N,D7B*%
X106750000Y-92190000D02*
X100490000Y-92190000D01*
X99800000Y-88300000D02*
X102700000Y-85400000D01*
X99800000Y-91500000D02*
X99800000Y-88300000D01*
X102700000Y-85400000D02*
X102700000Y-76504000D01*
X100490000Y-92190000D02*
X99800000Y-91500000D01*
X102700000Y-76504000D02*
X104064000Y-75140000D01*
%TO.N,VQ*%
X151600000Y-111600000D02*
X151600000Y-75800000D01*
X151000000Y-75200000D02*
X150200000Y-75200000D01*
X126050000Y-82800000D02*
X124432500Y-84417500D01*
X147190000Y-116010000D02*
X151600000Y-111600000D01*
X145515000Y-64824009D02*
X144295991Y-63605000D01*
X145515000Y-70515000D02*
X145515000Y-64824009D01*
X118762500Y-84555000D02*
X115250000Y-84555000D01*
X144295991Y-63605000D02*
X141456250Y-63605000D01*
X150200000Y-75200000D02*
X145515000Y-70515000D01*
X126050000Y-80711827D02*
X127300000Y-79461827D01*
X126050000Y-80862500D02*
X126050000Y-82800000D01*
X127300000Y-79461827D02*
X127300000Y-68800000D01*
X118900000Y-84417500D02*
X118762500Y-84555000D01*
X141400000Y-124200000D02*
X147190000Y-118410000D01*
X124432500Y-84417500D02*
X118900000Y-84417500D01*
X151600000Y-75800000D02*
X151000000Y-75200000D01*
X147190000Y-118410000D02*
X147190000Y-116010000D01*
%TO.N,Net-(C3-Pad1)*%
X148306250Y-66666250D02*
X146640000Y-65000000D01*
X148306250Y-70508750D02*
X148306250Y-66666250D01*
%TO.N,Net-(C5-Pad1)*%
X148315000Y-122447500D02*
X146970000Y-123792500D01*
X148315000Y-117950000D02*
X148315000Y-122447500D01*
%TO.N,D4B*%
X105239000Y-73839000D02*
X110383000Y-73839000D01*
X110383000Y-73839000D02*
X111684000Y-75140000D01*
X104000000Y-83590000D02*
X104000000Y-78000000D01*
X106250000Y-85840000D02*
X104000000Y-83590000D01*
X105239000Y-76761000D02*
X105239000Y-73839000D01*
X104000000Y-78000000D02*
X105239000Y-76761000D01*
%TO.N,/VD*%
X112295000Y-79100000D02*
X112295000Y-83215000D01*
X106150000Y-88380000D02*
X104002500Y-88380000D01*
X112295000Y-83215000D02*
X107130000Y-88380000D01*
%TD*%
M02*
