%TF.GenerationSoftware,KiCad,Pcbnew,(6.0.10)*%
%TF.CreationDate,2023-02-24T01:37:01-05:00*%
%TF.ProjectId,shield,73686965-6c64-42e6-9b69-6361645f7063,rev?*%
%TF.SameCoordinates,Original*%
%TF.FileFunction,Paste,Top*%
%TF.FilePolarity,Positive*%
%FSLAX46Y46*%
G04 Gerber Fmt 4.6, Leading zero omitted, Abs format (unit mm)*
G04 Created by KiCad (PCBNEW (6.0.10)) date 2023-02-24 01:37:01*
%MOMM*%
%LPD*%
G01*
G04 APERTURE LIST*
G04 Aperture macros list*
%AMRoundRect*
0 Rectangle with rounded corners*
0 $1 Rounding radius*
0 $2 $3 $4 $5 $6 $7 $8 $9 X,Y pos of 4 corners*
0 Add a 4 corners polygon primitive as box body*
4,1,4,$2,$3,$4,$5,$6,$7,$8,$9,$2,$3,0*
0 Add four circle primitives for the rounded corners*
1,1,$1+$1,$2,$3*
1,1,$1+$1,$4,$5*
1,1,$1+$1,$6,$7*
1,1,$1+$1,$8,$9*
0 Add four rect primitives between the rounded corners*
20,1,$1+$1,$2,$3,$4,$5,0*
20,1,$1+$1,$4,$5,$6,$7,0*
20,1,$1+$1,$6,$7,$8,$9,0*
20,1,$1+$1,$8,$9,$2,$3,0*%
G04 Aperture macros list end*
%ADD10RoundRect,0.250000X0.400000X0.625000X-0.400000X0.625000X-0.400000X-0.625000X0.400000X-0.625000X0*%
%ADD11RoundRect,0.250000X-0.400000X-0.625000X0.400000X-0.625000X0.400000X0.625000X-0.400000X0.625000X0*%
%ADD12R,0.500000X0.260000*%
%ADD13R,1.050000X0.680000*%
%ADD14O,0.230000X0.800000*%
%ADD15R,0.230000X0.230000*%
%ADD16RoundRect,0.155000X0.155000X-0.212500X0.155000X0.212500X-0.155000X0.212500X-0.155000X-0.212500X0*%
%ADD17RoundRect,0.250000X0.537500X1.450000X-0.537500X1.450000X-0.537500X-1.450000X0.537500X-1.450000X0*%
%ADD18R,1.500000X0.500000*%
%ADD19RoundRect,0.155000X-0.155000X0.212500X-0.155000X-0.212500X0.155000X-0.212500X0.155000X0.212500X0*%
%ADD20RoundRect,0.250000X-0.537500X-1.450000X0.537500X-1.450000X0.537500X1.450000X-0.537500X1.450000X0*%
%ADD21RoundRect,0.250000X-0.412500X-1.100000X0.412500X-1.100000X0.412500X1.100000X-0.412500X1.100000X0*%
%ADD22RoundRect,0.237500X0.237500X-0.300000X0.237500X0.300000X-0.237500X0.300000X-0.237500X-0.300000X0*%
%ADD23RoundRect,0.237500X-0.237500X0.300000X-0.237500X-0.300000X0.237500X-0.300000X0.237500X0.300000X0*%
G04 APERTURE END LIST*
D10*
%TO.C,R24*%
X130450000Y-109000000D03*
X133550000Y-109000000D03*
%TD*%
D11*
%TO.C,R23*%
X149050000Y-109000000D03*
X145950000Y-109000000D03*
%TD*%
D10*
%TO.C,R22*%
X132950000Y-79600000D03*
X129850000Y-79600000D03*
%TD*%
D11*
%TO.C,R21*%
X146750000Y-79600000D03*
X149850000Y-79600000D03*
%TD*%
D12*
%TO.C,U4*%
X138270000Y-116200000D03*
X141530000Y-116200000D03*
D13*
X139265000Y-116000000D03*
D12*
X138270000Y-116700000D03*
D13*
X140535000Y-116900000D03*
D12*
X141530000Y-116700000D03*
D13*
X139265000Y-116900000D03*
X140535000Y-116000000D03*
D14*
X138900000Y-114975000D03*
D15*
X138900000Y-114690000D03*
X139400000Y-114690000D03*
D14*
X139400000Y-114975000D03*
X139900000Y-114975000D03*
D15*
X139900000Y-114690000D03*
D14*
X140400000Y-114975000D03*
D15*
X140400000Y-114690000D03*
X140900000Y-114690000D03*
D14*
X140900000Y-114975000D03*
X140900000Y-117925000D03*
D15*
X140900000Y-118210000D03*
D14*
X140400000Y-117925000D03*
D15*
X140400000Y-118210000D03*
X139900000Y-118210000D03*
D14*
X139900000Y-117925000D03*
X139400000Y-117925000D03*
D15*
X139400000Y-118210000D03*
D14*
X138900000Y-117925000D03*
D15*
X138900000Y-118210000D03*
%TD*%
D16*
%TO.C,C18*%
X118750000Y-89567500D03*
X118750000Y-88432500D03*
%TD*%
D17*
%TO.C,C8*%
X137437500Y-76400000D03*
X133162500Y-76400000D03*
%TD*%
%TO.C,C10*%
X134012500Y-112200000D03*
X138287500Y-112200000D03*
%TD*%
D18*
%TO.C,U5*%
X106750000Y-82030000D03*
X106750000Y-83300000D03*
X106750000Y-84570000D03*
X106750000Y-85840000D03*
X106750000Y-87110000D03*
X106750000Y-88380000D03*
X106750000Y-89650000D03*
X106750000Y-90920000D03*
X106750000Y-92190000D03*
X106750000Y-93460000D03*
X106750000Y-94730000D03*
X106750000Y-96000000D03*
X115250000Y-95985000D03*
X115250000Y-94715000D03*
X115250000Y-93445000D03*
X115250000Y-92175000D03*
X115250000Y-90905000D03*
X115250000Y-89635000D03*
X115250000Y-88365000D03*
X115250000Y-87095000D03*
X115250000Y-85825000D03*
X115250000Y-84555000D03*
X115250000Y-83285000D03*
X115250000Y-82015000D03*
%TD*%
D19*
%TO.C,C16*%
X118900000Y-83282500D03*
X118900000Y-84417500D03*
%TD*%
D20*
%TO.C,C7*%
X142262500Y-76400000D03*
X146537500Y-76400000D03*
%TD*%
%TO.C,C9*%
X145537500Y-112200000D03*
X141262500Y-112200000D03*
%TD*%
D21*
%TO.C,C13*%
X120987500Y-79950000D03*
X124112500Y-79950000D03*
%TD*%
D19*
%TO.C,C19*%
X104550000Y-88432500D03*
X104550000Y-89567500D03*
%TD*%
D22*
%TO.C,C15*%
X126050000Y-80862500D03*
X126050000Y-79137500D03*
%TD*%
D19*
%TO.C,C14*%
X117450000Y-82082500D03*
X117450000Y-83217500D03*
%TD*%
%TO.C,C21*%
X103400000Y-89632500D03*
X103400000Y-90767500D03*
%TD*%
D14*
%TO.C,U3*%
X140856250Y-70783750D03*
D15*
X140856250Y-70498750D03*
D14*
X140356250Y-70783750D03*
D15*
X140356250Y-70498750D03*
X139856250Y-70498750D03*
D14*
X139856250Y-70783750D03*
D15*
X139356250Y-70498750D03*
D14*
X139356250Y-70783750D03*
D15*
X138856250Y-70498750D03*
D14*
X138856250Y-70783750D03*
D15*
X138856250Y-74018750D03*
D14*
X138856250Y-73733750D03*
X139356250Y-73733750D03*
D15*
X139356250Y-74018750D03*
D14*
X139856250Y-73733750D03*
D15*
X139856250Y-74018750D03*
X140356250Y-74018750D03*
D14*
X140356250Y-73733750D03*
D15*
X140856250Y-74018750D03*
D14*
X140856250Y-73733750D03*
D13*
X140491250Y-71808750D03*
X139221250Y-72708750D03*
X139221250Y-71808750D03*
D12*
X141486250Y-72508750D03*
X138226250Y-72508750D03*
X141486250Y-72008750D03*
D13*
X140491250Y-72708750D03*
D12*
X138226250Y-72008750D03*
%TD*%
D23*
%TO.C,C17*%
X121450000Y-88037500D03*
X121450000Y-89762500D03*
%TD*%
D22*
%TO.C,C20*%
X101800000Y-90962500D03*
X101800000Y-89237500D03*
%TD*%
M02*
