%TF.GenerationSoftware,KiCad,Pcbnew,(6.0.10)*%
%TF.CreationDate,2023-02-24T01:37:01-05:00*%
%TF.ProjectId,shield,73686965-6c64-42e6-9b69-6361645f7063,rev?*%
%TF.SameCoordinates,Original*%
%TF.FileFunction,Soldermask,Top*%
%TF.FilePolarity,Negative*%
%FSLAX46Y46*%
G04 Gerber Fmt 4.6, Leading zero omitted, Abs format (unit mm)*
G04 Created by KiCad (PCBNEW (6.0.10)) date 2023-02-24 01:37:01*
%MOMM*%
%LPD*%
G01*
G04 APERTURE LIST*
G04 Aperture macros list*
%AMRoundRect*
0 Rectangle with rounded corners*
0 $1 Rounding radius*
0 $2 $3 $4 $5 $6 $7 $8 $9 X,Y pos of 4 corners*
0 Add a 4 corners polygon primitive as box body*
4,1,4,$2,$3,$4,$5,$6,$7,$8,$9,$2,$3,0*
0 Add four circle primitives for the rounded corners*
1,1,$1+$1,$2,$3*
1,1,$1+$1,$4,$5*
1,1,$1+$1,$6,$7*
1,1,$1+$1,$8,$9*
0 Add four rect primitives between the rounded corners*
20,1,$1+$1,$2,$3,$4,$5,0*
20,1,$1+$1,$4,$5,$6,$7,0*
20,1,$1+$1,$6,$7,$8,$9,0*
20,1,$1+$1,$8,$9,$2,$3,0*%
G04 Aperture macros list end*
%ADD10O,2.400000X2.400000*%
%ADD11C,2.400000*%
%ADD12C,1.600000*%
%ADD13O,1.600000X1.600000*%
%ADD14RoundRect,0.250000X0.400000X0.625000X-0.400000X0.625000X-0.400000X-0.625000X0.400000X-0.625000X0*%
%ADD15RoundRect,0.250000X-0.400000X-0.625000X0.400000X-0.625000X0.400000X0.625000X-0.400000X0.625000X0*%
%ADD16R,1.600000X1.600000*%
%ADD17R,0.500000X0.260000*%
%ADD18R,0.700000X0.280000*%
%ADD19R,1.050000X0.680000*%
%ADD20R,2.400000X1.650000*%
%ADD21O,0.420000X0.990000*%
%ADD22RoundRect,0.070000X0.140000X-0.140000X0.140000X0.140000X-0.140000X0.140000X-0.140000X-0.140000X0*%
%ADD23RoundRect,0.155000X0.155000X-0.212500X0.155000X0.212500X-0.155000X0.212500X-0.155000X-0.212500X0*%
%ADD24RoundRect,0.250000X0.537500X1.450000X-0.537500X1.450000X-0.537500X-1.450000X0.537500X-1.450000X0*%
%ADD25R,1.500000X0.500000*%
%ADD26C,3.250000*%
%ADD27R,1.500000X1.500000*%
%ADD28C,1.500000*%
%ADD29C,2.300000*%
%ADD30RoundRect,0.155000X-0.155000X0.212500X-0.155000X-0.212500X0.155000X-0.212500X0.155000X0.212500X0*%
%ADD31RoundRect,0.250000X-0.537500X-1.450000X0.537500X-1.450000X0.537500X1.450000X-0.537500X1.450000X0*%
%ADD32R,1.700000X1.700000*%
%ADD33O,1.700000X1.700000*%
%ADD34RoundRect,0.250000X-0.412500X-1.100000X0.412500X-1.100000X0.412500X1.100000X-0.412500X1.100000X0*%
%ADD35RoundRect,0.237500X0.237500X-0.300000X0.237500X0.300000X-0.237500X0.300000X-0.237500X-0.300000X0*%
%ADD36RoundRect,0.070000X-0.140000X0.140000X-0.140000X-0.140000X0.140000X-0.140000X0.140000X0.140000X0*%
%ADD37RoundRect,0.237500X-0.237500X0.300000X-0.237500X-0.300000X0.237500X-0.300000X0.237500X0.300000X0*%
G04 APERTURE END LIST*
D10*
%TO.C,R20*%
X137100000Y-102535000D03*
D11*
X137100000Y-107615000D03*
%TD*%
%TO.C,R18*%
X136500000Y-80985000D03*
D10*
X136500000Y-86065000D03*
%TD*%
D12*
%TO.C,R9*%
X146640000Y-65000000D03*
D13*
X144100000Y-65000000D03*
%TD*%
D12*
%TO.C,R25*%
X109755000Y-79100000D03*
D13*
X112295000Y-79100000D03*
%TD*%
D14*
%TO.C,R24*%
X130450000Y-109000000D03*
X133550000Y-109000000D03*
%TD*%
D15*
%TO.C,R23*%
X149050000Y-109000000D03*
X145950000Y-109000000D03*
%TD*%
D14*
%TO.C,R22*%
X132950000Y-79600000D03*
X129850000Y-79600000D03*
%TD*%
D15*
%TO.C,R21*%
X146750000Y-79600000D03*
X149850000Y-79600000D03*
%TD*%
D10*
%TO.C,R19*%
X142400000Y-102535000D03*
D11*
X142400000Y-107615000D03*
%TD*%
%TO.C,R17*%
X143200000Y-80985000D03*
D10*
X143200000Y-86065000D03*
%TD*%
D13*
%TO.C,R16*%
X138000000Y-124650000D03*
D12*
X138000000Y-122110000D03*
%TD*%
D13*
%TO.C,R15*%
X141400000Y-121660000D03*
D12*
X141400000Y-124200000D03*
%TD*%
%TO.C,R14*%
X138000000Y-64055000D03*
D13*
X138000000Y-66595000D03*
%TD*%
D12*
%TO.C,R13*%
X141456250Y-66145000D03*
D13*
X141456250Y-63605000D03*
%TD*%
%TO.C,R12*%
X135350000Y-123792500D03*
D12*
X132810000Y-123792500D03*
%TD*%
D13*
%TO.C,R11*%
X144430000Y-123792500D03*
D12*
X146970000Y-123792500D03*
%TD*%
%TO.C,R10*%
X132855000Y-65000000D03*
D13*
X135395000Y-65000000D03*
%TD*%
D12*
%TO.C,R8*%
X92900000Y-84445000D03*
D13*
X92900000Y-81905000D03*
%TD*%
D12*
%TO.C,R7*%
X96000000Y-84445000D03*
D13*
X96000000Y-81905000D03*
%TD*%
D12*
%TO.C,R6*%
X92700000Y-98055000D03*
D13*
X92700000Y-100595000D03*
%TD*%
D12*
%TO.C,R5*%
X95750000Y-103000000D03*
D13*
X95750000Y-100460000D03*
%TD*%
D12*
%TO.C,R4*%
X114900000Y-112755000D03*
D13*
X114900000Y-115295000D03*
%TD*%
D12*
%TO.C,R3*%
X118095000Y-101200000D03*
D13*
X120635000Y-101200000D03*
%TD*%
D12*
%TO.C,R2*%
X111700000Y-112755000D03*
D13*
X111700000Y-115295000D03*
%TD*%
D12*
%TO.C,R1*%
X100955000Y-101200000D03*
D13*
X103495000Y-101200000D03*
%TD*%
D16*
%TO.C,U2*%
X118100000Y-111500000D03*
D13*
X120640000Y-111500000D03*
X123180000Y-111500000D03*
X125720000Y-111500000D03*
X125720000Y-103880000D03*
X123180000Y-103880000D03*
X120640000Y-103880000D03*
X118100000Y-103880000D03*
%TD*%
D16*
%TO.C,U1*%
X101000000Y-111500000D03*
D13*
X103540000Y-111500000D03*
X106080000Y-111500000D03*
X108620000Y-111500000D03*
X108620000Y-103880000D03*
X106080000Y-103880000D03*
X103540000Y-103880000D03*
X101000000Y-103880000D03*
%TD*%
D12*
%TO.C,C5*%
X143315000Y-117950000D03*
D16*
X148315000Y-117950000D03*
%TD*%
D17*
%TO.C,U4*%
X138270000Y-116200000D03*
D18*
X138350000Y-116200000D03*
D17*
X141530000Y-116200000D03*
D19*
X139265000Y-116000000D03*
D20*
X139900000Y-116450000D03*
D18*
X138350000Y-116700000D03*
D17*
X138270000Y-116700000D03*
D19*
X140535000Y-116900000D03*
D17*
X141530000Y-116700000D03*
D19*
X139265000Y-116900000D03*
D18*
X141450000Y-116200000D03*
X141450000Y-116700000D03*
D19*
X140535000Y-116000000D03*
D21*
X138900000Y-114975000D03*
D22*
X138900000Y-114690000D03*
X139400000Y-114690000D03*
D21*
X139400000Y-114975000D03*
X139900000Y-114975000D03*
D22*
X139900000Y-114690000D03*
D21*
X140400000Y-114975000D03*
D22*
X140400000Y-114690000D03*
X140900000Y-114690000D03*
D21*
X140900000Y-114975000D03*
X140900000Y-117925000D03*
D22*
X140900000Y-118210000D03*
D21*
X140400000Y-117925000D03*
D22*
X140400000Y-118210000D03*
X139900000Y-118210000D03*
D21*
X139900000Y-117925000D03*
X139400000Y-117925000D03*
D22*
X139400000Y-118210000D03*
D21*
X138900000Y-117925000D03*
D22*
X138900000Y-118210000D03*
%TD*%
D23*
%TO.C,C18*%
X118750000Y-89567500D03*
X118750000Y-88432500D03*
%TD*%
D24*
%TO.C,C8*%
X137437500Y-76400000D03*
X133162500Y-76400000D03*
%TD*%
%TO.C,C10*%
X134012500Y-112200000D03*
X138287500Y-112200000D03*
%TD*%
D25*
%TO.C,U5*%
X106750000Y-82030000D03*
X106750000Y-83300000D03*
X106750000Y-84570000D03*
X106750000Y-85840000D03*
X106750000Y-87110000D03*
X106750000Y-88380000D03*
X106750000Y-89650000D03*
X106750000Y-90920000D03*
X106750000Y-92190000D03*
X106750000Y-93460000D03*
X106750000Y-94730000D03*
X106750000Y-96000000D03*
X115250000Y-95985000D03*
X115250000Y-94715000D03*
X115250000Y-93445000D03*
X115250000Y-92175000D03*
X115250000Y-90905000D03*
X115250000Y-89635000D03*
X115250000Y-88365000D03*
X115250000Y-87095000D03*
X115250000Y-85825000D03*
X115250000Y-84555000D03*
X115250000Y-83285000D03*
X115250000Y-82015000D03*
%TD*%
D26*
%TO.C,J2*%
X80085000Y-91740000D03*
X80085000Y-79040000D03*
D27*
X82625000Y-88950000D03*
D28*
X84405000Y-87934000D03*
X82625000Y-86918000D03*
X84405000Y-85902000D03*
X82625000Y-84886000D03*
X84405000Y-83870000D03*
X82625000Y-82854000D03*
X84405000Y-81838000D03*
X89225000Y-92250000D03*
X89225000Y-89960000D03*
X89225000Y-80820000D03*
X89225000Y-78530000D03*
D29*
X83515000Y-93520000D03*
X83515000Y-77260000D03*
%TD*%
D30*
%TO.C,C16*%
X118900000Y-83282500D03*
X118900000Y-84417500D03*
%TD*%
D31*
%TO.C,C7*%
X142262500Y-76400000D03*
X146537500Y-76400000D03*
%TD*%
D32*
%TO.C,J4*%
X121844000Y-118260000D03*
D33*
X121844000Y-120800000D03*
X119304000Y-118260000D03*
X119304000Y-120800000D03*
X116764000Y-118260000D03*
X116764000Y-120800000D03*
X114224000Y-118260000D03*
X114224000Y-120800000D03*
X111684000Y-118260000D03*
X111684000Y-120800000D03*
X109144000Y-118260000D03*
X109144000Y-120800000D03*
%TD*%
D12*
%TO.C,C1*%
X114920000Y-106500000D03*
X114920000Y-109000000D03*
%TD*%
D31*
%TO.C,C9*%
X145537500Y-112200000D03*
X141262500Y-112200000D03*
%TD*%
D34*
%TO.C,C13*%
X120987500Y-79950000D03*
X124112500Y-79950000D03*
%TD*%
D30*
%TO.C,C19*%
X104550000Y-88432500D03*
X104550000Y-89567500D03*
%TD*%
D35*
%TO.C,C15*%
X126050000Y-80862500D03*
X126050000Y-79137500D03*
%TD*%
D30*
%TO.C,C14*%
X117450000Y-82082500D03*
X117450000Y-83217500D03*
%TD*%
%TO.C,C21*%
X103400000Y-89632500D03*
X103400000Y-90767500D03*
%TD*%
D32*
%TO.C,J5*%
X100000000Y-70000000D03*
D33*
X100000000Y-72540000D03*
X97460000Y-70000000D03*
X97460000Y-72540000D03*
X94920000Y-70000000D03*
X94920000Y-72540000D03*
X92380000Y-70000000D03*
X92380000Y-72540000D03*
X89840000Y-70000000D03*
X89840000Y-72540000D03*
X87300000Y-70000000D03*
X87300000Y-72540000D03*
X84760000Y-70000000D03*
X84760000Y-72540000D03*
X82220000Y-70000000D03*
X82220000Y-72540000D03*
X79680000Y-70000000D03*
X79680000Y-72540000D03*
X77140000Y-70000000D03*
X77140000Y-72540000D03*
%TD*%
D26*
%TO.C,J1*%
X80085000Y-112350000D03*
X80085000Y-99650000D03*
D27*
X82625000Y-109560000D03*
D28*
X84405000Y-108544000D03*
X82625000Y-107528000D03*
X84405000Y-106512000D03*
X82625000Y-105496000D03*
X84405000Y-104480000D03*
X82625000Y-103464000D03*
X84405000Y-102448000D03*
X89225000Y-112860000D03*
X89225000Y-110570000D03*
X89225000Y-101430000D03*
X89225000Y-99140000D03*
D29*
X83515000Y-97870000D03*
X83515000Y-114130000D03*
%TD*%
D12*
%TO.C,C2*%
X97520000Y-106534000D03*
X97520000Y-109034000D03*
%TD*%
D21*
%TO.C,U3*%
X140856250Y-70783750D03*
D36*
X140856250Y-70498750D03*
D21*
X140356250Y-70783750D03*
D36*
X140356250Y-70498750D03*
X139856250Y-70498750D03*
D21*
X139856250Y-70783750D03*
D36*
X139356250Y-70498750D03*
D21*
X139356250Y-70783750D03*
D36*
X138856250Y-70498750D03*
D21*
X138856250Y-70783750D03*
D36*
X138856250Y-74018750D03*
D21*
X138856250Y-73733750D03*
X139356250Y-73733750D03*
D36*
X139356250Y-74018750D03*
D21*
X139856250Y-73733750D03*
D36*
X139856250Y-74018750D03*
X140356250Y-74018750D03*
D21*
X140356250Y-73733750D03*
D36*
X140856250Y-74018750D03*
D21*
X140856250Y-73733750D03*
D19*
X140491250Y-71808750D03*
X139221250Y-72708750D03*
D18*
X138306250Y-72508750D03*
D19*
X139221250Y-71808750D03*
D17*
X141486250Y-72508750D03*
D18*
X138306250Y-72008750D03*
D17*
X138226250Y-72508750D03*
D18*
X141406250Y-72508750D03*
D17*
X141486250Y-72008750D03*
D20*
X139856250Y-72258750D03*
D18*
X141406250Y-72008750D03*
D19*
X140491250Y-72708750D03*
D17*
X138226250Y-72008750D03*
%TD*%
D32*
%TO.C,J6*%
X121875000Y-70000000D03*
D33*
X121844000Y-72540000D03*
X119304000Y-70000000D03*
X119304000Y-72540000D03*
X116764000Y-70000000D03*
X116764000Y-72540000D03*
X114224000Y-70000000D03*
X114224000Y-72540000D03*
X111684000Y-70000000D03*
X111684000Y-72540000D03*
X109144000Y-70000000D03*
X109144000Y-72540000D03*
X106604000Y-70000000D03*
X106604000Y-72540000D03*
X104064000Y-70000000D03*
X104064000Y-72540000D03*
%TD*%
D37*
%TO.C,C17*%
X121450000Y-88037500D03*
X121450000Y-89762500D03*
%TD*%
D35*
%TO.C,C20*%
X101800000Y-90962500D03*
X101800000Y-89237500D03*
%TD*%
D16*
%TO.C,C6*%
X131315000Y-117950000D03*
D12*
X136315000Y-117950000D03*
%TD*%
D16*
%TO.C,C11*%
X141060226Y-90768974D03*
D12*
X138560226Y-90768974D03*
%TD*%
D16*
%TO.C,C12*%
X138474440Y-98000000D03*
D12*
X140974440Y-98000000D03*
%TD*%
D16*
%TO.C,C4*%
X131406250Y-70500000D03*
D12*
X136406250Y-70500000D03*
%TD*%
D16*
%TO.C,C3*%
X148306250Y-70508750D03*
D12*
X143306250Y-70508750D03*
%TD*%
D32*
%TO.C,J3*%
X104064000Y-118260000D03*
D33*
X104064000Y-120800000D03*
X101524000Y-118260000D03*
X101524000Y-120800000D03*
X98984000Y-118260000D03*
X98984000Y-120800000D03*
X96444000Y-118260000D03*
X96444000Y-120800000D03*
X93904000Y-118260000D03*
X93904000Y-120800000D03*
X91364000Y-118260000D03*
X91364000Y-120800000D03*
X88824000Y-118260000D03*
X88824000Y-120800000D03*
X86284000Y-118260000D03*
X86284000Y-120800000D03*
%TD*%
M02*
