M48
; DRILL file {KiCad (6.0.10)} date Fri Feb 24 01:36:55 2023
; FORMAT={-:-/ absolute / inch / decimal}
; #@! TF.CreationDate,2023-02-24T01:36:55-05:00
; #@! TF.GenerationSoftware,Kicad,Pcbnew,(6.0.10)
; #@! TF.FileFunction,Plated,1,2,PTH
FMAT,2
INCH
; #@! TA.AperFunction,Plated,PTH,ViaDrill
T1C0.0157
; #@! TA.AperFunction,Plated,PTH,ComponentDrill
T2C0.0315
; #@! TA.AperFunction,Plated,PTH,ComponentDrill
T3C0.0350
; #@! TA.AperFunction,Plated,PTH,ComponentDrill
T4C0.0394
; #@! TA.AperFunction,Plated,PTH,ComponentDrill
T5C0.0472
; #@! TA.AperFunction,Plated,PTH,ComponentDrill
T6C0.0618
%
G90
G05
T1
X4.2323Y-4.4843
X4.5433Y-3.8661
X4.8543Y-3.4646
X4.8563Y-3.5354
X4.9685Y-2.6703
X5.0118Y-2.7087
X5.4902Y-4.6973
X5.5059Y-4.3799
X5.5062Y-3.0849
X5.5472Y-2.7283
T2
X3.6496Y-3.8604
X3.6496Y-3.9604
X3.6575Y-3.2246
X3.6575Y-3.3246
X3.7697Y-3.9551
X3.7697Y-4.0551
X3.7795Y-3.2246
X3.7795Y-3.3246
X3.8394Y-4.1943
X3.8394Y-4.2927
X3.9746Y-3.9843
X3.9764Y-4.0898
X3.9764Y-4.3898
X4.0746Y-3.9843
X4.0764Y-4.0898
X4.0764Y-4.3898
X4.1764Y-4.0898
X4.1764Y-4.3898
X4.2764Y-4.0898
X4.2764Y-4.3898
X4.3211Y-3.1142
X4.3976Y-4.4392
X4.3976Y-4.5392
X4.4211Y-3.1142
X4.5236Y-4.4392
X4.5236Y-4.5392
X4.5244Y-4.1929
X4.5244Y-4.2913
X4.6494Y-3.9843
X4.6496Y-4.0898
X4.6496Y-4.3898
X4.7494Y-3.9843
X4.7496Y-4.0898
X4.7496Y-4.3898
X4.8496Y-4.0898
X4.8496Y-4.3898
X4.9496Y-4.0898
X4.9496Y-4.3898
X5.1699Y-4.6437
X5.1735Y-2.7756
X5.2287Y-4.8737
X5.2305Y-2.5591
X5.3287Y-4.8737
X5.3305Y-2.5591
X5.3667Y-4.6437
X5.3703Y-2.7756
X5.4331Y-2.5219
X5.4331Y-2.6219
X5.4331Y-4.8075
X5.4331Y-4.9075
X5.4517Y-3.8583
X5.4551Y-3.5736
X5.5502Y-3.8583
X5.5536Y-3.5736
X5.5669Y-4.7898
X5.5669Y-4.8898
X5.5691Y-2.5041
X5.5691Y-2.6041
X5.642Y-2.7759
X5.6423Y-4.6437
X5.6732Y-2.5591
X5.6862Y-4.8737
X5.7732Y-2.5591
X5.7862Y-4.8737
X5.8388Y-2.7759
X5.8392Y-4.6437
T3
X3.253Y-3.262
X3.253Y-3.342
X3.253Y-3.422
X3.253Y-3.502
X3.253Y-4.0734
X3.253Y-4.1534
X3.253Y-4.2334
X3.253Y-4.3134
X3.323Y-3.222
X3.323Y-3.302
X3.323Y-3.382
X3.323Y-3.462
X3.323Y-4.0334
X3.323Y-4.1134
X3.323Y-4.1934
X3.323Y-4.2734
X3.5128Y-3.0917
X3.5128Y-3.1819
X3.5128Y-3.5417
X3.5128Y-3.6319
X3.5128Y-3.9031
X3.5128Y-3.9933
X3.5128Y-4.3531
X3.5128Y-4.4433
T4
X3.037Y-2.7559
X3.037Y-2.8559
X3.137Y-2.7559
X3.137Y-2.8559
X3.237Y-2.7559
X3.237Y-2.8559
X3.337Y-2.7559
X3.337Y-2.8559
X3.397Y-4.6559
X3.397Y-4.7559
X3.437Y-2.7559
X3.437Y-2.8559
X3.497Y-4.6559
X3.497Y-4.7559
X3.537Y-2.7559
X3.537Y-2.8559
X3.597Y-4.6559
X3.597Y-4.7559
X3.637Y-2.7559
X3.637Y-2.8559
X3.697Y-4.6559
X3.697Y-4.7559
X3.737Y-2.7559
X3.737Y-2.8559
X3.797Y-4.6559
X3.797Y-4.7559
X3.837Y-2.7559
X3.837Y-2.8559
X3.897Y-4.6559
X3.897Y-4.7559
X3.937Y-2.7559
X3.937Y-2.8559
X3.997Y-4.6559
X3.997Y-4.7559
X4.097Y-2.7559
X4.097Y-2.8559
X4.097Y-4.6559
X4.097Y-4.7559
X4.197Y-2.7559
X4.197Y-2.8559
X4.297Y-2.7559
X4.297Y-2.8559
X4.297Y-4.6559
X4.297Y-4.7559
X4.397Y-2.7559
X4.397Y-2.8559
X4.397Y-4.6559
X4.397Y-4.7559
X4.497Y-2.7559
X4.497Y-2.8559
X4.497Y-4.6559
X4.497Y-4.7559
X4.597Y-2.7559
X4.597Y-2.8559
X4.597Y-4.6559
X4.597Y-4.7559
X4.697Y-2.7559
X4.697Y-2.8559
X4.697Y-4.6559
X4.697Y-4.7559
X4.797Y-2.8559
X4.797Y-4.6559
X4.797Y-4.7559
X4.7982Y-2.7559
T5
X5.374Y-3.1884
X5.374Y-3.3884
X5.3976Y-4.0368
X5.3976Y-4.2368
X5.6063Y-4.0368
X5.6063Y-4.2368
X5.6378Y-3.1884
X5.6378Y-3.3884
T6
X3.288Y-3.0417
X3.288Y-3.6819
X3.288Y-3.8531
X3.288Y-4.4933
T0
M30
